SplineFontDB: 3.2
FontName: BibleRomanItalic
FullName: Bible Roman Italic
FamilyName: Bible Roman
Weight: Book
Copyright: 2002, Fredrick Nader. All rights reserved. apostrophe@apostrophiclab.com
Version: 1.0; December 2002
ItalicAngle: -13.2
UnderlinePosition: -150
UnderlineWidth: 40
Ascent: 819
Descent: 205
InvalidEm: 0
sfntRevision: 0x00010000
LayerCount: 2
Layer: 0 1 "Hinten" 1
Layer: 1 1 "Vorne" 0
XUID: [1021 256 -1967491057 23999]
StyleMap: 0x0001
FSType: 0
OS2Version: 2
OS2_WeightWidthSlopeOnly: 0
OS2_UseTypoMetrics: 0
CreationTime: 1039457615
ModificationTime: 1764515288
PfmFamily: 17
TTFWeight: 400
TTFWidth: 5
LineGap: 28
VLineGap: 0
Panose: 2 2 5 0 6 4 11 2 4 3
OS2TypoAscent: 816
OS2TypoAOffset: 0
OS2TypoDescent: -281
OS2TypoDOffset: 0
OS2TypoLinegap: 54
OS2WinAscent: 1026
OS2WinAOffset: 0
OS2WinDescent: 298
OS2WinDOffset: 0
HheadAscent: 1026
HheadAOffset: 0
HheadDescent: -298
HheadDOffset: 0
OS2SubXSize: 717
OS2SubYSize: 666
OS2SubXOff: 0
OS2SubYOff: 143
OS2SupXSize: 717
OS2SupYSize: 666
OS2SupXOff: 0
OS2SupYOff: 488
OS2StrikeYSize: 51
OS2StrikeYPos: 256
OS2FamilyClass: 258
OS2Vendor: 'APOS'
OS2CodePages: 20000111.00000000
OS2UnicodeRanges: 80000027.4000004a.00000000.00000000
Lookup: 1 0 0 "'smcp' Gemeine in Kapit+AOQA-lchen in Lateinisch Nachschlagetabelle 0" { "'smcp' Gemeine in Kapit+AOQA-lchen in Lateinisch Nachschlagetabelle 0 Subtabelle"  } ['smcp' ('latn' <'dflt' > ) ]
Lookup: 1 0 0 "'c2sc' Versalien in Kapit+AOQA-lchen in Lateinisch Nachschlagetabelle 0" { "'c2sc' Versalien in Kapit+AOQA-lchen in Lateinisch Nachschlagetabelle 0 Subtabelle"  } ['c2sc' ('latn' <'dflt' > ) ]
Lookup: 258 0 0 "'kern' Horizontale Unterschneidung in Lateinisch Nachschlagetabelle 0" { "'kern' Horizontale Unterschneidung in Lateinisch Nachschlagetabelle 0 Subtabelle"  } ['kern' ('DFLT' <'dflt' > 'latn' <'dflt' > ) ]
MarkAttachClasses: 1
DEI: 91125
ShortTable: maxp 16
  1
  0
  248
  235
  7
  0
  0
  1
  0
  0
  0
  0
  0
  0
  0
  0
EndShort

StartChar: breve
Encoding: 5 5 4
Width: 441
Flags: W
LayerCount: 2
Fore
SplineSet
361 586 m 0,0,1
 376 586 376 586 391.5 592 c 128,-1,2
 407 598 407 598 420 609 c 128,-1,3
 433 620 433 620 442.5 633.5 c 128,-1,4
 452 647 452 647 456 664 c 1,5,-1
 495 664 l 1,6,7
 489 637 489 637 473.5 614.5 c 128,-1,8
 458 592 458 592 438 575 c 128,-1,9
 418 558 418 558 394.5 548.5 c 128,-1,10
 371 539 371 539 346 539 c 0,11,12
 342 539 342 539 338 541 c 0,13,14
 320 542 320 542 304.5 553.5 c 128,-1,15
 289 565 289 565 279 583 c 128,-1,16
 269 601 269 601 265.5 622 c 128,-1,17
 262 643 262 643 266 664 c 1,18,-1
 310 664 l 1,19,20
 308 651 308 651 310.5 637.5 c 128,-1,21
 313 624 313 624 319 613 c 128,-1,22
 325 602 325 602 334.5 595 c 128,-1,23
 344 588 344 588 355 587 c 0,24,25
 357 586 357 586 361 586 c 0,0,1
EndSplineSet
Validated: 33
EndChar

StartChar: dotaccent
Encoding: 6 6 5
Width: 425
Flags: W
LayerCount: 2
Fore
SplineSet
437 638 m 0,0,1
 431 610 431 610 407.5 590.5 c 128,-1,2
 384 571 384 571 358 571 c 0,3,4
 354 571 354 571 354 572 c 0,5,6
 344 573 344 573 336 580 c 128,-1,7
 328 587 328 587 323 596.5 c 128,-1,8
 318 606 318 606 316.5 618 c 128,-1,9
 315 630 315 630 317 641 c 0,10,11
 322 665 322 665 344.5 684 c 128,-1,12
 367 703 367 703 388 703 c 0,13,14
 413 703 413 703 428 684 c 128,-1,15
 443 665 443 665 437 638 c 0,0,1
EndSplineSet
Validated: 33
EndChar

StartChar: ring
Encoding: 8 8 6
Width: 434
Flags: W
LayerCount: 2
Fore
SplineSet
426 635 m 256,0,1
 432 661 432 661 419 678.5 c 128,-1,2
 406 696 406 696 383 696 c 0,3,4
 363 696 363 696 343 679 c 128,-1,5
 323 662 323 662 317 639 c 0,6,7
 315 629 315 629 316.5 618 c 128,-1,8
 318 607 318 607 323 598 c 128,-1,9
 328 589 328 589 335 583 c 128,-1,10
 342 577 342 577 351 575 c 0,11,12
 352 574 352 574 355 574 c 0,13,14
 379 574 379 574 399.5 591.5 c 128,-1,15
 420 609 420 609 426 635 c 256,0,1
457 635 m 0,16,17
 452 615 452 615 441 597.5 c 128,-1,18
 430 580 430 580 414.5 567 c 128,-1,19
 399 554 399 554 380.5 546.5 c 128,-1,20
 362 539 362 539 344 539 c 0,21,22
 338 539 338 539 337 541 c 0,23,24
 322 542 322 542 310.5 551.5 c 128,-1,25
 299 561 299 561 292 575.5 c 128,-1,26
 285 590 285 590 282.5 607 c 128,-1,27
 280 624 280 624 284 640 c 0,28,29
 288 657 288 657 298 673.5 c 128,-1,30
 308 690 308 690 323 703 c 128,-1,31
 338 716 338 716 354.5 723.5 c 128,-1,32
 371 731 371 731 387 731 c 0,33,34
 428 731 428 731 447 703.5 c 128,-1,35
 466 676 466 676 457 635 c 0,16,17
EndSplineSet
Validated: 33
EndChar

StartChar: hungarumlaut
Encoding: 10 10 7
Width: 489
Flags: W
LayerCount: 2
Fore
SplineSet
404 718 m 0,0,1
 408 713 408 713 411 711.5 c 128,-1,2
 414 710 414 710 416 708 c 128,-1,3
 418 706 418 706 421.5 702.5 c 128,-1,4
 425 699 425 699 432 693 c 0,5,6
 439 690 439 690 436.5 682.5 c 128,-1,7
 434 675 434 675 429 671 c 0,8,9
 421 663 421 663 398.5 639.5 c 128,-1,10
 376 616 376 616 351 591 c 128,-1,11
 326 566 326 566 304.5 545.5 c 128,-1,12
 283 525 283 525 278 522 c 0,13,14
 268 516 268 516 262 521.5 c 128,-1,15
 256 527 256 527 264 539 c 0,16,17
 272 552 272 552 288 576 c 128,-1,18
 304 600 304 600 321.5 626 c 128,-1,19
 339 652 339 652 355.5 675.5 c 128,-1,20
 372 699 372 699 381 712 c 0,21,22
 387 720 387 720 392 722 c 128,-1,23
 397 724 397 724 404 718 c 0,0,1
531 718 m 0,24,25
 535 713 535 713 538 711.5 c 128,-1,26
 541 710 541 710 543 708 c 128,-1,27
 545 706 545 706 548.5 702.5 c 128,-1,28
 552 699 552 699 559 693 c 0,29,30
 566 690 566 690 563.5 682.5 c 128,-1,31
 561 675 561 675 556 671 c 0,32,33
 548 663 548 663 525 639.5 c 128,-1,34
 502 616 502 616 477.5 591 c 128,-1,35
 453 566 453 566 431.5 545.5 c 128,-1,36
 410 525 410 525 404 522 c 0,37,38
 394 516 394 516 388.5 521.5 c 128,-1,39
 383 527 383 527 391 539 c 0,40,41
 399 552 399 552 415 576 c 128,-1,42
 431 600 431 600 448.5 626 c 128,-1,43
 466 652 466 652 482.5 675.5 c 128,-1,44
 499 699 499 699 508 712 c 0,45,46
 514 720 514 720 519 722 c 128,-1,47
 524 724 524 724 531 718 c 0,24,25
EndSplineSet
Validated: 1
EndChar

StartChar: ogonek
Encoding: 11 11 8
Width: 444
Flags: W
LayerCount: 2
Fore
SplineSet
252 -46 m 0,0,1
 261 -20 261 -20 277.5 -2.5 c 128,-1,2
 294 15 294 15 314 25.5 c 128,-1,3
 334 36 334 36 356.5 39.5 c 128,-1,4
 379 43 379 43 399 40 c 0,5,6
 402 39 402 39 401.5 33.5 c 128,-1,7
 401 28 401 28 390 1 c 1,8,9
 382 2 382 2 370 -2 c 128,-1,10
 358 -6 358 -6 347.5 -13 c 128,-1,11
 337 -20 337 -20 328 -30.5 c 128,-1,12
 319 -41 319 -41 315 -51 c 0,13,14
 307 -75 307 -75 315 -95 c 128,-1,15
 323 -115 323 -115 359 -116 c 0,16,17
 379 -117 379 -117 398 -115 c 128,-1,18
 417 -113 417 -113 442 -106 c 1,19,20
 445 -112 445 -112 444.5 -117.5 c 128,-1,21
 444 -123 444 -123 443 -131 c 1,22,23
 419 -140 419 -140 394.5 -149 c 128,-1,24
 370 -158 370 -158 346 -159 c 0,25,26
 319 -160 319 -160 297.5 -151.5 c 128,-1,27
 276 -143 276 -143 263.5 -128 c 128,-1,28
 251 -113 251 -113 247.5 -92 c 128,-1,29
 244 -71 244 -71 252 -46 c 0,0,1
EndSplineSet
Validated: 33
EndChar

StartChar: caron
Encoding: 12 12 9
Width: 397
Flags: W
LayerCount: 2
Fore
SplineSet
473 716 m 0,0,1
 479 716 479 716 477 709 c 0,2,3
 476 706 476 706 467 691.5 c 128,-1,4
 458 677 458 677 443.5 657.5 c 128,-1,5
 429 638 429 638 411.5 615.5 c 128,-1,6
 394 593 394 593 379 573.5 c 128,-1,7
 364 554 364 554 351.5 539.5 c 128,-1,8
 339 525 339 525 334 522 c 1,9,10
 327 527 327 527 327 530 c 0,11,12
 311 579 311 579 295.5 623 c 128,-1,13
 280 667 280 667 275 705 c 0,14,15
 275 711 275 711 275 713 c 0,16,17
 277 721 277 721 286 720 c 0,18,19
 290 719 290 719 298 704 c 128,-1,20
 306 689 306 689 315.5 669.5 c 128,-1,21
 325 650 325 650 335 632 c 128,-1,22
 345 614 345 614 354 607 c 1,23,24
 366 614 366 614 383 632 c 128,-1,25
 400 650 400 650 416.5 668.5 c 128,-1,26
 433 687 433 687 448.5 701.5 c 128,-1,27
 464 716 464 716 473 716 c 0,0,1
EndSplineSet
Validated: 1
EndChar

StartChar: dotlessi
Encoding: 13 13 10
Width: 295
Flags: W
LayerCount: 2
Fore
SplineSet
261 5 m 0,0,1
 258 -6 258 -6 248.5 -7 c 128,-1,2
 239 -8 239 -8 231 -8 c 0,3,4
 214 -8 214 -8 198 -5.5 c 128,-1,5
 182 -3 182 -3 166 -3 c 0,6,7
 141 -3 141 -3 115 -5.5 c 128,-1,8
 89 -8 89 -8 65 -8 c 2,9,-1
 53 -8 l 2,10,11
 46 -8 46 -8 40 -6 c 128,-1,12
 34 -4 34 -4 36 7 c 0,13,14
 37 10 37 10 39.5 12 c 128,-1,15
 42 14 42 14 44 16 c 0,16,17
 54 23 54 23 65.5 25 c 128,-1,18
 77 27 77 27 87.5 28.5 c 128,-1,19
 98 30 98 30 108 35.5 c 128,-1,20
 118 41 118 41 124 57 c 0,21,22
 128 67 128 67 129 72 c 2,23,-1
 133 87 l 2,24,25
 141 120 141 120 148 151 c 128,-1,26
 155 182 155 182 163 215 c 0,27,28
 169 240 169 240 176 264 c 128,-1,29
 183 288 183 288 189 312 c 0,30,31
 192 324 192 324 195 341.5 c 128,-1,32
 198 359 198 359 193 370 c 0,33,34
 190 376 190 376 182 380 c 128,-1,35
 174 384 174 384 166.5 387.5 c 128,-1,36
 159 391 159 391 153.5 394.5 c 128,-1,37
 148 398 148 398 150 403 c 256,38,39
 151 408 151 408 157.5 412.5 c 128,-1,40
 164 417 164 417 173 420.5 c 128,-1,41
 182 424 182 424 190.5 426.5 c 128,-1,42
 199 429 199 429 203 430 c 0,43,44
 210 432 210 432 224 439 c 128,-1,45
 238 446 238 446 252.5 454 c 128,-1,46
 267 462 267 462 279 468 c 128,-1,47
 291 474 291 474 295 474 c 0,48,49
 301 474 301 474 299 469 c 0,50,51
 296 454 296 454 292 439 c 128,-1,52
 288 424 288 424 283 409 c 0,53,54
 275 378 275 378 267.5 346.5 c 128,-1,55
 260 315 260 315 253 285 c 0,56,57
 244 247 244 247 235.5 209.5 c 128,-1,58
 227 172 227 172 220 134 c 0,59,60
 216 117 216 117 211.5 99 c 128,-1,61
 207 81 207 81 205 63 c 0,62,63
 202 41 202 41 211 34.5 c 128,-1,64
 220 28 220 28 232.5 25.5 c 128,-1,65
 245 23 245 23 254.5 20 c 128,-1,66
 264 17 264 17 261 5 c 0,0,1
EndSplineSet
Validated: 1
EndChar

StartChar: fraction
Encoding: 25 25 11
Width: 258
Flags: W
LayerCount: 2
Fore
SplineSet
551 662 m 1,0,1
 514 619 514 619 475 578.5 c 128,-1,2
 436 538 436 538 396 497 c 0,3,4
 278 374 278 374 162 254 c 128,-1,5
 46 134 46 134 -68 7 c 1,6,7
 -72 9 -72 9 -82 18.5 c 128,-1,8
 -92 28 -92 28 -112 36 c 1,9,10
 42 202 42 202 196.5 361.5 c 128,-1,11
 351 521 351 521 505 690 c 1,12,13
 515 690 515 690 528.5 679 c 128,-1,14
 542 668 542 668 551 662 c 1,0,1
EndSplineSet
Validated: 1
EndChar

StartChar: fi
Encoding: 26 26 12
Width: 579
Flags: W
LayerCount: 2
Fore
SplineSet
545 5 m 0,0,1
 542 -6 542 -6 531.5 -7 c 128,-1,2
 521 -8 521 -8 515 -8 c 0,3,4
 498 -8 498 -8 482 -5.5 c 128,-1,5
 466 -3 466 -3 450 -3 c 0,6,7
 425 -3 425 -3 398.5 -5.5 c 128,-1,8
 372 -8 372 -8 347 -8 c 2,9,-1
 337 -8 l 2,10,11
 330 -8 330 -8 323 -6 c 128,-1,12
 316 -4 316 -4 319 7 c 0,13,14
 320 10 320 10 322.5 12 c 128,-1,15
 325 14 325 14 327 16 c 0,16,17
 337 23 337 23 348.5 25 c 128,-1,18
 360 27 360 27 371 28.5 c 128,-1,19
 382 30 382 30 391 35.5 c 128,-1,20
 400 41 400 41 407 57 c 0,21,22
 411 67 411 67 413 72 c 2,23,-1
 416 87 l 2,24,25
 424 120 424 120 431 151 c 128,-1,26
 438 182 438 182 446 215 c 0,27,28
 452 240 452 240 459.5 264 c 128,-1,29
 467 288 467 288 472 312 c 0,30,31
 476 328 476 328 477.5 344.5 c 128,-1,32
 479 361 479 361 475.5 374.5 c 128,-1,33
 472 388 472 388 462.5 397 c 128,-1,34
 453 406 453 406 433 407 c 2,35,-1
 334 407 l 2,36,37
 311 407 311 407 293.5 406.5 c 128,-1,38
 276 406 276 406 270 406 c 1,39,40
 262 399 262 399 259 383.5 c 128,-1,41
 256 368 256 368 254 358 c 0,42,43
 238 287 238 287 221.5 220 c 128,-1,44
 205 153 205 153 188 82 c 0,45,46
 183 59 183 59 187 48 c 128,-1,47
 191 37 191 37 200.5 31.5 c 128,-1,48
 210 26 210 26 224 24.5 c 128,-1,49
 238 23 238 23 254 19 c 0,50,51
 257 15 257 15 255 8 c 256,52,53
 253 1 253 1 248 -1 c 1,54,-1
 246 -4 l 1,55,56
 239 -8 239 -8 227 -8 c 0,57,58
 209 -8 209 -8 191.5 -5 c 128,-1,59
 174 -2 174 -2 157 -2 c 0,60,61
 129 -2 129 -2 100.5 -5 c 128,-1,62
 72 -8 72 -8 44 -8 c 0,63,64
 39 -8 39 -8 29.5 -7 c 128,-1,65
 20 -6 20 -6 22 2 c 0,66,67
 25 16 25 16 37 19.5 c 128,-1,68
 49 23 49 23 64.5 26.5 c 128,-1,69
 80 30 80 30 94 40.5 c 128,-1,70
 108 51 108 51 115 81 c 2,71,-1
 182 375 l 2,72,73
 185 388 185 388 185 402 c 1,74,75
 162 405 162 405 141 406 c 0,76,77
 134 406 134 406 125 408 c 128,-1,78
 116 410 116 410 119 421 c 0,79,80
 120 425 120 425 121.5 430.5 c 128,-1,81
 123 436 123 436 126 440 c 0,82,83
 130 445 130 445 140 447.5 c 128,-1,84
 150 450 150 450 161 451.5 c 128,-1,85
 172 453 172 453 183 454 c 128,-1,86
 194 455 194 455 201 458 c 1,87,88
 213 498 213 498 223 539.5 c 128,-1,89
 233 581 233 581 252 620 c 0,90,91
 269 659 269 659 295 694 c 128,-1,92
 321 729 321 729 352 755.5 c 128,-1,93
 383 782 383 782 419.5 797.5 c 128,-1,94
 456 813 456 813 495 812 c 0,95,96
 515 812 515 812 534.5 809 c 128,-1,97
 554 806 554 806 568.5 797 c 128,-1,98
 583 788 583 788 590 774 c 128,-1,99
 597 760 597 760 593 738 c 0,100,101
 593 726 593 726 584 714.5 c 128,-1,102
 575 703 575 703 563 696.5 c 128,-1,103
 551 690 551 690 539 689 c 128,-1,104
 527 688 527 688 521 695 c 0,105,106
 516 699 516 699 515.5 710.5 c 128,-1,107
 515 722 515 722 508.5 732.5 c 128,-1,108
 502 743 502 743 485 752 c 128,-1,109
 468 761 468 761 430 761 c 0,110,111
 410 761 410 761 393 747.5 c 128,-1,112
 376 734 376 734 361.5 713 c 128,-1,113
 347 692 347 692 335.5 665.5 c 128,-1,114
 324 639 324 639 314.5 612 c 128,-1,115
 305 585 305 585 298.5 560.5 c 128,-1,116
 292 536 292 536 288 518 c 2,117,-1
 285 504 l 2,118,119
 282 492 282 492 278 475 c 128,-1,120
 274 458 274 458 279 453 c 1,121,-1
 497 453 l 2,122,123
 512 453 512 453 525.5 457.5 c 128,-1,124
 539 462 539 462 550 467 c 128,-1,125
 561 472 561 472 568 474.5 c 128,-1,126
 575 477 575 477 578 474 c 0,127,128
 579 472 579 472 581 471.5 c 128,-1,129
 583 471 583 471 582 469 c 0,130,131
 579 454 579 454 574.5 439 c 128,-1,132
 570 424 570 424 566 409 c 0,133,134
 558 378 558 378 550.5 346.5 c 128,-1,135
 543 315 543 315 536 285 c 0,136,137
 527 247 527 247 519 209.5 c 128,-1,138
 511 172 511 172 503 134 c 0,139,140
 499 117 499 117 494 99 c 128,-1,141
 489 81 489 81 487 63 c 0,142,143
 484 41 484 41 493.5 34.5 c 128,-1,144
 503 28 503 28 515 25.5 c 128,-1,145
 527 23 527 23 537.5 20 c 128,-1,146
 548 17 548 17 545 5 c 0,0,1
EndSplineSet
Validated: 33
EndChar

StartChar: fl
Encoding: 27 27 13
Width: 584
Flags: W
LayerCount: 2
Fore
SplineSet
550 8 m 0,0,1
 547 -3 547 -3 538 -6 c 0,2,3
 537 -7 537 -7 532 -7 c 2,4,-1
 528 -7 l 2,5,6
 506 -7 506 -7 484.5 -4.5 c 128,-1,7
 463 -2 463 -2 441 -2 c 0,8,9
 413 -2 413 -2 385.5 -5 c 128,-1,10
 358 -8 358 -8 331 -8 c 0,11,12
 326 -8 326 -8 317 -6.5 c 128,-1,13
 308 -5 308 -5 309 3 c 0,14,15
 312 16 312 16 318.5 17.5 c 128,-1,16
 325 19 325 19 338 24 c 0,17,18
 355 29 355 29 371 35.5 c 128,-1,19
 387 42 387 42 398 60 c 0,20,21
 403 68 403 68 407 80.5 c 128,-1,22
 411 93 411 93 413 102 c 0,23,24
 445 240 445 240 476 374 c 128,-1,25
 507 508 507 508 540 646 c 0,26,27
 549 684 549 684 543 709.5 c 128,-1,28
 537 735 537 735 521 749 c 128,-1,29
 505 763 505 763 481.5 765.5 c 128,-1,30
 458 768 458 768 430 761 c 0,31,32
 397 753 397 753 373.5 723.5 c 128,-1,33
 350 694 350 694 333 657.5 c 128,-1,34
 316 621 316 621 305 582.5 c 128,-1,35
 294 544 294 544 288 518 c 2,36,-1
 285 504 l 2,37,38
 282 492 282 492 278 475 c 128,-1,39
 274 458 274 458 279 453 c 1,40,-1
 385 453 l 2,41,42
 397 453 397 453 401 446 c 0,43,44
 400 441 400 441 399.5 437 c 128,-1,45
 399 433 399 433 398 428 c 0,46,47
 395 417 395 417 389 409 c 0,48,49
 384 408 384 408 378.5 407.5 c 128,-1,50
 373 407 373 407 367 407 c 2,51,-1
 307 407 l 2,52,53
 298 407 298 407 289 407 c 0,54,55
 281 407 281 407 270 406 c 1,56,57
 262 399 262 399 259 383.5 c 128,-1,58
 256 368 256 368 254 358 c 0,59,60
 238 287 238 287 221.5 220 c 128,-1,61
 205 153 205 153 188 82 c 0,62,63
 183 59 183 59 187 48 c 128,-1,64
 191 37 191 37 200.5 31.5 c 128,-1,65
 210 26 210 26 224 24.5 c 128,-1,66
 238 23 238 23 254 19 c 0,67,68
 257 15 257 15 255 8 c 256,69,70
 253 1 253 1 248 -1 c 1,71,-1
 246 -4 l 1,72,73
 239 -8 239 -8 227 -8 c 0,74,75
 209 -8 209 -8 191.5 -5 c 128,-1,76
 174 -2 174 -2 157 -2 c 0,77,78
 129 -2 129 -2 100.5 -5 c 128,-1,79
 72 -8 72 -8 44 -8 c 0,80,81
 39 -8 39 -8 29.5 -7 c 128,-1,82
 20 -6 20 -6 22 2 c 0,83,84
 25 16 25 16 37 19.5 c 128,-1,85
 49 23 49 23 64.5 26.5 c 128,-1,86
 80 30 80 30 94 40.5 c 128,-1,87
 108 51 108 51 115 81 c 2,88,-1
 182 375 l 2,89,90
 185 388 185 388 185 402 c 1,91,92
 162 405 162 405 141 406 c 0,93,94
 134 406 134 406 125 408 c 128,-1,95
 116 410 116 410 119 421 c 0,96,97
 120 425 120 425 121.5 430.5 c 128,-1,98
 123 436 123 436 126 440 c 0,99,100
 130 445 130 445 140 447.5 c 128,-1,101
 150 450 150 450 161 451.5 c 128,-1,102
 172 453 172 453 183 454 c 128,-1,103
 194 455 194 455 201 458 c 1,104,105
 213 498 213 498 223 539.5 c 128,-1,106
 233 581 233 581 252 620 c 0,107,108
 269 659 269 659 295 694 c 128,-1,109
 321 729 321 729 352 755.5 c 128,-1,110
 383 782 383 782 419.5 797.5 c 128,-1,111
 456 813 456 813 495 812 c 0,112,113
 524 811 524 811 544.5 804.5 c 128,-1,114
 565 798 565 798 578 778 c 1,115,116
 601 786 601 786 619 793 c 0,117,118
 639 800 639 800 645 802 c 1,119,120
 650 798 650 798 649 798 c 1,121,122
 646 784 646 784 643.5 770.5 c 128,-1,123
 641 757 641 757 638 742 c 0,124,125
 599 574 599 574 560.5 410.5 c 128,-1,126
 522 247 522 247 483 79 c 0,127,128
 475 45 475 45 490 36.5 c 128,-1,129
 505 28 505 28 530 25 c 0,130,131
 531 23 531 23 534 23.5 c 128,-1,132
 537 24 537 24 539 24 c 0,133,134
 553 23 553 23 550 8 c 0,0,1
EndSplineSet
Validated: 33
EndChar

StartChar: Lslash
Encoding: 28 28 14
Width: 595
Flags: W
LayerCount: 2
Fore
SplineSet
110 311 m 0,0,1
 110 314 110 314 116.5 319 c 128,-1,2
 123 324 123 324 132 328.5 c 128,-1,3
 141 333 141 333 151 337.5 c 128,-1,4
 161 342 161 342 167 345 c 0,5,6
 181 351 181 351 197 360 c 128,-1,7
 213 369 213 369 228 377 c 1,8,-1
 283 614 l 2,9,10
 289 640 289 640 290 660 c 0,11,12
 291 683 291 683 276 690.5 c 128,-1,13
 261 698 261 698 243 700.5 c 128,-1,14
 225 703 225 703 211.5 706 c 128,-1,15
 198 709 198 709 201 723 c 256,16,17
 204 737 204 737 215 739 c 128,-1,18
 226 741 226 741 238 741 c 0,19,20
 272 741 272 741 302.5 737.5 c 128,-1,21
 333 734 333 734 366 734 c 0,22,23
 401 734 401 734 433.5 736 c 128,-1,24
 466 738 466 738 506 738 c 1,25,26
 513 730 513 730 511 722 c 0,27,28
 508 710 508 710 496 706 c 128,-1,29
 484 702 484 702 468.5 700.5 c 128,-1,30
 453 699 453 699 437.5 697.5 c 128,-1,31
 422 696 422 696 411 688 c 0,32,33
 403 682 403 682 397 672 c 128,-1,34
 391 662 391 662 387 650.5 c 128,-1,35
 383 639 383 639 380 627.5 c 128,-1,36
 377 616 377 616 375 608 c 0,37,38
 365 562 365 562 354 517 c 128,-1,39
 343 472 343 472 332 426 c 1,40,41
 363 440 363 440 392.5 454.5 c 128,-1,42
 422 469 422 469 442 478 c 0,43,44
 447 480 447 480 450.5 463.5 c 128,-1,45
 454 447 454 447 459 427 c 0,46,47
 459 424 459 424 454.5 420.5 c 128,-1,48
 450 417 450 417 443 413 c 128,-1,49
 436 409 436 409 429 405.5 c 128,-1,50
 422 402 422 402 416 399 c 2,51,-1
 313 349 l 1,52,-1
 280 204 l 2,53,54
 276 186 276 186 271 163.5 c 128,-1,55
 266 141 266 141 263.5 121 c 128,-1,56
 261 101 261 101 261 85.5 c 128,-1,57
 261 70 261 70 266 63 c 0,58,59
 285 44 285 44 315.5 40 c 128,-1,60
 346 36 346 36 376.5 40.5 c 128,-1,61
 407 45 407 45 433 54 c 128,-1,62
 459 63 459 63 469 70 c 0,63,64
 486 79 486 79 508 102 c 128,-1,65
 530 125 530 125 550 150 c 128,-1,66
 570 175 570 175 585 195 c 128,-1,67
 600 215 600 215 604 218 c 0,68,69
 614 225 614 225 624 222.5 c 128,-1,70
 634 220 634 220 636 211 c 1,71,72
 603 170 603 170 580 129.5 c 128,-1,73
 557 89 557 89 541.5 57 c 128,-1,74
 526 25 526 25 516.5 5 c 128,-1,75
 507 -15 507 -15 501 -15 c 0,76,77
 439 -15 439 -15 373.5 -6 c 128,-1,78
 308 3 308 3 246 3 c 0,79,80
 214 3 214 3 190.5 1 c 128,-1,81
 167 -1 167 -1 145 -3 c 128,-1,82
 123 -5 123 -5 99 -7 c 128,-1,83
 75 -9 75 -9 44 -9 c 0,84,85
 38 -9 38 -9 35.5 -4 c 128,-1,86
 33 1 33 1 34 7 c 0,87,88
 37 21 37 21 47.5 25 c 128,-1,89
 58 29 58 29 72.5 30 c 128,-1,90
 87 31 87 31 104 33.5 c 128,-1,91
 121 36 121 36 137 49 c 0,92,93
 151 61 151 61 161.5 90 c 128,-1,94
 172 119 172 119 181 155 c 128,-1,95
 190 191 190 191 197 229.5 c 128,-1,96
 204 268 204 268 210 299 c 1,97,-1
 168 279 l 2,98,99
 164 277 164 277 155.5 273 c 128,-1,100
 147 269 147 269 139 266 c 128,-1,101
 131 263 131 263 125.5 261.5 c 128,-1,102
 120 260 120 260 120 262 c 0,103,104
 117 267 117 267 116 276.5 c 128,-1,105
 115 286 115 286 110 311 c 0,0,1
EndSplineSet
Validated: 33
EndChar

StartChar: lslash
Encoding: 29 29 15
Width: 301
Flags: W
LayerCount: 2
Fore
SplineSet
272 7 m 0,0,1
 269 -4 269 -4 259 -7 c 0,2,3
 258 -8 258 -8 254 -8 c 2,4,-1
 251 -8 l 2,5,6
 229 -8 229 -8 207 -5.5 c 128,-1,7
 185 -3 185 -3 163 -3 c 0,8,9
 135 -3 135 -3 108 -6 c 128,-1,10
 81 -9 81 -9 53 -9 c 0,11,12
 48 -9 48 -9 39 -7.5 c 128,-1,13
 30 -6 30 -6 32 2 c 0,14,15
 35 15 35 15 41 16.5 c 128,-1,16
 47 18 47 18 60 23 c 0,17,18
 77 28 77 28 93.5 34.5 c 128,-1,19
 110 41 110 41 121 59 c 0,20,21
 126 67 126 67 129.5 79.5 c 128,-1,22
 133 92 133 92 135 101 c 2,23,-1
 189 336 l 1,24,-1
 137 310 l 2,25,26
 133 308 133 308 124.5 304.5 c 128,-1,27
 116 301 116 301 108 298 c 128,-1,28
 100 295 100 295 94 293.5 c 128,-1,29
 88 292 88 292 89 294 c 0,30,31
 86 299 86 299 84.5 308.5 c 128,-1,32
 83 318 83 318 78 343 c 0,33,34
 78 346 78 346 84.5 350.5 c 128,-1,35
 91 355 91 355 100.5 360 c 128,-1,36
 110 365 110 365 120 369.5 c 128,-1,37
 130 374 130 374 135 377 c 0,38,39
 143 380 143 380 156.5 387 c 128,-1,40
 170 394 170 394 208 412 c 1,41,-1
 221 472 l 2,42,43
 227 501 227 501 234.5 528.5 c 128,-1,44
 242 556 242 556 248 584 c 2,45,-1
 262 645 l 2,46,47
 265 660 265 660 268 678 c 128,-1,48
 271 696 271 696 263 709 c 0,49,50
 260 713 260 713 254.5 717 c 128,-1,51
 249 721 249 721 242.5 725 c 128,-1,52
 236 729 236 729 231 733 c 128,-1,53
 226 737 226 737 227 742 c 0,54,55
 227 744 227 744 228 746 c 0,56,57
 229 749 229 749 231 750 c 0,58,59
 239 750 239 750 261.5 756.5 c 128,-1,60
 284 763 284 763 307.5 771.5 c 128,-1,61
 331 780 331 780 348.5 788.5 c 128,-1,62
 366 797 366 797 367 801 c 1,63,64
 372 797 372 797 372 797 c 1,65,66
 369 783 369 783 366.5 769.5 c 128,-1,67
 364 756 364 756 359 741 c 2,68,-1
 342 666 l 2,69,70
 334 631 334 631 325.5 597 c 128,-1,71
 317 563 317 563 309 527 c 2,72,-1
 292 453 l 1,73,74
 305 459 305 459 315.5 464 c 128,-1,75
 326 469 326 469 336.5 474.5 c 128,-1,76
 347 480 347 480 360.5 487 c 128,-1,77
 374 494 374 494 392 503 c 0,78,79
 397 505 397 505 400.5 488.5 c 128,-1,80
 404 472 404 472 409 452 c 0,81,82
 409 449 409 449 404.5 445 c 128,-1,83
 400 441 400 441 393.5 437 c 128,-1,84
 387 433 387 433 379.5 430 c 128,-1,85
 372 427 372 427 366 424 c 2,86,-1
 274 378 l 1,87,-1
 206 78 l 2,88,89
 198 44 198 44 212.5 35.5 c 128,-1,90
 227 27 227 27 252 24 c 0,91,92
 253 22 253 22 255.5 22.5 c 128,-1,93
 258 23 258 23 260 23 c 0,94,95
 275 22 275 22 272 7 c 0,0,1
EndSplineSet
Validated: 33
EndChar

StartChar: Zcaron
Encoding: 30 30 16
Width: 718
Flags: W
LayerCount: 2
Fore
SplineSet
701 964 m 0,0,1
 707 964 707 964 706 956 c 0,2,3
 705 953 705 953 695 939 c 128,-1,4
 685 925 685 925 670.5 905.5 c 128,-1,5
 656 886 656 886 639.5 863.5 c 128,-1,6
 623 841 623 841 607 821.5 c 128,-1,7
 591 802 591 802 578.5 787.5 c 128,-1,8
 566 773 566 773 562 770 c 1,9,10
 555 775 555 775 554 778 c 0,11,12
 538 827 538 827 523 870.5 c 128,-1,13
 508 914 508 914 503 952 c 0,14,15
 503 958 503 958 503 961 c 0,16,17
 505 969 505 969 513 968 c 0,18,19
 517 967 517 967 525.5 952 c 128,-1,20
 534 937 534 937 543.5 917.5 c 128,-1,21
 553 898 553 898 562.5 880 c 128,-1,22
 572 862 572 862 582 855 c 1,23,24
 594 862 594 862 611 880 c 128,-1,25
 628 898 628 898 645 916.5 c 128,-1,26
 662 935 662 935 677 949.5 c 128,-1,27
 692 964 692 964 701 964 c 0,0,1
258 750 m 0,28,29
 268 750 268 750 273 749 c 128,-1,30
 278 748 278 748 281.5 746 c 128,-1,31
 285 744 285 744 289.5 742 c 128,-1,32
 294 740 294 740 304 739 c 1,33,34
 311 733 311 733 328 731 c 128,-1,35
 345 729 345 729 360 729 c 2,36,-1
 378 729 l 2,37,38
 421 729 421 729 473.5 730 c 128,-1,39
 526 731 526 731 581 731.5 c 128,-1,40
 636 732 636 732 689 733 c 128,-1,41
 742 734 742 734 785 734 c 0,42,43
 794 734 794 734 809 736.5 c 128,-1,44
 824 739 824 739 836.5 740 c 128,-1,45
 849 741 849 741 856 737 c 128,-1,46
 863 733 863 733 857 721 c 0,47,48
 857 720 857 720 836 699 c 128,-1,49
 815 678 815 678 780 644 c 128,-1,50
 745 610 745 610 700 566.5 c 128,-1,51
 655 523 655 523 608 477 c 128,-1,52
 561 431 561 431 514 385.5 c 128,-1,53
 467 340 467 340 428 301.5 c 128,-1,54
 389 263 389 263 361.5 236 c 128,-1,55
 334 209 334 209 325 200 c 0,56,57
 315 189 315 189 294 168.5 c 128,-1,58
 273 148 273 148 251.5 126 c 128,-1,59
 230 104 230 104 213 84.5 c 128,-1,60
 196 65 196 65 190 52 c 0,61,62
 188 44 188 44 194 40 c 128,-1,63
 200 36 200 36 208 35 c 128,-1,64
 216 34 216 34 226 34.5 c 128,-1,65
 236 35 236 35 243 35 c 0,66,67
 286 35 286 35 336 35.5 c 128,-1,68
 386 36 386 36 429 36 c 0,69,70
 463 36 463 36 502 37.5 c 128,-1,71
 541 39 541 39 577 49 c 0,72,73
 604 59 604 59 620.5 77 c 128,-1,74
 637 95 637 95 655 119 c 0,75,76
 663 130 663 130 670.5 144 c 128,-1,77
 678 158 678 158 685.5 168 c 128,-1,78
 693 178 693 178 701 180.5 c 128,-1,79
 709 183 709 183 718 173 c 1,80,81
 717 156 717 156 713 140 c 0,82,83
 709 123 709 123 700.5 105 c 128,-1,84
 692 87 692 87 685 70 c 0,85,86
 680 58 680 58 675.5 44 c 128,-1,87
 671 30 671 30 664.5 18 c 128,-1,88
 658 6 658 6 648.5 -1 c 128,-1,89
 639 -8 639 -8 625 -8 c 0,90,91
 589 -8 589 -8 553 -6 c 128,-1,92
 517 -4 517 -4 480 -4 c 2,93,-1
 397 -4 l 2,94,95
 310 -4 310 -4 216 -7.5 c 128,-1,96
 122 -11 122 -11 35 -11 c 0,97,98
 20 -11 20 -11 24 4 c 0,99,100
 24 6 24 6 44.5 27 c 128,-1,101
 65 48 65 48 98 82.5 c 128,-1,102
 131 117 131 117 174.5 160.5 c 128,-1,103
 218 204 218 204 263.5 250 c 128,-1,104
 309 296 309 296 354.5 341.5 c 128,-1,105
 400 387 400 387 437.5 424.5 c 128,-1,106
 475 462 475 462 502 489 c 128,-1,107
 529 516 529 516 538 525 c 256,108,109
 547 534 547 534 570 556 c 128,-1,110
 593 578 593 578 617.5 601 c 128,-1,111
 642 624 642 624 662.5 644.5 c 128,-1,112
 683 665 683 665 688 672 c 0,113,114
 690 674 690 674 694 679.5 c 128,-1,115
 698 685 698 685 700 688 c 0,116,117
 702 692 702 692 695 693.5 c 128,-1,118
 688 695 688 695 678 695 c 0,119,120
 669 695 669 695 659 694.5 c 128,-1,121
 649 694 649 694 646 694 c 2,122,-1
 580 694 l 2,123,124
 552 694 552 694 522.5 693.5 c 128,-1,125
 493 693 493 693 463.5 692.5 c 128,-1,126
 434 692 434 692 407 691.5 c 128,-1,127
 380 691 380 691 358 690 c 0,128,129
 327 688 327 688 300.5 680 c 128,-1,130
 274 672 274 672 247 646 c 0,131,132
 238 638 238 638 228 625.5 c 128,-1,133
 218 613 218 613 209.5 601 c 128,-1,134
 201 589 201 589 192 580 c 128,-1,135
 183 571 183 571 177 571 c 0,136,137
 172 571 172 571 164 574 c 128,-1,138
 156 577 156 577 160 585 c 0,139,140
 172 612 172 612 186 638.5 c 128,-1,141
 200 665 200 665 213 691 c 0,142,143
 226 714 226 714 235.5 732 c 128,-1,144
 245 750 245 750 258 750 c 0,28,29
EndSplineSet
Validated: 1
EndChar

StartChar: zcaron
Encoding: 31 31 17
Width: 441
Flags: W
LayerCount: 2
Fore
SplineSet
480 706 m 0,0,1
 486 706 486 706 484 698 c 0,2,3
 483 695 483 695 474 681 c 128,-1,4
 465 667 465 667 450.5 647.5 c 128,-1,5
 436 628 436 628 418.5 605.5 c 128,-1,6
 401 583 401 583 386 563.5 c 128,-1,7
 371 544 371 544 358.5 529.5 c 128,-1,8
 346 515 346 515 341 512 c 1,9,10
 334 517 334 517 334 520 c 0,11,12
 318 569 318 569 302.5 612.5 c 128,-1,13
 287 656 287 656 283 694 c 0,14,15
 283 700 283 700 283 702 c 0,16,17
 285 710 285 710 293 710 c 0,18,19
 297 709 297 709 305 694 c 128,-1,20
 313 679 313 679 322.5 659.5 c 128,-1,21
 332 640 332 640 342 622 c 128,-1,22
 352 604 352 604 361 597 c 1,23,24
 373 604 373 604 390.5 622 c 128,-1,25
 408 640 408 640 424 658.5 c 128,-1,26
 440 677 440 677 455.5 691.5 c 128,-1,27
 471 706 471 706 480 706 c 0,0,1
421 88 m 2,28,29
 418 76 418 76 414.5 61.5 c 128,-1,30
 411 47 411 47 406 34.5 c 128,-1,31
 401 22 401 22 397 12 c 128,-1,32
 393 2 393 2 390 0 c 0,33,34
 385 -7 385 -7 379.5 -3.5 c 128,-1,35
 374 0 374 0 367 0 c 0,36,37
 295 0 295 0 228.5 -1 c 128,-1,38
 162 -2 162 -2 90 -2 c 2,39,-1
 77 -2 l 2,40,41
 70 -2 70 -2 61 -1.5 c 128,-1,42
 52 -1 52 -1 45 0 c 128,-1,43
 38 1 38 1 33.5 3.5 c 128,-1,44
 29 6 29 6 29 9 c 0,45,46
 30 14 30 14 33 17 c 128,-1,47
 36 20 36 20 39 25 c 0,48,49
 49 37 49 37 61 48 c 128,-1,50
 73 59 73 59 84 71 c 0,51,52
 140 129 140 129 193.5 188 c 128,-1,53
 247 247 247 247 301 306 c 0,54,55
 309 315 309 315 324 331 c 128,-1,56
 339 347 339 347 354.5 364 c 128,-1,57
 370 381 370 381 383 396.5 c 128,-1,58
 396 412 396 412 401 420 c 0,59,60
 403 424 403 424 395.5 425.5 c 128,-1,61
 388 427 388 427 377.5 427.5 c 128,-1,62
 367 428 367 428 356 427.5 c 128,-1,63
 345 427 345 427 340 427 c 2,64,-1
 310 427 l 2,65,66
 285 427 285 427 258 426.5 c 128,-1,67
 231 426 231 426 211 421 c 0,68,69
 194 418 194 418 183 408.5 c 128,-1,70
 172 399 172 399 162.5 389 c 128,-1,71
 153 379 153 379 144.5 371.5 c 128,-1,72
 136 364 136 364 124 364 c 0,73,74
 119 364 119 364 115 365.5 c 128,-1,75
 111 367 111 367 115 374 c 0,76,77
 120 384 120 384 122 388 c 128,-1,78
 124 392 124 392 126 395 c 128,-1,79
 128 398 128 398 130.5 402.5 c 128,-1,80
 133 407 133 407 138 417 c 0,81,82
 142 425 142 425 147 434 c 128,-1,83
 152 443 152 443 156 452 c 0,84,85
 159 458 159 458 164.5 463.5 c 128,-1,86
 170 469 170 469 177 469 c 0,87,88
 190 469 190 469 199.5 464.5 c 128,-1,89
 209 460 209 460 229 460 c 2,90,-1
 378 460 l 2,91,92
 395 460 395 460 413 461 c 128,-1,93
 431 462 431 462 447 462 c 2,94,-1
 462 462 l 2,95,96
 475 462 475 462 491 460 c 128,-1,97
 507 458 507 458 511 453 c 0,98,99
 514 446 514 446 508 437 c 0,100,101
 447 369 447 369 387.5 304.5 c 128,-1,102
 328 240 328 240 266 172 c 0,103,104
 239 142 239 142 206 108 c 128,-1,105
 173 74 173 74 153 41 c 0,106,107
 150 36 150 36 158 36 c 2,108,-1
 212 36 l 2,109,110
 232 36 232 36 255.5 36.5 c 128,-1,111
 279 37 279 37 301 39.5 c 128,-1,112
 323 42 323 42 339.5 45.5 c 128,-1,113
 356 49 356 49 365 55 c 256,114,115
 373 61 373 61 379 72 c 128,-1,116
 385 83 385 83 390 93.5 c 128,-1,117
 395 104 395 104 399.5 114.5 c 128,-1,118
 404 125 404 125 411 130 c 1,119,-1
 415 130 l 2,120,121
 425 131 425 131 426.5 126 c 128,-1,122
 428 121 428 121 426 112 c 2,123,-1
 421 88 l 2,28,29
EndSplineSet
Validated: 1
EndChar

StartChar: exclam
Encoding: 33 33 18
Width: 227
Flags: W
LayerCount: 2
Fore
SplineSet
180 46 m 0,0,1
 174 17 174 17 151.5 1 c 128,-1,2
 129 -15 129 -15 103 -15 c 0,3,4
 80 -15 80 -15 69.5 4.5 c 128,-1,5
 59 24 59 24 65 47 c 0,6,7
 71 74 71 74 92 93 c 128,-1,8
 113 112 113 112 138 112 c 0,9,10
 161 112 161 112 173.5 91.5 c 128,-1,11
 186 71 186 71 180 46 c 0,0,1
223 717 m 0,12,13
 226 732 226 732 230 737 c 128,-1,14
 234 742 234 742 241.5 742.5 c 128,-1,15
 249 743 249 743 259.5 741 c 128,-1,16
 270 739 270 739 288 739 c 0,17,18
 302 739 302 739 314 740.5 c 128,-1,19
 326 742 326 742 334 742 c 0,20,21
 344 742 344 742 348 737.5 c 128,-1,22
 352 733 352 733 346 717 c 0,23,24
 334 679 334 679 312 616 c 128,-1,25
 290 553 290 553 266 482.5 c 128,-1,26
 242 412 242 412 216.5 341.5 c 128,-1,27
 191 271 191 271 172 220 c 0,28,29
 170 215 170 215 163.5 216 c 128,-1,30
 157 217 157 217 154 220 c 0,31,32
 162 275 162 275 170 339 c 128,-1,33
 178 403 178 403 186 469 c 128,-1,34
 194 535 194 535 203.5 599 c 128,-1,35
 213 663 213 663 223 717 c 0,12,13
EndSplineSet
Validated: 33
EndChar

StartChar: quotedbl
Encoding: 34 34 19
Width: 280
Flags: W
LayerCount: 2
Fore
SplineSet
377 745 m 2,0,1
 383 745 383 745 389.5 744.5 c 128,-1,2
 396 744 396 744 408 744 c 0,3,4
 416 747 416 747 417.5 739.5 c 128,-1,5
 419 732 419 732 416 727 c 0,6,7
 412 716 412 716 401.5 686.5 c 128,-1,8
 391 657 391 657 380.5 625 c 128,-1,9
 370 593 370 593 359.5 566 c 128,-1,10
 349 539 349 539 345 532 c 0,11,12
 342 527 342 527 337 525 c 128,-1,13
 332 523 332 523 327 523.5 c 128,-1,14
 322 524 322 524 317.5 527.5 c 128,-1,15
 313 531 313 531 313 538 c 0,16,17
 314 551 314 551 316.5 577.5 c 128,-1,18
 319 604 319 604 323 633 c 128,-1,19
 327 662 327 662 330.5 688 c 128,-1,20
 334 714 334 714 337 728 c 0,21,22
 338 737 338 737 341.5 741 c 128,-1,23
 345 745 345 745 355 745 c 2,24,-1
 377 745 l 2,0,1
243 745 m 2,25,26
 249 745 249 745 255 744.5 c 128,-1,27
 261 744 261 744 273 744 c 0,28,29
 281 747 281 747 283 739.5 c 128,-1,30
 285 732 285 732 282 727 c 0,31,32
 278 716 278 716 267.5 686.5 c 128,-1,33
 257 657 257 657 246.5 625 c 128,-1,34
 236 593 236 593 225.5 566 c 128,-1,35
 215 539 215 539 211 532 c 0,36,37
 208 527 208 527 203 525 c 128,-1,38
 198 523 198 523 192.5 523.5 c 128,-1,39
 187 524 187 524 183 527.5 c 128,-1,40
 179 531 179 531 179 538 c 0,41,42
 180 551 180 551 182.5 577.5 c 128,-1,43
 185 604 185 604 188 633 c 128,-1,44
 191 662 191 662 195.5 688 c 128,-1,45
 200 714 200 714 203 728 c 0,46,47
 204 737 204 737 207 741 c 128,-1,48
 210 745 210 745 221 745 c 2,49,-1
 243 745 l 2,25,26
EndSplineSet
Validated: 1
EndChar

StartChar: numbersign
Encoding: 35 35 20
Width: 485
Flags: W
LayerCount: 2
Fore
SplineSet
378 336 m 1,0,1
 358 336 358 336 334.5 335.5 c 128,-1,2
 311 335 311 335 286 335 c 1,3,4
 272 303 272 303 262.5 280 c 128,-1,5
 253 257 253 257 244 238 c 1,6,-1
 336 238 l 1,7,8
 346 263 346 263 357 286.5 c 128,-1,9
 368 310 368 310 378 336 c 1,0,1
542 369 m 1,10,11
 540 361 540 361 537.5 351 c 128,-1,12
 535 341 535 341 528 335 c 1,13,14
 519 336 519 336 508 336 c 0,15,16
 499 336 499 336 486 336 c 2,17,-1
 428 336 l 1,18,19
 414 303 414 303 404 280 c 128,-1,20
 394 257 394 257 385 238 c 1,21,-1
 468 238 l 1,22,23
 476 220 476 220 470.5 204.5 c 128,-1,24
 465 189 465 189 454 172 c 1,25,26
 432 171 432 171 407.5 170.5 c 128,-1,27
 383 170 383 170 357 170 c 1,28,29
 345 140 345 140 330.5 103 c 128,-1,30
 316 66 316 66 292 2 c 1,31,32
 287 2 287 2 275 1 c 128,-1,33
 263 0 263 0 240 2 c 1,34,35
 260 54 260 54 276.5 94.5 c 128,-1,36
 293 135 293 135 308 170 c 1,37,-1
 216 170 l 1,38,39
 204 140 204 140 189 103 c 128,-1,40
 174 66 174 66 151 2 c 1,41,42
 146 2 146 2 133.5 1 c 128,-1,43
 121 0 121 0 97 2 c 1,44,45
 117 54 117 54 134.5 94.5 c 128,-1,46
 152 135 152 135 166 171 c 1,47,48
 140 171 140 171 118.5 171.5 c 128,-1,49
 97 172 97 172 80 173 c 1,50,51
 82 182 82 182 81.5 189.5 c 128,-1,52
 81 197 81 197 83 206 c 0,53,54
 84 212 84 212 88.5 221 c 128,-1,55
 93 230 93 230 95 237 c 1,56,57
 112 237 112 237 138 237.5 c 128,-1,58
 164 238 164 238 195 238 c 1,59,60
 205 263 205 263 215 286 c 128,-1,61
 225 309 225 309 236 335 c 1,62,-1
 161 335 l 1,63,64
 155 352 155 352 156.5 365 c 128,-1,65
 158 378 158 378 175 400 c 1,66,67
 197 400 197 400 218.5 399.5 c 128,-1,68
 240 399 240 399 262 399 c 1,69,70
 275 433 275 433 290.5 473.5 c 128,-1,71
 306 514 306 514 326 564 c 1,72,73
 336 567 336 567 353 567 c 0,74,75
 360 567 360 567 367.5 566.5 c 128,-1,76
 375 566 375 566 379 565 c 1,77,78
 365 522 365 522 348.5 481 c 128,-1,79
 332 440 332 440 313 399 c 1,80,81
 338 399 338 399 360 398.5 c 128,-1,82
 382 398 382 398 403 398 c 1,83,84
 416 433 416 433 431.5 472.5 c 128,-1,85
 447 512 447 512 468 564 c 1,86,87
 478 567 478 567 495 567 c 0,88,89
 502 567 502 567 509 566.5 c 128,-1,90
 516 566 516 566 521 565 c 1,91,92
 507 522 507 522 490 481.5 c 128,-1,93
 473 441 473 441 455 398 c 1,94,-1
 547 398 l 1,95,96
 547 388 547 388 545 383 c 2,97,-1
 542 369 l 1,10,11
EndSplineSet
Validated: 33
EndChar

StartChar: dollar
Encoding: 36 36 21
Width: 493
Flags: W
LayerCount: 2
Fore
SplineSet
260 601 m 0,0,1
 249 553 249 553 271.5 519 c 128,-1,2
 294 485 294 485 331 459 c 1,3,4
 348 536 348 536 363.5 600.5 c 128,-1,5
 379 665 379 665 392 720 c 1,6,7
 347 714 347 714 309.5 683.5 c 128,-1,8
 272 653 272 653 260 601 c 0,0,1
406 156 m 0,9,10
 418 211 418 211 395 246.5 c 128,-1,11
 372 282 372 282 333 310 c 1,12,-1
 265 17 l 1,13,14
 315 25 315 25 354.5 61.5 c 128,-1,15
 394 98 394 98 406 156 c 0,9,10
431 819 m 1,16,17
 436 819 436 819 441.5 818.5 c 128,-1,18
 447 818 447 818 450 814 c 1,19,20
 448 808 448 808 445 801 c 0,21,22
 444 795 444 795 442 787 c 256,23,24
 440 780 440 780 439 772 c 0,25,26
 437 765 437 765 435 757 c 1,27,28
 453 755 453 755 473.5 744.5 c 128,-1,29
 494 734 494 734 507 724 c 0,30,31
 516 718 516 718 522.5 723.5 c 128,-1,32
 529 729 529 729 536.5 739.5 c 128,-1,33
 544 750 544 750 553 759 c 128,-1,34
 562 768 562 768 577 768 c 0,35,36
 584 768 584 768 583 758 c 128,-1,37
 582 748 582 748 579 733 c 256,38,39
 576 719 576 719 570.5 703.5 c 128,-1,40
 565 688 565 688 563 677 c 0,41,42
 552 624 552 624 536 570 c 0,43,44
 532 561 532 561 528 558 c 128,-1,45
 524 555 524 555 520 555 c 256,46,47
 516 555 516 555 513 556 c 128,-1,48
 510 557 510 557 507 557 c 0,49,50
 501 557 501 557 499.5 566 c 128,-1,51
 498 575 498 575 498 588 c 128,-1,52
 498 601 498 601 498.5 615 c 128,-1,53
 499 629 499 629 496 639 c 0,54,55
 491 673 491 673 471.5 693.5 c 128,-1,56
 452 714 452 714 426 719 c 1,57,-1
 361 438 l 1,58,59
 386 423 386 423 410 408 c 128,-1,60
 434 393 434 393 454 378 c 0,61,62
 488 349 488 349 499.5 303 c 128,-1,63
 511 257 511 257 500 205 c 0,64,65
 476 103 476 103 410 46 c 128,-1,66
 344 -11 344 -11 256 -22 c 1,67,68
 253 -32 253 -32 251 -40 c 0,69,70
 249 -49 249 -49 247 -57 c 256,71,72
 245 -65 245 -65 244 -73 c 0,73,74
 242 -81 242 -81 239 -88 c 1,75,-1
 220 -88 l 2,76,77
 209 -88 209 -88 206 -87 c 0,78,79
 206 -81 206 -81 208 -74 c 256,80,81
 210 -67 210 -67 211 -58 c 2,82,-1
 219 -25 l 1,83,84
 201 -25 201 -25 186.5 -19.5 c 128,-1,85
 172 -14 172 -14 159.5 -8.5 c 128,-1,86
 147 -3 147 -3 136.5 2 c 128,-1,87
 126 7 126 7 117 7 c 0,88,89
 106 7 106 7 99 0.5 c 128,-1,90
 92 -6 92 -6 85.5 -15 c 128,-1,91
 79 -24 79 -24 70.5 -30.5 c 128,-1,92
 62 -37 62 -37 48 -37 c 0,93,94
 41 -37 41 -37 42 -24 c 128,-1,95
 43 -11 43 -11 47 6 c 256,96,97
 51 23 51 23 56.5 41.5 c 128,-1,98
 62 60 62 60 66 72 c 0,99,100
 72 99 72 99 77 120 c 128,-1,101
 82 141 82 141 90 168 c 0,102,103
 93 177 93 177 97 180 c 128,-1,104
 101 183 101 183 105 183 c 256,105,106
 109 183 109 183 112 182 c 128,-1,107
 115 181 115 181 118 181 c 0,108,109
 125 181 125 181 126.5 172.5 c 128,-1,110
 128 164 128 164 128 151 c 128,-1,111
 128 138 128 138 128 124 c 128,-1,112
 128 110 128 110 130 99 c 0,113,114
 136 61 136 61 164.5 39.5 c 128,-1,115
 193 18 193 18 228 15 c 1,116,-1
 301 332 l 1,117,118
 272 351 272 351 244.5 371 c 128,-1,119
 217 391 217 391 197 416 c 128,-1,120
 177 441 177 441 168.5 474 c 128,-1,121
 160 507 160 507 170 552 c 256,122,123
 180 597 180 597 202.5 633.5 c 128,-1,124
 225 670 225 670 256 696 c 128,-1,125
 287 722 287 722 323.5 737.5 c 128,-1,126
 360 753 360 753 400 757 c 1,127,-1
 415 817 l 1,128,129
 421 819 421 819 423 819 c 2,130,-1
 431 819 l 1,16,17
EndSplineSet
Validated: 33
EndChar

StartChar: percent
Encoding: 37 37 22
Width: 740
Flags: W
LayerCount: 2
Fore
SplineSet
663 148 m 0,0,1
 674 198 674 198 656 228 c 128,-1,2
 638 258 638 258 601 258 c 0,3,4
 571 258 571 258 540 230 c 128,-1,5
 509 202 509 202 497 156 c 0,6,7
 483 104 483 104 501.5 77.5 c 128,-1,8
 520 51 520 51 556 51 c 0,9,10
 588 51 588 51 619.5 75.5 c 128,-1,11
 651 100 651 100 663 148 c 0,0,1
409 563 m 0,12,13
 420 613 420 613 402 643 c 128,-1,14
 384 673 384 673 348 673 c 0,15,16
 318 673 318 673 286.5 644.5 c 128,-1,17
 255 616 255 616 243 570 c 0,18,19
 229 518 229 518 247.5 492 c 128,-1,20
 266 466 266 466 302 466 c 0,21,22
 334 466 334 466 365.5 490.5 c 128,-1,23
 397 515 397 515 409 563 c 0,12,13
775 662 m 1,24,25
 738 619 738 619 700 578.5 c 128,-1,26
 662 538 662 538 622 497 c 0,27,28
 504 374 504 374 387.5 254 c 128,-1,29
 271 134 271 134 158 7 c 1,30,31
 154 9 154 9 143.5 18.5 c 128,-1,32
 133 28 133 28 113 36 c 1,33,34
 267 202 267 202 422 361.5 c 128,-1,35
 577 521 577 521 730 690 c 1,36,37
 740 690 740 690 753 679 c 128,-1,38
 766 668 766 668 775 662 c 1,24,25
731 159 m 0,39,40
 723 124 723 124 705 93 c 128,-1,41
 687 62 687 62 661.5 39 c 128,-1,42
 636 16 636 16 605 2.5 c 128,-1,43
 574 -11 574 -11 542 -11 c 0,44,45
 508 -11 508 -11 482 0 c 128,-1,46
 456 11 456 11 441 32.5 c 128,-1,47
 426 54 426 54 422 84 c 128,-1,48
 418 114 418 114 426 151 c 0,49,50
 434 186 434 186 452 216.5 c 128,-1,51
 470 247 470 247 495.5 270 c 128,-1,52
 521 293 521 293 552 306 c 128,-1,53
 583 319 583 319 615 319 c 0,54,55
 646 319 646 319 670.5 307 c 128,-1,56
 695 295 695 295 711.5 273.5 c 128,-1,57
 728 252 728 252 733.5 222.5 c 128,-1,58
 739 193 739 193 731 159 c 0,39,40
477 573 m 0,59,60
 469 538 469 538 451 507.5 c 128,-1,61
 433 477 433 477 407.5 454 c 128,-1,62
 382 431 382 431 351.5 417 c 128,-1,63
 321 403 321 403 288 403 c 0,64,65
 254 403 254 403 228 414.5 c 128,-1,66
 202 426 202 426 187 447.5 c 128,-1,67
 172 469 172 469 168 498.5 c 128,-1,68
 164 528 164 528 172 565 c 0,69,70
 180 600 180 600 198 631 c 128,-1,71
 216 662 216 662 241.5 685 c 128,-1,72
 267 708 267 708 298 721 c 128,-1,73
 329 734 329 734 361 734 c 0,74,75
 392 734 392 734 417 722 c 128,-1,76
 442 710 442 710 458 688.5 c 128,-1,77
 474 667 474 667 479.5 637 c 128,-1,78
 485 607 485 607 477 573 c 0,59,60
EndSplineSet
Validated: 33
EndChar

StartChar: ampersand
Encoding: 38 38 23
Width: 751
Flags: W
LayerCount: 2
Fore
SplineSet
498 548 m 0,0,1
 507 587 507 587 493 613 c 128,-1,2
 479 639 479 639 441 639 c 0,3,4
 407 639 407 639 381 615.5 c 128,-1,5
 355 592 355 592 347 556 c 0,6,7
 342 534 342 534 346 515 c 0,8,9
 347 505 347 505 353 492 c 128,-1,10
 359 479 359 479 368 467 c 128,-1,11
 377 455 377 455 386.5 444.5 c 128,-1,12
 396 434 396 434 403 429 c 1,13,14
 408 431 408 431 412.5 433.5 c 128,-1,15
 417 436 417 436 421 438 c 0,16,17
 450 456 450 456 470.5 485.5 c 128,-1,18
 491 515 491 515 498 548 c 0,0,1
334 365 m 1,19,20
 281 345 281 345 239 300.5 c 128,-1,21
 197 256 197 256 183 198 c 0,22,23
 176 165 176 165 181 137.5 c 128,-1,24
 186 110 186 110 201 89.5 c 128,-1,25
 216 69 216 69 239.5 57 c 128,-1,26
 263 45 263 45 294 45 c 0,27,28
 340 45 340 45 377 65.5 c 128,-1,29
 414 86 414 86 453 120 c 0,30,31
 461 127 461 127 468 135.5 c 128,-1,32
 475 144 475 144 482 153 c 1,33,34
 480 168 480 168 472.5 180.5 c 128,-1,35
 465 193 465 193 458 207 c 0,36,37
 434 253 434 253 403 292.5 c 128,-1,38
 372 332 372 332 334 365 c 1,19,20
441 667 m 0,39,40
 471 667 471 667 496 660.5 c 128,-1,41
 521 654 521 654 538 640.5 c 128,-1,42
 555 627 555 627 561.5 604.5 c 128,-1,43
 568 582 568 582 561 549 c 0,44,45
 555 524 555 524 540 503.5 c 128,-1,46
 525 483 525 483 505 466.5 c 128,-1,47
 485 450 485 450 462.5 436.5 c 128,-1,48
 440 423 440 423 420 414 c 1,49,50
 427 406 427 406 434 399 c 128,-1,51
 441 392 441 392 450 384 c 0,52,53
 464 369 464 369 478 349.5 c 128,-1,54
 492 330 492 330 504 309 c 128,-1,55
 516 288 516 288 529 267 c 128,-1,56
 542 246 542 246 552 227 c 1,57,58
 556 229 556 229 559.5 233 c 128,-1,59
 563 237 563 237 565 240 c 0,60,61
 577 253 577 253 592 267.5 c 128,-1,62
 607 282 607 282 619.5 296 c 128,-1,63
 632 310 632 310 641.5 325.5 c 128,-1,64
 651 341 651 341 655 357 c 0,65,66
 659 376 659 376 656 383 c 128,-1,67
 653 390 653 390 648.5 392 c 128,-1,68
 644 394 644 394 640 396.5 c 128,-1,69
 636 399 636 399 639 412 c 0,70,71
 640 416 640 416 647.5 418 c 128,-1,72
 655 420 655 420 663 420 c 2,73,-1
 724 420 l 2,74,75
 744 420 744 420 766 422 c 128,-1,76
 788 424 788 424 810 424 c 0,77,78
 816 424 816 424 819.5 420.5 c 128,-1,79
 823 417 823 417 822 410 c 256,80,81
 820 403 820 403 814.5 399 c 128,-1,82
 809 395 809 395 802.5 393 c 128,-1,83
 796 391 796 391 788 390.5 c 128,-1,84
 780 390 780 390 774 390 c 0,85,86
 761 390 761 390 743 377 c 128,-1,87
 725 364 725 364 706.5 346.5 c 128,-1,88
 688 329 688 329 673 312 c 128,-1,89
 658 295 658 295 650 287 c 0,90,91
 628 264 628 264 606 239.5 c 128,-1,92
 584 215 584 215 562 194 c 1,93,94
 573 166 573 166 587 140 c 128,-1,95
 601 114 601 114 618 93.5 c 128,-1,96
 635 73 635 73 656 59 c 128,-1,97
 677 45 677 45 705 42 c 0,98,99
 711 39 711 39 718.5 36.5 c 128,-1,100
 726 34 726 34 730 30 c 128,-1,101
 734 26 734 26 733 19 c 128,-1,102
 732 12 732 12 723 1 c 0,103,104
 717 -1 717 -1 707 -2.5 c 128,-1,105
 697 -4 697 -4 687.5 -4.5 c 128,-1,106
 678 -5 678 -5 668 -5.5 c 128,-1,107
 658 -6 658 -6 651 -6 c 0,108,109
 605 -6 605 -6 579.5 9 c 128,-1,110
 554 24 554 24 538.5 44.5 c 128,-1,111
 523 65 523 65 513.5 87 c 128,-1,112
 504 109 504 109 492 123 c 0,113,114
 491 122 491 122 490 121 c 128,-1,115
 489 120 489 120 488 119 c 0,116,117
 474 102 474 102 453 82.5 c 128,-1,118
 432 63 432 63 409 45.5 c 128,-1,119
 386 28 386 28 362.5 13 c 128,-1,120
 339 -2 339 -2 321 -9 c 0,121,122
 280 -25 280 -25 232 -26 c 0,123,124
 201 -26 201 -26 178 -18 c 0,125,126
 151 -11 151 -11 131.5 5.5 c 128,-1,127
 112 22 112 22 101 45 c 128,-1,128
 90 68 90 68 87.5 96.5 c 128,-1,129
 85 125 85 125 92 157 c 2,130,-1
 96 176 l 2,131,132
 108 229 108 229 146.5 270.5 c 128,-1,133
 185 312 185 312 231 340 c 0,134,135
 249 351 249 351 273.5 362 c 128,-1,136
 298 373 298 373 314 387 c 0,137,138
 313 390 313 390 306 397 c 0,139,140
 289 419 289 419 277 452 c 128,-1,141
 265 485 265 485 273 519 c 0,142,143
 280 550 280 550 296.5 576.5 c 128,-1,144
 313 603 313 603 335 623 c 128,-1,145
 357 643 357 643 384.5 655 c 128,-1,146
 412 667 412 667 441 667 c 0,39,40
EndSplineSet
Validated: 33
EndChar

StartChar: quotesingle
Encoding: 39 39 24
Width: 146
Flags: W
LayerCount: 2
Fore
SplineSet
243 745 m 2,0,1
 249 745 249 745 255 744.5 c 128,-1,2
 261 744 261 744 273 744 c 0,3,4
 281 747 281 747 283 739.5 c 128,-1,5
 285 732 285 732 282 727 c 0,6,7
 278 716 278 716 267.5 686.5 c 128,-1,8
 257 657 257 657 246.5 625 c 128,-1,9
 236 593 236 593 225.5 566 c 128,-1,10
 215 539 215 539 211 532 c 0,11,12
 208 527 208 527 203 525 c 128,-1,13
 198 523 198 523 192.5 523.5 c 128,-1,14
 187 524 187 524 183 527.5 c 128,-1,15
 179 531 179 531 179 538 c 0,16,17
 180 551 180 551 182.5 577.5 c 128,-1,18
 185 604 185 604 188 633 c 128,-1,19
 191 662 191 662 195.5 688 c 128,-1,20
 200 714 200 714 203 728 c 0,21,22
 204 737 204 737 207 741 c 128,-1,23
 210 745 210 745 221 745 c 2,24,-1
 243 745 l 2,0,1
EndSplineSet
Validated: 1
EndChar

StartChar: parenleft
Encoding: 40 40 25
Width: 333
Flags: W
LayerCount: 2
Fore
SplineSet
470 734 m 0,0,1
 468 728 468 728 461 722 c 0,2,3
 418 685 418 685 387 650 c 0,4,5
 313 566 313 566 262.5 469 c 128,-1,6
 212 372 212 372 188 269 c 0,7,8
 180 232 180 232 174.5 192 c 128,-1,9
 169 152 169 152 168 111.5 c 128,-1,10
 167 71 167 71 170.5 33 c 128,-1,11
 174 -5 174 -5 183 -37 c 0,12,13
 194 -78 194 -78 206.5 -120 c 128,-1,14
 219 -162 219 -162 247 -193 c 0,15,16
 251 -202 251 -202 246 -212.5 c 128,-1,17
 241 -223 241 -223 230 -223 c 0,18,19
 222 -223 222 -223 211.5 -211 c 128,-1,20
 201 -199 201 -199 197 -193 c 0,21,22
 132 -98 132 -98 107.5 13 c 128,-1,23
 83 124 83 124 114 259 c 0,24,25
 127 317 127 317 152 376.5 c 128,-1,26
 177 436 177 436 212 493 c 128,-1,27
 247 550 247 550 289.5 601 c 128,-1,28
 332 652 332 652 379 694 c 0,29,30
 384 699 384 699 395 708.5 c 128,-1,31
 406 718 406 718 418 727 c 128,-1,32
 430 736 430 736 441 743.5 c 128,-1,33
 452 751 452 751 458 752 c 0,34,35
 467 745 467 745 470 734 c 0,0,1
EndSplineSet
Validated: 33
EndChar

StartChar: parenright
Encoding: 41 41 26
Width: 333
Flags: W
LayerCount: 2
Fore
SplineSet
338 269 m 0,0,1
 318 180 318 180 272 93.5 c 128,-1,2
 226 7 226 7 167 -67 c 0,3,4
 151 -87 151 -87 131 -109 c 128,-1,5
 111 -131 111 -131 88.5 -152.5 c 128,-1,6
 66 -174 66 -174 42.5 -192.5 c 128,-1,7
 19 -211 19 -211 -3 -223 c 1,8,9
 -19 -218 -19 -218 -18 -202 c 1,10,11
 23 -162 23 -162 62 -120 c 128,-1,12
 101 -78 101 -78 134 -31 c 0,13,14
 182 37 182 37 214 111 c 128,-1,15
 246 185 246 185 264 262 c 0,16,17
 275 311 275 311 281 363 c 128,-1,18
 287 415 287 415 285.5 465 c 128,-1,19
 284 515 284 515 275 562 c 128,-1,20
 266 609 266 609 248 649 c 256,21,22
 231 689 231 689 219.5 705 c 128,-1,23
 208 721 208 721 203 732 c 0,24,25
 202 736 202 736 210 745 c 128,-1,26
 218 754 218 754 223 754 c 0,27,28
 226 754 226 754 231 750 c 128,-1,29
 236 746 236 746 240.5 741 c 128,-1,30
 245 736 245 736 249 731.5 c 128,-1,31
 253 727 253 727 255 724 c 0,32,33
 321 631 321 631 345 517 c 128,-1,34
 369 403 369 403 338 269 c 0,0,1
EndSplineSet
Validated: 33
EndChar

StartChar: asterisk
Encoding: 42 42 27
Width: 493
Flags: W
LayerCount: 2
Fore
SplineSet
600 581 m 0,0,1
 602 571 602 571 598 567 c 128,-1,2
 594 563 594 563 586 560 c 0,3,4
 573 555 573 555 547 548 c 128,-1,5
 521 541 521 541 493.5 533 c 128,-1,6
 466 525 466 525 440.5 518.5 c 128,-1,7
 415 512 415 512 401 509 c 0,8,9
 389 505 389 505 388 513.5 c 128,-1,10
 387 522 387 522 394 529 c 0,11,12
 399 534 399 534 425 548 c 128,-1,13
 451 562 451 562 481 578 c 128,-1,14
 511 594 511 594 538.5 608.5 c 128,-1,15
 566 623 566 623 575 629 c 0,16,17
 580 631 580 631 587 630.5 c 128,-1,18
 594 630 594 630 592 621 c 0,19,20
 594 611 594 611 595 605.5 c 128,-1,21
 596 600 596 600 597 597 c 128,-1,22
 598 594 598 594 598.5 591 c 128,-1,23
 599 588 599 588 600 581 c 0,0,1
415 748 m 2,24,25
 418 748 418 748 422.5 747 c 128,-1,26
 427 746 427 746 437 746 c 0,27,28
 446 748 446 748 447.5 741 c 128,-1,29
 449 734 449 734 445 729 c 0,30,31
 441 718 441 718 432 688.5 c 128,-1,32
 423 659 423 659 412.5 627.5 c 128,-1,33
 402 596 402 596 393 569 c 128,-1,34
 384 542 384 542 379 536 c 0,35,36
 373 526 373 526 365 525 c 0,37,38
 358 525 358 525 358 540 c 0,39,40
 358 553 358 553 360 579 c 128,-1,41
 362 605 362 605 365.5 634 c 128,-1,42
 369 663 369 663 372 689.5 c 128,-1,43
 375 716 375 716 378 730 c 0,44,45
 381 738 381 738 384 743 c 128,-1,46
 387 748 387 748 397 748 c 2,47,-1
 415 748 l 2,24,25
164 332 m 0,48,49
 158 340 158 340 159 343 c 0,50,51
 160 348 160 348 168 355 c 0,52,53
 179 365 179 365 201.5 383.5 c 128,-1,54
 224 402 224 402 248 421 c 128,-1,55
 272 440 272 440 295 457 c 128,-1,56
 318 474 318 474 331 482 c 0,57,58
 342 491 342 491 347.5 485.5 c 128,-1,59
 353 480 353 480 347 469 c 0,60,61
 344 463 344 463 324.5 440.5 c 128,-1,62
 305 418 305 418 282 391.5 c 128,-1,63
 259 365 259 365 237.5 340.5 c 128,-1,64
 216 316 216 316 209 307 c 0,65,66
 206 302 206 302 198 299 c 128,-1,67
 190 296 190 296 187 304 c 0,68,69
 180 311 180 311 177.5 314 c 128,-1,70
 175 317 175 317 173.5 319.5 c 128,-1,71
 172 322 172 322 170 324.5 c 128,-1,72
 168 327 168 327 164 332 c 0,48,49
441 300 m 0,73,74
 427 290 427 290 418 304 c 0,75,76
 414 315 414 315 407 338 c 128,-1,77
 400 361 400 361 392 386.5 c 128,-1,78
 384 412 384 412 377.5 435 c 128,-1,79
 371 458 371 458 368 470 c 0,80,81
 365 481 365 481 372.5 487.5 c 128,-1,82
 380 494 380 494 387 487 c 0,83,84
 392 485 392 485 406.5 465.5 c 128,-1,85
 421 446 421 446 436.5 422.5 c 128,-1,86
 452 399 452 399 465.5 377.5 c 128,-1,87
 479 356 479 356 484 350 c 0,88,89
 488 346 488 346 487.5 339 c 128,-1,90
 487 332 487 332 479 329 c 0,91,92
 469 321 469 321 464 316.5 c 128,-1,93
 459 312 459 312 456.5 310 c 128,-1,94
 454 308 454 308 451 306 c 128,-1,95
 448 304 448 304 441 300 c 0,73,74
161 580 m 0,96,97
 165 587 165 587 167.5 590 c 128,-1,98
 170 593 170 593 171.5 596 c 128,-1,99
 173 599 173 599 176 603.5 c 128,-1,100
 179 608 179 608 186 620 c 0,101,102
 189 630 189 630 197 630 c 0,103,104
 204 630 204 630 208 625 c 0,105,106
 215 619 215 619 235.5 605 c 128,-1,107
 256 591 256 591 278.5 575 c 128,-1,108
 301 559 301 559 319.5 545 c 128,-1,109
 338 531 338 531 341 526 c 0,110,111
 346 518 346 518 340 509.5 c 128,-1,112
 334 501 334 501 323 504 c 0,113,114
 313 507 313 507 290 513.5 c 128,-1,115
 267 520 267 520 242.5 528.5 c 128,-1,116
 218 537 218 537 195.5 544.5 c 128,-1,117
 173 552 173 552 164 558 c 0,118,119
 157 561 157 561 155.5 565.5 c 128,-1,120
 154 570 154 570 161 580 c 0,96,97
EndSplineSet
Validated: 1
EndChar

StartChar: plus
Encoding: 43 43 28
Width: 454
Flags: W
LayerCount: 2
Fore
SplineSet
238 48 m 1,0,1
 231 48 231 48 222 48.5 c 128,-1,2
 213 49 213 49 208 54 c 1,3,4
 216 81 216 81 224.5 120 c 128,-1,5
 233 159 233 159 248 222 c 1,6,-1
 96 222 l 1,7,8
 90 239 90 239 92 252 c 128,-1,9
 94 265 94 265 112 288 c 1,10,11
 131 287 131 287 151 287 c 256,12,13
 170 287 170 287 188 287 c 2,14,-1
 262 287 l 1,15,-1
 299 450 l 1,16,17
 317 461 317 461 329.5 462 c 128,-1,18
 342 463 342 463 360 450 c 1,19,20
 354 428 354 428 349 407 c 0,21,22
 344 387 344 387 340 366 c 2,23,-1
 322 286 l 1,24,-1
 482 286 l 1,25,26
 482 276 482 276 480 270 c 2,27,-1
 477 256 l 2,28,29
 475 248 475 248 472.5 238 c 128,-1,30
 470 228 470 228 464 222 c 1,31,32
 439 224 439 224 402.5 223.5 c 128,-1,33
 366 223 366 223 306 223 c 1,34,-1
 266 50 l 1,35,36
 256 48 256 48 251 48 c 2,37,-1
 238 48 l 1,0,1
EndSplineSet
Validated: 33
EndChar

StartChar: comma
Encoding: 44 44 29
Width: 242
Flags: W
LayerCount: 2
Fore
SplineSet
199 -9 m 0,0,1
 191 -45 191 -45 168.5 -77 c 128,-1,2
 146 -109 146 -109 117 -133 c 0,3,4
 94 -152 94 -152 66 -169 c 128,-1,5
 38 -186 38 -186 18 -189 c 0,6,7
 13 -190 13 -190 9.5 -184 c 128,-1,8
 6 -178 6 -178 8 -173 c 0,9,10
 11 -166 11 -166 28.5 -156 c 128,-1,11
 46 -146 46 -146 66 -131.5 c 128,-1,12
 86 -117 86 -117 104.5 -97 c 128,-1,13
 123 -77 123 -77 129 -50 c 0,14,15
 133 -34 133 -34 131 -25 c 128,-1,16
 129 -16 129 -16 123.5 -11.5 c 128,-1,17
 118 -7 118 -7 108.5 -4 c 128,-1,18
 99 -1 99 -1 89 4 c 0,19,20
 75 12 75 12 65.5 23 c 128,-1,21
 56 34 56 34 61 54 c 0,22,23
 64 69 64 69 73 80 c 128,-1,24
 82 91 82 91 93 97.5 c 128,-1,25
 104 104 104 104 117 107.5 c 128,-1,26
 130 111 130 111 142 111 c 0,27,28
 162 111 162 111 175 99 c 128,-1,29
 188 87 188 87 195 69 c 128,-1,30
 202 51 202 51 202.5 30 c 128,-1,31
 203 9 203 9 199 -9 c 0,0,1
EndSplineSet
Validated: 33
EndChar

StartChar: hyphen
Encoding: 45 45 30
Width: 356
Flags: W
LayerCount: 2
Fore
SplineSet
108 278 m 0,0,1
 109 283 109 283 123.5 284 c 128,-1,2
 138 285 138 285 152 285 c 2,3,-1
 168 285 l 2,4,5
 222 285 222 285 276 284 c 128,-1,6
 330 283 330 283 385 286 c 0,7,8
 391 286 391 286 386 267 c 2,9,-1
 377 226 l 2,10,11
 376 221 376 221 365.5 219.5 c 128,-1,12
 355 218 355 218 344 218 c 2,13,-1
 128 218 l 2,14,15
 117 218 117 218 105.5 219 c 128,-1,16
 94 220 94 220 95 223 c 0,17,18
 96 230 96 230 99 240.5 c 128,-1,19
 102 251 102 251 108 278 c 0,0,1
EndSplineSet
Validated: 33
EndChar

StartChar: period
Encoding: 46 46 31
Width: 235
Flags: W
LayerCount: 2
Fore
SplineSet
177 44 m 256,0,1
 171 17 171 17 151 1 c 128,-1,2
 131 -15 131 -15 106 -15 c 256,3,4
 81 -15 81 -15 68.5 1.5 c 128,-1,5
 56 18 56 18 62 46 c 256,6,7
 68 74 68 74 90.5 92 c 128,-1,8
 113 110 113 110 137 110 c 0,9,10
 164 110 164 110 173.5 90.5 c 128,-1,11
 183 71 183 71 177 44 c 256,0,1
EndSplineSet
Validated: 33
EndChar

StartChar: slash
Encoding: 47 47 32
Width: 358
Flags: W
LayerCount: 2
Fore
SplineSet
506 744 m 1,0,1
 481 694 481 694 453 646.5 c 128,-1,2
 425 599 425 599 396 550 c 0,3,4
 311 404 311 404 227.5 261 c 128,-1,5
 144 118 144 118 63 -31 c 1,6,7
 58 -31 58 -31 46.5 -32 c 128,-1,8
 35 -33 35 -33 11 -31 c 1,9,10
 122 165 122 165 233.5 355.5 c 128,-1,11
 345 546 345 546 453 743 c 1,12,13
 463 746 463 746 479 746 c 0,14,15
 486 746 486 746 494 745.5 c 128,-1,16
 502 745 502 745 506 744 c 1,0,1
EndSplineSet
Validated: 33
EndChar

StartChar: zero
Encoding: 48 48 33
Width: 589
Flags: W
LayerCount: 2
Fore
SplineSet
514.48046875 322.767578125 m 0,0,1
 523.200195312 373.780273438 523.200195312 373.780273438 523.200195312 425.521484375 c 128,-1,2
 523.200195312 477.262695312 523.200195312 477.262695312 511.754882812 518.80078125 c 128,-1,3
 500.309570312 560.33984375 500.309570312 560.33984375 473.059570312 586.575195312 c 128,-1,4
 445.809570312 612.809570312 445.809570312 612.809570312 401.120117188 612.809570312 c 0,5,6
 361.879882812 614.267578125 361.879882812 614.267578125 328.08984375 588.76171875 c 128,-1,7
 294.299804688 563.254882812 294.299804688 563.254882812 268.684570312 523.173828125 c 128,-1,8
 243.0703125 483.092773438 243.0703125 483.092773438 225.084960938 432.80859375 c 128,-1,9
 207.099609375 382.525390625 207.099609375 382.525390625 197.290039062 334.427734375 c 0,10,11
 187.48046875 281.95703125 187.48046875 281.95703125 187.48046875 233.130859375 c 128,-1,12
 187.48046875 184.3046875 187.48046875 184.3046875 200.014648438 145.681640625 c 128,-1,13
 212.549804688 107.057617188 212.549804688 107.057617188 239.254882812 83.0087890625 c 128,-1,14
 265.959960938 58.9599609375 265.959960938 58.9599609375 309.559570312 57.5029296875 c 0,15,16
 350.98046875 56.044921875 350.98046875 56.044921875 384.224609375 79.365234375 c 128,-1,17
 417.469726562 102.684570312 417.469726562 102.684570312 443.084960938 140.580078125 c 128,-1,18
 468.700195312 178.474609375 468.700195312 178.474609375 486.684570312 225.84375 c 128,-1,19
 504.669921875 273.212890625 504.669921875 273.212890625 514.48046875 322.767578125 c 0,0,1
606.040039062 344.629882812 m 0,20,21
 592.959960938 268.83984375 592.959960938 268.83984375 562.440429688 201.06640625 c 128,-1,22
 531.919921875 133.29296875 531.919921875 133.29296875 491.58984375 82.2802734375 c 128,-1,23
 451.259765625 31.267578125 451.259765625 31.267578125 400.575195312 1.388671875 c 128,-1,24
 349.889648438 -28.490234375 349.889648438 -28.490234375 295.389648438 -28.490234375 c 128,-1,25
 240.889648438 -28.490234375 240.889648438 -28.490234375 198.379882812 -2.9833984375 c 128,-1,26
 155.870117188 22.5224609375 155.870117188 22.5224609375 130.799804688 69.8916015625 c 128,-1,27
 105.73046875 117.259765625 105.73046875 117.259765625 99.1904296875 182.119140625 c 128,-1,28
 92.650390625 246.977539062 92.650390625 246.977539062 105.73046875 327.139648438 c 0,29,30
 118.809570312 402.9296875 118.809570312 402.9296875 148.78515625 470.704101562 c 128,-1,31
 178.759765625 538.477539062 178.759765625 538.477539062 220.724609375 588.032226562 c 128,-1,32
 262.690429688 637.587890625 262.690429688 637.587890625 312.830078125 667.465820312 c 128,-1,33
 362.969726562 697.344726562 362.969726562 697.344726562 416.379882812 697.344726562 c 0,34,35
 467.610351562 697.344726562 467.610351562 697.344726562 507.940429688 670.380859375 c 128,-1,36
 548.26953125 643.41796875 548.26953125 643.41796875 574.4296875 596.77734375 c 128,-1,37
 600.58984375 550.137695312 600.58984375 550.137695312 609.85546875 484.549804688 c 128,-1,38
 619.120117188 418.962890625 619.120117188 418.962890625 606.040039062 344.629882812 c 0,20,21
EndSplineSet
Validated: 33
EndChar

StartChar: one
Encoding: 49 49 34
Width: 344
Flags: W
LayerCount: 2
Fore
SplineSet
385 698 m 5,0,1
 385 683 385 683 372 645 c 4,2,3
 367 629 367 629 364 625 c 4,4,5
 351 609 351 609 347 589 c 4,6,7
 347 588 347 588 335 538 c 4,8,9
 314 449 314 449 292 361 c 4,10,11
 270 272 270 272 250 183 c 6,12,-1
 245 160 l 5,13,-1
 250 183 l 5,14,-1
 241 144 l 5,15,-1
 245 160 l 5,16,17
 241 138 241 138 238 114 c 132,-1,18
 235 90 235 90 242 77 c 4,19,20
 247 64 247 64 261 60 c 4,21,22
 275 55 275 55 287.5 51 c 132,-1,23
 300 47 300 47 309.5 42 c 132,-1,24
 319 37 319 37 316 23 c 4,25,26
 311 0 311 0 296 -2 c 4,27,28
 281 -5 281 -5 268 -5 c 4,29,30
 241 -5 241 -5 215 -0 c 4,31,32
 190 5 190 5 163 5 c 4,33,34
 149 5 149 5 138 3 c 4,35,36
 127 2 127 2 117.5 -0.5 c 132,-1,37
 108 -3 108 -3 97 -5 c 4,38,39
 72 -6 72 -6 72 -6 c 6,40,-1
 59 -6 l 6,41,42
 50 -6 50 -6 42 -0.5 c 132,-1,43
 34 5 34 5 38 23 c 4,44,45
 41 37 41 37 52 43 c 132,-1,46
 63 49 63 49 77 53 c 132,-1,47
 91 57 91 57 106 62 c 4,48,49
 122 68 122 68 134 81 c 4,50,51
 146 93 146 93 156 126 c 132,-1,52
 166 159 166 159 173 189 c 6,53,-1
 181 221 l 5,54,-1
 207 334 l 6,55,56
 217 375 217 375 227 414 c 4,57,58
 237 454 237 454 245 492 c 6,59,-1
 252 523 l 6,60,61
 265 578 265 578 263 581 c 4,62,63
 259 592 259 592 247 592 c 4,64,65
 220 594 220 594 220 594 c 4,66,67
 212 594 212 594 203 594 c 4,68,69
 192 594 192 594 181 601 c 4,70,71
 170 607 170 607 182 642 c 4,72,73
 188 658 188 658 190 658 c 4,74,75
 210 663 210 663 213 663 c 4,76,77
 249 670 249 670 291 692 c 4,78,79
 315 704 315 704 359 702 c 4,80,81
 367 702 367 702 374 702 c 5,82,83
 385 698 385 698 385 698 c 5,0,1
EndSplineSet
Validated: 37
EndChar

StartChar: two
Encoding: 50 50 35
Width: 475
Flags: W
LayerCount: 2
Fore
SplineSet
142.557617188 541.490234375 m 0,0,1
 143.6796875 547.419921875 143.6796875 547.419921875 148.731445312 559.280273438 c 128,-1,2
 153.782226562 571.139648438 153.782226562 571.139648438 162.201171875 582.258789062 c 128,-1,3
 170.620117188 593.377929688 170.620117188 593.377929688 177.916015625 604.49609375 c 128,-1,4
 185.212890625 615.615234375 185.212890625 615.615234375 188.580078125 620.0625 c 0,5,6
 216.642578125 654.16015625 216.642578125 654.16015625 237.409179688 671.208984375 c 128,-1,7
 258.174804688 688.2578125 258.174804688 688.2578125 276.134765625 695.669921875 c 128,-1,8
 294.094726562 703.08203125 294.094726562 703.08203125 309.809570312 704.565429688 c 128,-1,9
 325.525390625 706.047851562 325.525390625 706.047851562 341.240234375 706.047851562 c 0,10,11
 418.692382812 706.047851562 418.692382812 706.047851562 442.264648438 637.111328125 c 128,-1,12
 465.837890625 568.174804688 465.837890625 568.174804688 423.182617188 454.022460938 c 0,13,14
 413.080078125 424.372070312 413.080078125 424.372070312 390.629882812 385.0859375 c 128,-1,15
 368.1796875 345.799804688 368.1796875 345.799804688 340.1171875 304.290039062 c 128,-1,16
 312.0546875 262.780273438 312.0546875 262.780273438 281.186523438 222.752929688 c 128,-1,17
 250.317382812 182.724609375 250.317382812 182.724609375 223.377929688 150.110351562 c 128,-1,18
 196.4375 117.495117188 196.4375 117.495117188 176.232421875 95.2578125 c 128,-1,19
 156.02734375 73.01953125 156.02734375 73.01953125 150.415039062 68.572265625 c 1,20,21
 162.762695312 59.677734375 162.762695312 59.677734375 194.75390625 56.712890625 c 128,-1,22
 226.745117188 53.7470703125 226.745117188 53.7470703125 262.665039062 55.9716796875 c 128,-1,23
 298.584960938 58.1953125 298.584960938 58.1953125 331.137695312 67.08984375 c 128,-1,24
 363.690429688 75.9853515625 363.690429688 75.9853515625 374.915039062 90.8095703125 c 0,25,26
 388.384765625 110.08203125 388.384765625 110.08203125 405.22265625 134.543945312 c 128,-1,27
 422.059570312 159.004882812 422.059570312 159.004882812 436.65234375 181.983398438 c 128,-1,28
 451.245117188 204.962890625 451.245117188 204.962890625 463.03125 222.752929688 c 128,-1,29
 474.817382812 240.54296875 474.817382812 240.54296875 478.184570312 244.990234375 c 0,30,31
 489.41015625 261.297851562 489.41015625 261.297851562 500.634765625 254.625976562 c 128,-1,32
 511.860351562 247.955078125 511.860351562 247.955078125 514.10546875 234.612304688 c 1,33,34
 477.0625 173.830078125 477.0625 173.830078125 457.98046875 125.6484375 c 128,-1,35
 438.897460938 77.4677734375 438.897460938 77.4677734375 430.478515625 45.59375 c 128,-1,36
 422.059570312 13.7197265625 422.059570312 13.7197265625 418.130859375 -2.587890625 c 128,-1,37
 414.202148438 -18.89453125 414.202148438 -18.89453125 405.22265625 -17.412109375 c 0,38,39
 374.915039062 -14.447265625 374.915039062 -14.447265625 332.259765625 -4.8115234375 c 128,-1,40
 289.60546875 4.8251953125 289.60546875 4.8251953125 223.377929688 7.7900390625 c 0,41,42
 195.315429688 7.7900390625 195.315429688 7.7900390625 160.517578125 7.048828125 c 128,-1,43
 125.719726562 6.3076171875 125.719726562 6.3076171875 97.6572265625 6.3076171875 c 0,44,45
 93.16796875 6.3076171875 93.16796875 6.3076171875 84.1875 -6.2939453125 c 128,-1,46
 75.20703125 -18.89453125 75.20703125 -18.89453125 70.7177734375 -15.9296875 c 0,47,48
 60.615234375 -15.9296875 60.615234375 -15.9296875 56.125 -10 c 128,-1,49
 51.634765625 -4.0703125 51.634765625 -4.0703125 55.0029296875 15.2021484375 c 0,50,51
 56.125 22.615234375 56.125 22.615234375 62.8603515625 30.02734375 c 0,52,53
 101.025390625 77.4677734375 101.025390625 77.4677734375 140.874023438 132.3203125 c 128,-1,54
 180.72265625 187.172851562 180.72265625 187.172851562 216.081054688 242.025390625 c 128,-1,55
 251.440429688 296.877929688 251.440429688 296.877929688 280.625 347.282226562 c 128,-1,56
 309.809570312 397.6875 309.809570312 397.6875 328.892578125 439.197265625 c 0,57,58
 365.934570312 522.217773438 365.934570312 522.217773438 351.903320312 571.139648438 c 128,-1,59
 337.872070312 620.0625 337.872070312 620.0625 283.9921875 620.0625 c 0,60,61
 250.317382812 620.0625 250.317382812 620.0625 229.55078125 606.719726562 c 128,-1,62
 208.78515625 593.377929688 208.78515625 593.377929688 195.315429688 576.329101562 c 128,-1,63
 181.844726562 559.280273438 181.844726562 559.280273438 172.865234375 543.713867188 c 128,-1,64
 163.884765625 528.147460938 163.884765625 528.147460938 157.150390625 523.700195312 c 256,65,66
 150.415039062 519.252929688 150.415039062 519.252929688 145.36328125 525.182617188 c 128,-1,67
 140.3125 531.112304688 140.3125 531.112304688 142.557617188 541.490234375 c 0,0,1
EndSplineSet
Validated: 33
EndChar

StartChar: three
Encoding: 51 51 36
Width: 385
Flags: W
LayerCount: 2
Fore
SplineSet
180 621 m 4,0,1
 182 634 182 634 197.5 650.5 c 132,-1,2
 213 667 213 667 235.5 681.5 c 132,-1,3
 258 696 258 696 283.5 706 c 132,-1,4
 309 716 309 716 332 716 c 132,-1,5
 355 716 355 716 374.5 710 c 132,-1,6
 394 704 394 704 408 690 c 132,-1,7
 422 676 422 676 427.5 654.5 c 132,-1,8
 433 633 433 633 426 601 c 4,9,10
 421 579 421 579 401.5 552.5 c 132,-1,11
 382 526 382 526 357.5 500.5 c 132,-1,12
 333 475 333 475 308 454 c 132,-1,13
 283 433 283 433 267 423 c 5,14,15
 310 427 310 427 341 415.5 c 132,-1,16
 372 404 372 404 390 380 c 132,-1,17
 408 356 408 356 413 322 c 132,-1,18
 418 288 418 288 408 249 c 4,19,20
 395 191 395 191 354 138 c 132,-1,21
 313 85 313 85 260.5 45 c 132,-1,22
 208 5 208 5 149.5 -18.5 c 132,-1,23
 91 -42 91 -42 41 -43 c 4,24,25
 35 -43 35 -43 33 -39.5 c 132,-1,26
 31 -36 31 -36 33 -31 c 132,-1,27
 35 -26 35 -26 38.5 -22.5 c 132,-1,28
 42 -19 42 -19 45 -19 c 4,29,30
 92 -6 92 -6 137 15 c 132,-1,31
 182 36 182 36 219 65.5 c 132,-1,32
 256 95 256 95 282 132.5 c 132,-1,33
 308 170 308 170 319 217 c 4,34,35
 325 242 325 242 323.5 266.5 c 132,-1,36
 322 291 322 291 315 312 c 132,-1,37
 308 333 308 333 292.5 347.5 c 132,-1,38
 277 362 277 362 255 367 c 4,39,40
 237 371 237 371 216 373 c 132,-1,41
 195 375 195 375 173 364 c 4,42,43
 166 361 166 361 152 352 c 132,-1,44
 138 343 138 343 133 343 c 4,45,46
 119 343 119 343 123 361 c 4,47,48
 125 370 125 370 139 376.5 c 132,-1,49
 153 383 153 383 159 386 c 4,50,51
 183 398 183 398 213 418.5 c 132,-1,52
 243 439 243 439 271.5 464 c 132,-1,53
 300 489 300 489 321 517 c 132,-1,54
 342 545 342 545 349 573 c 4,55,56
 360 622 360 622 342.5 645.5 c 132,-1,57
 325 669 325 669 295 669 c 260,58,59
 264 669 264 669 242 652.5 c 132,-1,60
 220 636 220 636 191 610 c 4,61,62
 186 606 186 606 183 610.5 c 132,-1,63
 180 615 180 615 180 621 c 4,0,1
EndSplineSet
Validated: 33
EndChar

StartChar: four
Encoding: 52 52 37
Width: 549
Flags: W
LayerCount: 2
Fore
SplineSet
604 255 m 4,0,1
 599 233 599 233 578 233 c 4,2,3
 567 233 567 233 555.5 234 c 132,-1,4
 544 235 544 235 532 235 c 6,5,-1
 514 235 l 6,6,7
 497 235 497 235 483 235.5 c 132,-1,8
 469 236 469 236 458.5 234.5 c 132,-1,9
 448 233 448 233 441 228 c 132,-1,10
 434 223 434 223 432 212 c 6,11,-1
 385 8 l 6,12,13
 383 0 383 0 380.5 -8 c 132,-1,14
 378 -16 378 -16 378 -24 c 4,15,16
 372 -40 372 -40 357 -47 c 132,-1,17
 342 -54 342 -54 325 -54 c 4,18,19
 312 -54 312 -54 302.5 -49.5 c 132,-1,20
 293 -45 293 -45 295 -39 c 4,21,22
 301 -22 301 -22 307.5 5.5 c 132,-1,23
 314 33 314 33 321 62 c 6,24,-1
 343 155 l 6,25,26
 345 162 345 162 347 171.5 c 132,-1,27
 349 181 349 181 351 190 c 4,28,29
 356 212 356 212 352 221.5 c 132,-1,30
 348 231 348 231 338 234 c 132,-1,31
 328 237 328 237 316.5 236 c 132,-1,32
 305 235 305 235 295 235 c 4,33,34
 241 235 241 235 187 231 c 132,-1,35
 133 227 133 227 78 227 c 4,36,37
 71 227 71 227 69 235.5 c 132,-1,38
 67 244 67 244 75 253 c 4,39,40
 90 271 90 271 115 298.5 c 132,-1,41
 140 326 140 326 168.5 358 c 132,-1,42
 197 390 197 390 228.5 424 c 132,-1,43
 260 458 260 458 288.5 489.5 c 132,-1,44
 317 521 317 521 341.5 547.5 c 132,-1,45
 366 574 366 574 383 590 c 4,46,47
 400 608 400 608 408 618.5 c 132,-1,48
 416 629 416 629 422.5 638 c 132,-1,49
 429 647 429 647 436.5 657 c 132,-1,50
 444 667 444 667 461 687 c 4,51,52
 470 697 470 697 484 701 c 132,-1,53
 498 705 498 705 512 705 c 260,54,55
 525 705 525 705 533 700 c 132,-1,56
 541 695 541 695 538 687 c 4,57,58
 537 684 537 684 536 673.5 c 132,-1,59
 535 663 535 663 527 627 c 6,60,-1
 451 303 l 6,61,62
 448 289 448 289 469 288 c 6,63,-1
 514 288 l 6,64,65
 534 288 534 288 552 288.5 c 132,-1,66
 570 289 570 289 579 289 c 4,67,68
 592 289 592 289 599.5 279 c 132,-1,69
 607 269 607 269 604 255 c 4,0,1
165 300 m 4,70,71
 163 292 163 292 169.5 289 c 132,-1,72
 176 286 176 286 181 286 c 4,73,74
 190 286 190 286 215 287 c 132,-1,75
 240 288 240 288 268.5 288.5 c 132,-1,76
 297 289 297 289 320 290 c 132,-1,77
 343 291 343 291 348 291 c 4,78,79
 367 291 367 291 372 297 c 132,-1,80
 377 303 377 303 381 316 c 6,81,-1
 394 374 l 6,82,83
 402 409 402 409 410.5 449 c 132,-1,84
 419 489 419 489 429 530 c 6,85,-1
 446 607 l 5,86,87
 398 555 398 555 334.5 489.5 c 132,-1,88
 271 424 271 424 201 346 c 4,89,90
 193 337 193 337 180.5 324 c 132,-1,91
 168 311 168 311 165 300 c 4,70,71
EndSplineSet
Validated: 1
EndChar

StartChar: five
Encoding: 53 53 38
Width: 461
Flags: W
LayerCount: 2
Fore
SplineSet
581.5 776.5 m 4,0,1
 583.5 773.5 583.5 773.5 580.5 764 c 132,-1,2
 577.5 754.5 577.5 754.5 571 741 c 132,-1,3
 564.5 727.5 564.5 727.5 555.5 709.5 c 132,-1,4
 546.5 691.5 546.5 691.5 538.5 670.5 c 4,5,6
 533.5 660.5 533.5 660.5 527.5 649.5 c 132,-1,7
 521.5 638.5 521.5 638.5 513 628.5 c 132,-1,8
 504.5 618.5 504.5 618.5 493 612.5 c 132,-1,9
 481.5 606.5 481.5 606.5 466.5 606.5 c 4,10,11
 454.5 606.5 454.5 606.5 426.5 606.5 c 4,12,13
 399.5 606.5 399.5 606.5 369.5 606.5 c 260,14,15
 339.5 606.5 339.5 606.5 315.5 605 c 132,-1,16
 291.5 603.5 291.5 603.5 286.5 600.5 c 4,17,18
 279.5 600.5 279.5 600.5 267.5 580 c 132,-1,19
 255.5 559.5 255.5 559.5 242 533.5 c 132,-1,20
 228.5 507.5 228.5 507.5 216 482 c 132,-1,21
 203.5 456.5 203.5 456.5 196.5 446.5 c 5,22,23
 212.5 453.5 212.5 453.5 232.5 465 c 132,-1,24
 252.5 476.5 252.5 476.5 277 486 c 132,-1,25
 301.5 495.5 301.5 495.5 330 501.5 c 132,-1,26
 358.5 507.5 358.5 507.5 392.5 501.5 c 4,27,28
 432.5 494.5 432.5 494.5 458.5 473.5 c 132,-1,29
 484.5 452.5 484.5 452.5 497 422 c 132,-1,30
 509.5 391.5 509.5 391.5 508 352 c 132,-1,31
 506.5 312.5 506.5 312.5 491.5 268.5 c 4,32,33
 467.5 199.5 467.5 199.5 418 142.5 c 132,-1,34
 368.5 85.5 368.5 85.5 308.5 44.5 c 4,35,36
 285.5 29.5 285.5 29.5 276.5 28.5 c 260,37,38
 268.5 28.5 268.5 28.5 260.5 45.5 c 4,39,40
 258.5 48.5 258.5 48.5 273 60.5 c 132,-1,41
 287.5 72.5 287.5 72.5 310 95 c 132,-1,42
 332.5 117.5 332.5 117.5 358 152 c 132,-1,43
 383.5 186.5 383.5 186.5 400.5 235.5 c 4,44,45
 413.5 274.5 413.5 274.5 420 305 c 132,-1,46
 426.5 335.5 426.5 335.5 421 358.5 c 132,-1,47
 415.5 381.5 415.5 381.5 399.5 399 c 132,-1,48
 383.5 416.5 383.5 416.5 352.5 431.5 c 4,49,50
 341.5 436.5 341.5 436.5 320.5 435 c 132,-1,51
 299.5 433.5 299.5 433.5 275.5 428 c 132,-1,52
 251.5 422.5 251.5 422.5 228 413.5 c 132,-1,53
 204.5 404.5 204.5 404.5 191.5 396.5 c 4,54,55
 183.5 393.5 183.5 393.5 177.5 386.5 c 132,-1,56
 171.5 379.5 171.5 379.5 164.5 373 c 132,-1,57
 157.5 366.5 157.5 366.5 148.5 364 c 132,-1,58
 139.5 361.5 139.5 361.5 127.5 367.5 c 4,59,60
 120.5 374.5 120.5 374.5 122.5 385.5 c 4,61,62
 126.5 402.5 126.5 402.5 139 418 c 132,-1,63
 151.5 433.5 151.5 433.5 155.5 441.5 c 4,64,65
 166.5 460.5 166.5 460.5 182.5 489.5 c 132,-1,66
 198.5 518.5 198.5 518.5 214.5 550 c 132,-1,67
 230.5 581.5 230.5 581.5 244.5 612.5 c 132,-1,68
 258.5 643.5 258.5 643.5 265.5 665.5 c 4,69,70
 267.5 670.5 267.5 670.5 270 675.5 c 132,-1,71
 272.5 680.5 272.5 680.5 279.5 680.5 c 4,72,73
 289.5 681.5 289.5 681.5 308.5 681 c 132,-1,74
 327.5 680.5 327.5 680.5 355 680 c 132,-1,75
 382.5 679.5 382.5 679.5 416 680 c 132,-1,76
 449.5 680.5 449.5 680.5 487.5 683.5 c 5,77,-1
 558.5 777.5 l 6,78,79
 564.5 784.5 564.5 784.5 571 781.5 c 132,-1,80
 577.5 778.5 577.5 778.5 581.5 776.5 c 4,0,1
EndSplineSet
Validated: 33
EndChar

StartChar: six
Encoding: 54 54 39
Width: 541
Flags: W
LayerCount: 2
Fore
SplineSet
544 234 m 0,0,1
 533 186 533 186 507 141.5 c 128,-1,2
 481 97 481 97 446 62.5 c 128,-1,3
 411 28 411 28 368.5 7.5 c 128,-1,4
 326 -13 326 -13 279 -13 c 0,5,6
 233 -13 233 -13 191 7 c 0,7,8
 158 24 158 24 138.5 51.5 c 128,-1,9
 119 79 119 79 110 113 c 128,-1,10
 101 147 101 147 102 186.5 c 128,-1,11
 103 226 103 226 113 267 c 0,12,13
 131 348 131 348 172.5 421.5 c 128,-1,14
 214 495 214 495 271.5 557.5 c 128,-1,15
 329 620 329 620 397.5 669.5 c 128,-1,16
 466 719 466 719 539 752 c 0,17,18
 550 757 550 757 566 763 c 128,-1,19
 582 769 582 769 592 770 c 0,20,21
 596 767 596 767 600 762 c 128,-1,22
 604 757 604 757 602 750 c 0,23,24
 601 745 601 745 592.5 738.5 c 128,-1,25
 584 732 584 732 573.5 727 c 128,-1,26
 563 722 563 722 553 717.5 c 128,-1,27
 543 713 543 713 539 711 c 0,28,29
 521 701 521 701 502.5 689 c 128,-1,30
 484 677 484 677 467 664 c 0,31,32
 390 606 390 606 332 529.5 c 128,-1,33
 274 453 274 453 238 366 c 1,34,35
 252 378 252 378 271.5 391 c 128,-1,36
 291 404 291 404 314 415.5 c 128,-1,37
 337 427 337 427 361.5 434 c 128,-1,38
 386 441 386 441 413 441 c 0,39,40
 454 441 454 441 483 425.5 c 128,-1,41
 512 410 512 410 529.5 382 c 128,-1,42
 547 354 547 354 550.5 316 c 128,-1,43
 554 278 554 278 544 234 c 0,0,1
365 395 m 0,44,45
 345 395 345 395 323.5 386.5 c 128,-1,46
 302 378 302 378 282.5 365.5 c 128,-1,47
 263 353 263 353 246 339.5 c 128,-1,48
 229 326 229 326 218 314 c 1,49,50
 212 295 212 295 207 279.5 c 128,-1,51
 202 264 202 264 198 245 c 0,52,53
 190 209 190 209 186.5 169.5 c 128,-1,54
 183 130 183 130 190.5 96 c 128,-1,55
 198 62 198 62 220 40 c 128,-1,56
 242 18 242 18 283 18 c 0,57,58
 318 18 318 18 346.5 36.5 c 128,-1,59
 375 55 375 55 396.5 84 c 128,-1,60
 418 113 418 113 432.5 147 c 128,-1,61
 447 181 447 181 455 213 c 0,62,63
 463 247 463 247 463 279.5 c 128,-1,64
 463 312 463 312 452.5 338 c 128,-1,65
 442 364 442 364 421 379.5 c 128,-1,66
 400 395 400 395 365 395 c 0,44,45
EndSplineSet
Validated: 33
EndChar

StartChar: seven
Encoding: 55 55 40
Width: 458
Flags: W
LayerCount: 2
Fore
SplineSet
597 674 m 4,0,1
 596 671 596 671 587.5 657.5 c 132,-1,2
 579 644 579 644 566.5 624.5 c 132,-1,3
 554 605 554 605 539 582 c 132,-1,4
 524 559 524 559 509.5 538 c 132,-1,5
 495 517 495 517 484 500.5 c 132,-1,6
 473 484 473 484 469 478 c 4,7,8
 381 343 381 343 294.5 211.5 c 132,-1,9
 208 80 208 80 109 -49 c 4,10,11
 105 -54 105 -54 97.5 -53.5 c 132,-1,12
 90 -53 90 -53 83.5 -49 c 132,-1,13
 77 -45 77 -45 73.5 -38.5 c 132,-1,14
 70 -32 70 -32 73 -27 c 4,15,16
 142 74 142 74 209.5 171.5 c 132,-1,17
 277 269 277 269 346 370 c 4,18,19
 380 422 380 422 414 472.5 c 132,-1,20
 448 523 448 523 479 575 c 4,21,22
 481 580 481 580 483 585 c 132,-1,23
 485 590 485 590 486 595 c 4,24,25
 488 605 488 605 480 607 c 132,-1,26
 472 609 472 609 465 609 c 6,27,-1
 175 609 l 6,28,29
 167 609 167 609 160 611.5 c 132,-1,30
 153 614 153 614 158 622 c 4,31,32
 172 647 172 647 185 673 c 132,-1,33
 198 699 198 699 208.5 720.5 c 132,-1,34
 219 742 219 742 227.5 756 c 132,-1,35
 236 770 236 770 241 770 c 260,36,37
 246 770 246 770 253.5 767.5 c 132,-1,38
 261 765 261 765 259 757 c 4,39,40
 254 738 254 738 251 722 c 132,-1,41
 248 706 248 706 242 689 c 5,42,-1
 279 688 l 5,43,-1
 355 688 l 6,44,45
 374 688 374 688 394 688 c 132,-1,46
 414 688 414 688 433 689 c 4,47,48
 464 690 464 690 495 691.5 c 132,-1,49
 526 693 526 693 557 693 c 6,50,-1
 569 693 l 6,51,52
 579 693 579 693 589.5 689 c 132,-1,53
 600 685 600 685 597 674 c 4,0,1
EndSplineSet
Validated: 1
EndChar

StartChar: eight
Encoding: 56 56 41
Width: 470
Flags: W
LayerCount: 2
Fore
SplineSet
473 186 m 0,0,1
 464 144 464 144 442 108 c 128,-1,2
 420 72 420 72 388 44.5 c 128,-1,3
 356 17 356 17 318.5 2 c 128,-1,4
 281 -13 281 -13 243 -13 c 0,5,6
 206 -13 206 -13 172 -4.5 c 128,-1,7
 138 4 138 4 114.5 23.5 c 128,-1,8
 91 43 91 43 81 75.5 c 128,-1,9
 71 108 71 108 81 155 c 0,10,11
 87 187 87 187 102.5 213.5 c 128,-1,12
 118 240 118 240 140.5 262.5 c 128,-1,13
 163 285 163 285 189 303 c 128,-1,14
 215 321 215 321 242 335 c 2,15,-1
 265 347 l 1,16,17
 262 352 262 352 257.5 355.5 c 128,-1,18
 253 359 253 359 250 364 c 0,19,20
 232 379 232 379 214.5 396.5 c 128,-1,21
 197 414 197 414 185 435 c 128,-1,22
 173 456 173 456 167.5 480.5 c 128,-1,23
 162 505 162 505 168 536 c 0,24,25
 177 580 177 580 201 615 c 128,-1,26
 225 650 225 650 257.5 675 c 128,-1,27
 290 700 290 700 328.5 713.5 c 128,-1,28
 367 727 367 727 404 727 c 0,29,30
 438 727 438 727 469.5 716.5 c 128,-1,31
 501 706 501 706 522.5 685.5 c 128,-1,32
 544 665 544 665 553.5 633.5 c 128,-1,33
 563 602 563 602 554 562 c 0,34,35
 547 525 547 525 529.5 498 c 128,-1,36
 512 471 512 471 487.5 451 c 128,-1,37
 463 431 463 431 433.5 415 c 128,-1,38
 404 399 404 399 375 385 c 1,39,40
 379 380 379 380 384.5 376 c 128,-1,41
 390 372 390 372 396 368 c 0,42,43
 414 354 414 354 431.5 334.5 c 128,-1,44
 449 315 449 315 460.5 292 c 128,-1,45
 472 269 472 269 476 242.5 c 128,-1,46
 480 216 480 216 473 186 c 0,0,1
388 151 m 0,47,48
 395 187 395 187 390 215.5 c 128,-1,49
 385 244 385 244 370.5 265.5 c 128,-1,50
 356 287 356 287 334.5 303 c 128,-1,51
 313 319 313 319 289 331 c 1,52,53
 238 312 238 312 202 267.5 c 128,-1,54
 166 223 166 223 156 170 c 0,55,56
 150 140 150 140 150 113 c 128,-1,57
 150 86 150 86 157.5 65 c 128,-1,58
 165 44 165 44 183 31 c 128,-1,59
 201 18 201 18 230 18 c 0,60,61
 249 18 249 18 266 20.5 c 128,-1,62
 283 23 283 23 302 32 c 0,63,64
 339 49 339 49 360 80.5 c 128,-1,65
 381 112 381 112 388 151 c 0,47,48
482 557 m 0,66,67
 488 586 488 586 484.5 612 c 128,-1,68
 481 638 481 638 470 657 c 128,-1,69
 459 676 459 676 439 687 c 128,-1,70
 419 698 419 698 390 698 c 0,71,72
 340 698 340 698 300 662 c 128,-1,73
 260 626 260 626 248 571 c 0,74,75
 240 532 240 532 255 497 c 0,76,77
 260 486 260 486 271 471 c 128,-1,78
 282 456 282 456 295 441.5 c 128,-1,79
 308 427 308 427 322.5 416.5 c 128,-1,80
 337 406 337 406 349 402 c 1,81,82
 374 409 374 409 396 425.5 c 128,-1,83
 418 442 418 442 435 463 c 128,-1,84
 452 484 452 484 464.5 508.5 c 128,-1,85
 477 533 477 533 482 557 c 0,66,67
EndSplineSet
Validated: 33
EndChar

StartChar: nine
Encoding: 57 57 42
Width: 541
Flags: W
LayerCount: 2
Fore
SplineSet
333 287 m 4,0,1
 353 287 353 287 373.5 295.5 c 132,-1,2
 394 304 394 304 413.5 316.5 c 132,-1,3
 433 329 433 329 450 343 c 132,-1,4
 467 357 467 357 478 368 c 5,5,6
 484 387 484 387 489 402.5 c 132,-1,7
 494 418 494 418 499 438 c 4,8,9
 507 473 507 473 510.5 512.5 c 132,-1,10
 514 552 514 552 506 586 c 132,-1,11
 498 620 498 620 476.5 642 c 132,-1,12
 455 664 455 664 414 664 c 4,13,14
 379 664 379 664 350.5 645.5 c 132,-1,15
 322 627 322 627 300 598.5 c 132,-1,16
 278 570 278 570 264 535.5 c 132,-1,17
 250 501 250 501 241 469 c 4,18,19
 233 435 233 435 233.5 402.5 c 132,-1,20
 234 370 234 370 244 344.5 c 132,-1,21
 254 319 254 319 276 303 c 132,-1,22
 298 287 298 287 333 287 c 4,0,1
153 448 m 4,23,24
 164 496 164 496 189.5 540.5 c 132,-1,25
 215 585 215 585 250 620 c 132,-1,26
 285 655 285 655 328 675.5 c 132,-1,27
 371 696 371 696 418 696 c 4,28,29
 464 696 464 696 505 675 c 4,30,31
 538 658 538 658 557.5 630.5 c 132,-1,32
 577 603 577 603 586 569 c 132,-1,33
 595 535 595 535 594 495.5 c 132,-1,34
 593 456 593 456 583 415 c 4,35,36
 565 334 565 334 527 264 c 132,-1,37
 489 194 489 194 440.5 137.5 c 132,-1,38
 392 81 392 81 335 39.5 c 132,-1,39
 278 -2 278 -2 221 -24 c 4,40,41
 210 -29 210 -29 194.5 -35.5 c 132,-1,42
 179 -42 179 -42 169 -43 c 4,43,44
 165 -40 165 -40 160.5 -34.5 c 132,-1,45
 156 -29 156 -29 157 -22 c 4,46,47
 158 -19 158 -19 171.5 -11 c 132,-1,48
 185 -3 185 -3 202.5 7 c 132,-1,49
 220 17 220 17 237.5 26.5 c 132,-1,50
 255 36 255 36 264 43 c 4,51,52
 334 96 334 96 378 163.5 c 132,-1,53
 422 231 422 231 458 317 c 5,54,55
 444 305 444 305 424.5 291.5 c 132,-1,56
 405 278 405 278 382.5 266.5 c 132,-1,57
 360 255 360 255 335 248 c 132,-1,58
 310 241 310 241 284 241 c 4,59,60
 242 241 242 241 213 257 c 132,-1,61
 184 273 184 273 167 300.5 c 132,-1,62
 150 328 150 328 146.5 366 c 132,-1,63
 143 404 143 404 153 448 c 4,23,24
EndSplineSet
Validated: 33
EndChar

StartChar: colon
Encoding: 58 58 43
Width: 241
Flags: W
LayerCount: 2
Fore
SplineSet
266 406 m 0,0,1
 260 378 260 378 237 358.5 c 128,-1,2
 214 339 214 339 188 339 c 0,3,4
 184 339 184 339 184 340 c 0,5,6
 174 341 174 341 166 347.5 c 128,-1,7
 158 354 158 354 153 364 c 128,-1,8
 148 374 148 374 146 385.5 c 128,-1,9
 144 397 144 397 147 409 c 0,10,11
 152 433 152 433 174.5 452 c 128,-1,12
 197 471 197 471 218 471 c 0,13,14
 243 471 243 471 257.5 452 c 128,-1,15
 272 433 272 433 266 406 c 0,0,1
185 51 m 0,16,17
 179 24 179 24 156 3 c 128,-1,18
 133 -18 133 -18 106 -18 c 0,19,20
 94 -18 94 -18 85 -12 c 128,-1,21
 76 -6 76 -6 70.5 3.5 c 128,-1,22
 65 13 65 13 63 25.5 c 128,-1,23
 61 38 61 38 65 51 c 0,24,25
 71 78 71 78 92.5 96 c 128,-1,26
 114 114 114 114 138 114 c 0,27,28
 161 114 161 114 176 95.5 c 128,-1,29
 191 77 191 77 185 51 c 0,16,17
EndSplineSet
Validated: 33
EndChar

StartChar: semicolon
Encoding: 59 59 44
Width: 243
Flags: W
LayerCount: 2
Fore
SplineSet
274 406 m 0,0,1
 268 378 268 378 246 358.5 c 128,-1,2
 224 339 224 339 199 339 c 0,3,4
 196 339 196 339 195 340 c 0,5,6
 171 342 171 342 163 361.5 c 128,-1,7
 155 381 155 381 160 404 c 0,8,9
 166 433 166 433 186 451 c 128,-1,10
 206 469 206 469 232 469 c 0,11,12
 255 469 255 469 267 449.5 c 128,-1,13
 279 430 279 430 274 406 c 0,0,1
198 -12 m 0,14,15
 189 -50 189 -50 168 -80.5 c 128,-1,16
 147 -111 147 -111 117 -135 c 0,17,18
 111 -139 111 -139 97.5 -148 c 128,-1,19
 84 -157 84 -157 69 -166 c 128,-1,20
 54 -175 54 -175 40.5 -181.5 c 128,-1,21
 27 -188 27 -188 22 -188 c 0,22,23
 15 -188 15 -188 15 -181 c 1,24,25
 11 -179 11 -179 12 -172 c 0,26,27
 12 -171 12 -171 17 -167.5 c 128,-1,28
 22 -164 22 -164 26.5 -160.5 c 128,-1,29
 31 -157 31 -157 35.5 -154 c 128,-1,30
 40 -151 40 -151 42 -150 c 0,31,32
 58 -140 58 -140 72.5 -129.5 c 128,-1,33
 87 -119 87 -119 98.5 -107 c 128,-1,34
 110 -95 110 -95 118 -80.5 c 128,-1,35
 126 -66 126 -66 130 -45 c 0,36,37
 134 -27 134 -27 129.5 -18 c 128,-1,38
 125 -9 125 -9 114.5 -4.5 c 128,-1,39
 104 0 104 0 92.5 3 c 128,-1,40
 81 6 81 6 73 13 c 0,41,42
 55 27 55 27 59 52 c 0,43,44
 65 80 65 80 91 95.5 c 128,-1,45
 117 111 117 111 139 111 c 256,46,47
 162 111 162 111 175.5 99.5 c 128,-1,48
 189 88 189 88 196.5 70 c 128,-1,49
 204 52 204 52 203.5 31 c 128,-1,50
 203 10 203 10 198 -12 c 0,14,15
EndSplineSet
Validated: 33
EndChar

StartChar: less
Encoding: 60 60 45
Width: 434
Flags: W
LayerCount: 2
Fore
SplineSet
179 230 m 1,0,1
 216 192 216 192 242 165.5 c 128,-1,2
 268 139 268 139 292 116.5 c 128,-1,3
 316 94 316 94 342.5 71 c 128,-1,4
 369 48 369 48 403 16 c 1,5,6
 401 7 401 7 399 3 c 128,-1,7
 397 -1 397 -1 394 -4.5 c 128,-1,8
 391 -8 391 -8 389 -12 c 128,-1,9
 387 -16 387 -16 384 -26 c 1,10,11
 336 5 336 5 303 29 c 128,-1,12
 270 53 270 53 239 77.5 c 128,-1,13
 208 102 208 102 174 130.5 c 128,-1,14
 140 159 140 159 91 198 c 1,15,-1
 105 261 l 1,16,17
 151 286 151 286 186 306 c 128,-1,18
 221 326 221 326 250 343.5 c 128,-1,19
 279 361 279 361 305 378 c 128,-1,20
 331 395 331 395 359 412 c 128,-1,21
 387 429 387 429 421 448 c 128,-1,22
 455 467 455 467 499 489 c 1,23,24
 497 480 497 480 497 476 c 128,-1,25
 497 472 497 472 497 469 c 128,-1,26
 497 466 497 466 497.5 462.5 c 128,-1,27
 498 459 498 459 496 450 c 1,28,29
 444 415 444 415 403 387 c 128,-1,30
 362 359 362 359 326.5 333.5 c 128,-1,31
 291 308 291 308 256 283.5 c 128,-1,32
 221 259 221 259 179 230 c 1,0,1
EndSplineSet
Validated: 1
EndChar

StartChar: equal
Encoding: 61 61 46
Width: 485
Flags: W
LayerCount: 2
Fore
SplineSet
508 340 m 1,0,1
 506 332 506 332 503.5 322 c 128,-1,2
 501 312 501 312 495 306 c 1,3,4
 485 307 485 307 472 307 c 0,5,6
 461 307 461 307 446 307 c 2,7,-1
 375 307 l 2,8,9
 332 307 332 307 271.5 306.5 c 128,-1,10
 211 306 211 306 127 306 c 1,11,12
 121 323 121 323 122.5 336 c 128,-1,13
 124 349 124 349 142 372 c 1,14,15
 230 372 230 372 309 371 c 128,-1,16
 388 370 388 370 446 370 c 2,17,-1
 513 370 l 1,18,19
 513 360 513 360 511 354 c 2,20,-1
 508 340 l 1,0,1
100 208 m 1,21,22
 120 208 120 208 146 208.5 c 128,-1,23
 172 209 172 209 215 209 c 2,24,-1
 473 209 l 1,25,26
 481 191 481 191 475 176 c 128,-1,27
 469 161 469 161 458 143 c 1,28,29
 438 142 438 142 415 142 c 256,30,31
 392 142 392 142 366 142 c 2,32,-1
 261 142 l 2,33,34
 210 142 210 142 163 142.5 c 128,-1,35
 116 143 116 143 85 144 c 1,36,37
 87 153 87 153 86 160.5 c 128,-1,38
 85 168 85 168 87 177 c 0,39,40
 88 183 88 183 93 192.5 c 128,-1,41
 98 202 98 202 100 208 c 1,21,22
EndSplineSet
Validated: 33
EndChar

StartChar: greater
Encoding: 62 62 47
Width: 434
Flags: W
LayerCount: 2
Fore
SplineSet
372 230 m 1,0,1
 342 259 342 259 318.5 283.5 c 128,-1,2
 295 308 295 308 271 333 c 128,-1,3
 247 358 247 358 219 386.5 c 128,-1,4
 191 415 191 415 156 450 c 1,5,6
 158 459 158 459 160 462.5 c 128,-1,7
 162 466 162 466 163.5 469 c 128,-1,8
 165 472 165 472 167 476 c 128,-1,9
 169 480 169 480 171 489 c 1,10,11
 221 455 221 455 253.5 429 c 128,-1,12
 286 403 286 403 314 378 c 128,-1,13
 342 353 342 353 374.5 325.5 c 128,-1,14
 407 298 407 298 459 261 c 1,15,-1
 443 198 l 1,16,17
 398 172 398 172 363 151 c 128,-1,18
 328 130 328 130 297.5 112 c 128,-1,19
 267 94 267 94 240 78 c 128,-1,20
 213 62 213 62 184 46 c 128,-1,21
 155 30 155 30 121.5 12.5 c 128,-1,22
 88 -5 88 -5 47 -26 c 1,23,24
 49 -17 49 -17 48.5 -12.5 c 128,-1,25
 48 -8 48 -8 47 -4.5 c 128,-1,26
 46 -1 46 -1 45.5 3 c 128,-1,27
 45 7 45 7 47 16 c 1,28,29
 97 48 97 48 134.5 72.5 c 128,-1,30
 172 97 172 97 207 120 c 128,-1,31
 242 143 242 143 280.5 169 c 128,-1,32
 319 195 319 195 372 230 c 1,0,1
EndSplineSet
Validated: 1
EndChar

StartChar: question
Encoding: 63 63 48
Width: 339
Flags: W
LayerCount: 2
Fore
SplineSet
170 40 m 0,0,1
 164 14 164 14 141.5 -3 c 128,-1,2
 119 -20 119 -20 96 -15 c 0,3,4
 74 -13 74 -13 66.5 4.5 c 128,-1,5
 59 22 59 22 65 44 c 0,6,7
 71 70 71 70 88.5 86.5 c 128,-1,8
 106 103 106 103 132 103 c 0,9,10
 156 103 156 103 165.5 83.5 c 128,-1,11
 175 64 175 64 170 40 c 0,0,1
415 479 m 0,12,13
 406 440 406 440 387.5 413.5 c 128,-1,14
 369 387 369 387 346 368 c 128,-1,15
 323 349 323 349 297 336 c 128,-1,16
 271 323 271 323 248 311 c 128,-1,17
 225 299 225 299 207 286 c 128,-1,18
 189 273 189 273 180 255 c 0,19,20
 176 252 176 252 172 239 c 2,21,-1
 166 212 l 2,22,23
 163 199 163 199 157.5 187 c 128,-1,24
 152 175 152 175 140 174 c 0,25,26
 129 177 129 177 131 190 c 0,27,28
 131 194 131 194 131.5 199 c 128,-1,29
 132 204 132 204 133 210 c 2,30,-1
 139 237 l 2,31,32
 142 251 142 251 146 263 c 128,-1,33
 150 275 150 275 152 284 c 0,34,35
 156 303 156 303 158.5 317 c 128,-1,36
 161 331 161 331 163.5 341 c 128,-1,37
 166 351 166 351 170 358 c 128,-1,38
 174 365 174 365 181 370 c 0,39,40
 210 381 210 381 239.5 395 c 128,-1,41
 269 409 269 409 296.5 427.5 c 128,-1,42
 324 446 324 446 343 472 c 128,-1,43
 362 498 362 498 371 534 c 0,44,45
 377 559 377 559 374.5 582 c 128,-1,46
 372 605 372 605 361.5 624 c 128,-1,47
 351 643 351 643 334 655 c 128,-1,48
 317 667 317 667 293 667 c 0,49,50
 277 667 277 667 259.5 660.5 c 128,-1,51
 242 654 242 654 225 654 c 256,52,53
 209 654 209 654 199.5 665 c 128,-1,54
 190 676 190 676 195 693 c 0,55,56
 198 708 198 708 206 717.5 c 128,-1,57
 214 727 214 727 225 732.5 c 128,-1,58
 236 738 236 738 247.5 739.5 c 128,-1,59
 259 741 259 741 270 741 c 0,60,61
 310 741 310 741 341.5 715 c 128,-1,62
 373 689 373 689 392.5 650 c 128,-1,63
 412 611 412 611 418 565 c 128,-1,64
 424 519 424 519 415 479 c 0,12,13
EndSplineSet
Validated: 33
EndChar

StartChar: at
Encoding: 64 64 49
Width: 832
Flags: W
LayerCount: 2
Fore
SplineSet
497 93 m 0,0,1
 504 100 504 100 515 113.5 c 128,-1,2
 526 127 526 127 531 138 c 2,3,-1
 542 174 l 1,4,-1
 549 203 l 2,5,6
 551 211 551 211 552 218 c 128,-1,7
 553 225 553 225 553 230 c 1,8,9
 544 228 544 228 531.5 224.5 c 128,-1,10
 519 221 519 221 506.5 216.5 c 128,-1,11
 494 212 494 212 481.5 207.5 c 128,-1,12
 469 203 469 203 460 200 c 0,13,14
 432 190 432 190 406 170.5 c 128,-1,15
 380 151 380 151 373 119 c 0,16,17
 367 90 367 90 375 73 c 128,-1,18
 383 56 383 56 414 56 c 0,19,20
 434 56 434 56 457.5 67 c 128,-1,21
 481 78 481 78 497 93 c 0,0,1
514 81 m 1,22,23
 500 66 500 66 481.5 51.5 c 128,-1,24
 463 37 463 37 441 25 c 128,-1,25
 419 13 419 13 397 6.5 c 128,-1,26
 375 0 375 0 356 0 c 0,27,28
 308 0 308 0 295 28.5 c 128,-1,29
 282 57 282 57 292 103 c 0,30,31
 297 126 297 126 312.5 145 c 128,-1,32
 328 164 328 164 348.5 179.5 c 128,-1,33
 369 195 369 195 391 206 c 128,-1,34
 413 217 413 217 431 224 c 0,35,36
 468 237 468 237 497 247 c 128,-1,37
 526 257 526 257 563 266 c 1,38,-1
 581 341 l 2,39,40
 591 384 591 384 582 410.5 c 128,-1,41
 573 437 573 437 530 437 c 0,42,43
 501 437 501 437 482 427.5 c 128,-1,44
 463 418 463 418 449.5 404.5 c 128,-1,45
 436 391 436 391 429.5 378 c 128,-1,46
 423 365 423 365 420 357 c 0,47,48
 412 341 412 341 393.5 329 c 128,-1,49
 375 317 375 317 356 317 c 0,50,51
 346 317 346 317 346.5 327 c 128,-1,52
 347 337 347 337 349 345 c 0,53,54
 355 370 355 370 379.5 395 c 128,-1,55
 404 420 404 420 436.5 441 c 128,-1,56
 469 462 469 462 504.5 475 c 128,-1,57
 540 488 540 488 566 488 c 0,58,59
 573 488 573 488 583 486.5 c 128,-1,60
 593 485 593 485 602.5 483 c 128,-1,61
 612 481 612 481 621.5 478 c 128,-1,62
 631 475 631 475 635 472 c 0,63,64
 663 455 663 455 664 426.5 c 128,-1,65
 665 398 665 398 657 364 c 0,66,67
 647 321 647 321 636.5 278.5 c 128,-1,68
 626 236 626 236 615 193 c 2,69,-1
 608 163 l 2,70,71
 603 139 603 139 599 115 c 128,-1,72
 595 91 595 91 598 83 c 0,73,74
 600 76 600 76 607 73.5 c 128,-1,75
 614 71 614 71 622 71 c 0,76,77
 651 71 651 71 679 95.5 c 128,-1,78
 707 120 707 120 730.5 154.5 c 128,-1,79
 754 189 754 189 770.5 226 c 128,-1,80
 787 263 787 263 793 288 c 0,81,82
 808 353 808 353 797 407 c 128,-1,83
 786 461 786 461 755 500 c 128,-1,84
 724 539 724 539 676.5 560.5 c 128,-1,85
 629 582 629 582 571 582 c 0,86,87
 500 582 500 582 437 552.5 c 128,-1,88
 374 523 374 523 322.5 474 c 128,-1,89
 271 425 271 425 234.5 359.5 c 128,-1,90
 198 294 198 294 181 222 c 0,91,92
 165 151 165 151 172.5 93 c 128,-1,93
 180 35 180 35 208 -11 c 0,94,95
 240 -61 240 -61 292 -89 c 128,-1,96
 344 -117 344 -117 416 -117 c 0,97,98
 443 -117 443 -117 476 -111 c 128,-1,99
 509 -105 509 -105 543 -93.5 c 128,-1,100
 577 -82 577 -82 608 -65 c 128,-1,101
 639 -48 639 -48 663 -26 c 1,102,103
 673 -29 673 -29 682.5 -32 c 128,-1,104
 692 -35 692 -35 702 -37 c 1,105,106
 632 -102 632 -102 555 -135 c 128,-1,107
 478 -168 478 -168 397 -168 c 0,108,109
 338 -168 338 -168 287 -150 c 128,-1,110
 236 -132 236 -132 197 -98.5 c 128,-1,111
 158 -65 158 -65 131.5 -17 c 128,-1,112
 105 31 105 31 99 91 c 0,113,114
 95 126 95 126 98.5 163 c 128,-1,115
 102 200 102 200 111 237 c 0,116,117
 129 317 129 317 176.5 390 c 128,-1,118
 224 463 224 463 292 518 c 256,119,120
 359 573 359 573 433.5 600.5 c 128,-1,121
 508 628 508 628 582 628 c 0,122,123
 629 628 629 628 673 615 c 128,-1,124
 717 602 717 602 752 576.5 c 128,-1,125
 787 551 787 551 813 514 c 128,-1,126
 839 477 839 477 847 429 c 0,127,128
 853 397 853 397 853 364 c 128,-1,129
 853 331 853 331 845 296 c 0,130,131
 835 251 835 251 811 204.5 c 128,-1,132
 787 158 787 158 754.5 117.5 c 128,-1,133
 722 77 722 77 681 47.5 c 128,-1,134
 640 18 640 18 595 9 c 0,135,136
 590 8 590 8 584.5 7.5 c 128,-1,137
 579 7 579 7 573 7 c 0,138,139
 541 7 541 7 528.5 28.5 c 128,-1,140
 516 50 516 50 515 81 c 1,141,-1
 514 81 l 1,22,23
EndSplineSet
Validated: 33
EndChar

StartChar: A
Encoding: 65 65 50
Width: 740
Flags: W
LayerCount: 2
Fore
SplineSet
12 11 m 0,0,1
 15 24 15 24 23.5 28.5 c 128,-1,2
 32 33 32 33 43.5 35 c 128,-1,3
 55 37 55 37 68 41 c 128,-1,4
 81 45 81 45 92 59 c 0,5,6
 96 63 96 63 105 77 c 128,-1,7
 114 91 114 91 124 106.5 c 128,-1,8
 134 122 134 122 142.5 137 c 128,-1,9
 151 152 151 152 156 159 c 0,10,11
 189 214 189 214 221.5 268 c 128,-1,12
 254 322 254 322 288 377 c 0,13,14
 344 470 344 470 401 562 c 128,-1,15
 458 654 458 654 514 748 c 0,16,17
 517 754 517 754 520.5 757.5 c 128,-1,18
 524 761 524 761 531 761 c 0,19,20
 538 761 538 761 541 755.5 c 128,-1,21
 544 750 544 750 544 744 c 0,22,23
 552 686 552 686 561 625.5 c 128,-1,24
 570 565 570 565 579 507 c 0,25,26
 593 395 593 395 611.5 285.5 c 128,-1,27
 630 176 630 176 653 68 c 0,28,29
 657 49 657 49 671.5 42.5 c 128,-1,30
 686 36 686 36 700.5 33 c 128,-1,31
 715 30 715 30 725.5 26.5 c 128,-1,32
 736 23 736 23 733 9 c 0,33,34
 731 0 731 0 720.5 -3.5 c 128,-1,35
 710 -7 710 -7 700 -7 c 2,36,-1
 689 -7 l 2,37,38
 666 -7 666 -7 644.5 -4 c 128,-1,39
 623 -1 623 -1 599 -1 c 0,40,41
 565 -1 565 -1 532 -4 c 128,-1,42
 499 -7 499 -7 466 -7 c 0,43,44
 458 -7 458 -7 452 -1 c 128,-1,45
 446 5 446 5 449 14 c 0,46,47
 452 25 452 25 465.5 27.5 c 128,-1,48
 479 30 479 30 496 31 c 128,-1,49
 513 32 513 32 527.5 36 c 128,-1,50
 542 40 542 40 546 57 c 0,51,52
 547 60 547 60 546.5 64 c 128,-1,53
 546 68 546 68 546 71 c 0,54,55
 546 81 546 81 543 102 c 128,-1,56
 540 123 540 123 535.5 151.5 c 128,-1,57
 531 180 531 180 526 215 c 128,-1,58
 521 250 521 250 515 287 c 0,59,60
 513 297 513 297 511.5 305 c 128,-1,61
 510 313 510 313 509 315 c 0,62,63
 503 323 503 323 488 325 c 128,-1,64
 473 327 473 327 457 327 c 2,65,-1
 439 327 l 2,66,67
 428 327 428 327 409.5 327.5 c 128,-1,68
 391 328 391 328 371 328 c 0,69,70
 352 328 352 328 333 327 c 128,-1,71
 314 326 314 326 301 323 c 1,72,73
 274 280 274 280 249 237.5 c 128,-1,74
 224 195 224 195 205.5 160 c 128,-1,75
 187 125 187 125 176 101.5 c 128,-1,76
 165 78 165 78 163 73 c 0,77,78
 158 51 158 51 172 45 c 128,-1,79
 186 39 186 39 204 37 c 128,-1,80
 222 35 222 35 236.5 31.5 c 128,-1,81
 251 28 251 28 248 12 c 0,82,83
 246 4 246 4 238.5 -1.5 c 128,-1,84
 231 -7 231 -7 224 -7 c 0,85,86
 193 -7 193 -7 162.5 -3.5 c 128,-1,87
 132 0 132 0 101 0 c 0,88,89
 79 0 79 0 61 -2.5 c 128,-1,90
 43 -5 43 -5 22 -5 c 0,91,92
 15 -5 15 -5 13 0 c 128,-1,93
 11 5 11 5 12 11 c 0,0,1
481 614 m 1,94,95
 461 581 461 581 445.5 557.5 c 128,-1,96
 430 534 430 534 414.5 508 c 128,-1,97
 399 482 399 482 379.5 450.5 c 128,-1,98
 360 419 360 419 330 370 c 1,99,-1
 355 370 l 2,100,101
 371 370 371 370 404 370.5 c 128,-1,102
 437 371 437 371 498 371 c 1,103,104
 498 372 498 372 501.5 372.5 c 128,-1,105
 505 373 505 373 507 374 c 0,106,107
 503 410 503 410 499 450 c 128,-1,108
 495 490 495 490 491.5 525.5 c 128,-1,109
 488 561 488 561 485.5 585.5 c 128,-1,110
 483 610 483 610 481 614 c 1,94,95
EndSplineSet
Validated: 1
Substitution2: "'c2sc' Versalien in Kapit+AOQA-lchen in Lateinisch Nachschlagetabelle 0 Subtabelle" uni1D00
EndChar

StartChar: B
Encoding: 66 66 51
Width: 654
Flags: W
LayerCount: 2
Fore
SplineSet
597 570 m 0,0,1
 612 639 612 639 581 675 c 128,-1,2
 550 711 550 711 489 711 c 2,3,-1
 476 711 l 2,4,5
 466 711 466 711 453 710.5 c 128,-1,6
 440 710 440 710 427.5 706 c 128,-1,7
 415 702 415 702 404.5 695 c 128,-1,8
 394 688 394 688 389 675 c 0,9,10
 385 664 385 664 382 652 c 128,-1,11
 379 640 379 640 376 629 c 2,12,-1
 331 433 l 2,13,14
 330 428 330 428 336 422 c 128,-1,15
 342 416 342 416 358 416 c 2,16,-1
 390 416 l 2,17,18
 424 416 424 416 457 424 c 128,-1,19
 490 432 490 432 518 450.5 c 128,-1,20
 546 469 546 469 567 498.5 c 128,-1,21
 588 528 588 528 597 570 c 0,0,1
557 206 m 0,22,23
 568 254 568 254 556 292 c 0,24,25
 546 324 546 324 526 341.5 c 128,-1,26
 506 359 506 359 480 368.5 c 128,-1,27
 454 378 454 378 423 380 c 128,-1,28
 392 382 392 382 361 382 c 2,29,-1
 345 382 l 2,30,31
 335 382 335 382 324.5 377 c 128,-1,32
 314 372 314 372 311 356 c 2,33,-1
 263 147 l 2,34,35
 258 123 258 123 255 98 c 128,-1,36
 252 73 252 73 266 55 c 0,37,38
 278 41 278 41 302.5 38 c 128,-1,39
 327 35 327 35 345 35 c 0,40,41
 433 35 433 35 486.5 82.5 c 128,-1,42
 540 130 540 130 557 206 c 0,22,23
659 216 m 0,43,44
 646 159 646 159 617 117.5 c 128,-1,45
 588 76 588 76 549 49 c 128,-1,46
 510 22 510 22 463 8.5 c 128,-1,47
 416 -5 416 -5 367 -6 c 0,48,49
 362 -7 362 -7 357 -7 c 256,50,51
 353 -7 353 -7 349 -7 c 2,52,-1
 69 -7 l 2,53,54
 59 -7 59 -7 45.5 -4.5 c 128,-1,55
 32 -2 32 -2 36 13 c 0,56,57
 38 23 38 23 53.5 26 c 128,-1,58
 69 29 69 29 87.5 32 c 128,-1,59
 106 35 106 35 124 42 c 128,-1,60
 142 49 142 49 148 67 c 0,61,62
 149 69 149 69 158 99.5 c 128,-1,63
 167 130 167 130 178 178.5 c 128,-1,64
 189 227 189 227 204.5 288 c 128,-1,65
 220 349 220 349 235 412.5 c 128,-1,66
 250 476 250 476 264 537 c 256,67,68
 278 597 278 597 289 643 c 0,69,70
 293 662 293 662 292 674 c 128,-1,71
 291 686 291 686 285 692 c 128,-1,72
 279 698 279 698 267.5 700.5 c 128,-1,73
 256 703 256 703 241 706 c 0,74,75
 238 706 238 706 231.5 707 c 128,-1,76
 225 708 225 708 220 710 c 128,-1,77
 215 712 215 712 211 715 c 128,-1,78
 207 718 207 718 208 722 c 0,79,80
 210 732 210 732 222 736 c 128,-1,81
 234 740 234 740 251 741 c 128,-1,82
 268 742 268 742 285.5 741 c 128,-1,83
 303 740 303 740 315 740 c 0,84,85
 358 740 358 740 401 744.5 c 128,-1,86
 444 749 444 749 488 749 c 0,87,88
 527 749 527 749 567.5 739.5 c 128,-1,89
 608 730 608 730 639 709 c 128,-1,90
 670 688 670 688 684.5 653 c 128,-1,91
 699 618 699 618 687 568 c 0,92,93
 674 510 674 510 632 472.5 c 128,-1,94
 590 435 590 435 538 418 c 1,95,96
 542 414 542 414 555 409 c 128,-1,97
 568 404 568 404 574 401 c 0,98,99
 625 377 625 377 649.5 330.5 c 128,-1,100
 674 284 674 284 659 216 c 0,43,44
EndSplineSet
Validated: 33
Substitution2: "'c2sc' Versalien in Kapit+AOQA-lchen in Lateinisch Nachschlagetabelle 0 Subtabelle" uni0299
EndChar

StartChar: C
Encoding: 67 67 52
Width: 690
Flags: W
LayerCount: 2
Fore
SplineSet
812 776 m 0,0,1
 819 776 819 776 818.5 766 c 128,-1,2
 818 756 818 756 815 741 c 256,3,4
 812 727 812 727 807 711.5 c 128,-1,5
 802 696 802 696 799 685 c 0,6,7
 793 658 793 658 785.5 631.5 c 128,-1,8
 778 605 778 605 770 579 c 0,9,10
 766 570 766 570 762.5 566.5 c 128,-1,11
 759 563 759 563 756 563 c 256,12,13
 752 563 752 563 748.5 564 c 128,-1,14
 745 565 745 565 742 565 c 0,15,16
 736 565 736 565 734.5 574.5 c 128,-1,17
 733 584 733 584 733 596.5 c 128,-1,18
 733 609 733 609 733 623 c 128,-1,19
 733 637 733 637 730 647 c 0,20,21
 707 683 707 683 667.5 702 c 128,-1,22
 628 721 628 721 582 721 c 0,23,24
 516 721 516 721 463 693.5 c 128,-1,25
 410 666 410 666 370 619.5 c 128,-1,26
 330 573 330 573 301.5 512.5 c 128,-1,27
 273 452 273 452 258 386 c 0,28,29
 242 315 242 315 240.5 248.5 c 128,-1,30
 239 182 239 182 257.5 130.5 c 128,-1,31
 276 79 276 79 317 47 c 128,-1,32
 358 15 358 15 428 15 c 0,33,34
 451 15 451 15 477 21 c 128,-1,35
 503 27 503 27 529 37.5 c 128,-1,36
 555 48 555 48 579 63.5 c 128,-1,37
 603 79 603 79 623 99 c 0,38,39
 629 106 629 106 638 118.5 c 128,-1,40
 647 131 647 131 656.5 143.5 c 128,-1,41
 666 156 666 156 674 165 c 128,-1,42
 682 174 682 174 686 174 c 0,43,44
 696 174 696 174 699.5 170 c 128,-1,45
 703 166 703 166 701 155 c 0,46,47
 699 147 699 147 692.5 128.5 c 128,-1,48
 686 110 686 110 677.5 90 c 128,-1,49
 669 70 669 70 660.5 53.5 c 128,-1,50
 652 37 652 37 646 32 c 0,51,52
 627 17 627 17 597.5 6 c 128,-1,53
 568 -5 568 -5 536 -12 c 128,-1,54
 504 -19 504 -19 471 -22.5 c 128,-1,55
 438 -26 438 -26 413 -26 c 0,56,57
 329 -26 329 -26 269.5 7.5 c 128,-1,58
 210 41 210 41 176 97.5 c 128,-1,59
 142 154 142 154 134 228.5 c 128,-1,60
 126 303 126 303 144 385 c 0,61,62
 164 474 164 474 207 543 c 128,-1,63
 250 612 250 612 307 660 c 128,-1,64
 364 708 364 708 434.5 732.5 c 128,-1,65
 505 757 505 757 582 757 c 0,66,67
 615 757 615 757 645.5 753 c 128,-1,68
 676 749 676 749 707 741 c 0,69,70
 714 739 714 739 723 735.5 c 128,-1,71
 732 732 732 732 742 729 c 0,72,73
 747 723 747 723 753.5 729.5 c 128,-1,74
 760 736 760 736 768 746.5 c 128,-1,75
 776 757 776 757 787 766.5 c 128,-1,76
 798 776 798 776 812 776 c 0,0,1
EndSplineSet
Validated: 33
Substitution2: "'c2sc' Versalien in Kapit+AOQA-lchen in Lateinisch Nachschlagetabelle 0 Subtabelle" uni1D04
EndChar

StartChar: D
Encoding: 68 68 53
Width: 790
Flags: W
LayerCount: 2
Fore
SplineSet
712 368 m 0,0,1
 741 492 741 492 702.5 579.5 c 128,-1,2
 664 667 664 667 559 702 c 0,3,4
 541 708 541 708 521 713 c 128,-1,5
 501 718 501 718 479 718 c 2,6,-1
 453 718 l 1,7,8
 454 718 454 718 447.5 717.5 c 128,-1,9
 441 717 441 717 431.5 714 c 128,-1,10
 422 711 422 711 411.5 704 c 128,-1,11
 401 697 401 697 393 685 c 0,12,13
 388 675 388 675 385 665 c 128,-1,14
 382 655 382 655 380 645 c 0,15,16
 374 618 374 618 367.5 590.5 c 128,-1,17
 361 563 361 563 355 537 c 0,18,19
 335 447 335 447 313.5 358 c 128,-1,20
 292 269 292 269 271 179 c 0,21,22
 261 134 261 134 259 104.5 c 128,-1,23
 257 75 257 75 265 57.5 c 128,-1,24
 273 40 273 40 289.5 33 c 128,-1,25
 306 26 306 26 332 26 c 0,26,27
 399 26 399 26 460.5 52.5 c 128,-1,28
 522 79 522 79 572.5 125.5 c 128,-1,29
 623 172 623 172 659.5 234.5 c 128,-1,30
 696 297 696 297 712 368 c 0,0,1
818 360 m 0,31,32
 798 272 798 272 748 203.5 c 128,-1,33
 698 135 698 135 631 88 c 128,-1,34
 564 41 564 41 486 16.5 c 128,-1,35
 408 -8 408 -8 333 -8 c 0,36,37
 310 -8 310 -8 295.5 -7 c 128,-1,38
 281 -6 281 -6 268 -5 c 128,-1,39
 255 -4 255 -4 240 -3 c 128,-1,40
 225 -2 225 -2 203 -2 c 0,41,42
 163 -2 163 -2 125.5 -4.5 c 128,-1,43
 88 -7 88 -7 48 -7 c 0,44,45
 40 -7 40 -7 42 2 c 0,46,47
 44 12 44 12 50.5 17.5 c 128,-1,48
 57 23 57 23 65 26 c 128,-1,49
 73 29 73 29 81 30 c 128,-1,50
 89 31 89 31 96 33 c 0,51,52
 128 40 128 40 139 55 c 128,-1,53
 150 70 150 70 159 100 c 0,54,55
 162 110 162 110 165.5 123.5 c 128,-1,56
 169 137 169 137 174.5 160 c 128,-1,57
 180 183 180 183 189.5 220 c 128,-1,58
 199 257 199 257 212 316 c 2,59,-1
 267 555 l 2,60,61
 271 571 271 571 275.5 590.5 c 128,-1,62
 280 610 280 610 283 628 c 128,-1,63
 286 646 286 646 287.5 660 c 128,-1,64
 289 674 289 674 289 679 c 0,65,66
 286 694 286 694 272.5 697.5 c 128,-1,67
 259 701 259 701 245 701 c 0,68,69
 238 701 238 701 230 700.5 c 128,-1,70
 222 700 222 700 214 700 c 0,71,72
 206 700 206 700 200 706 c 0,73,74
 196 710 196 710 199 718 c 128,-1,75
 202 726 202 726 207 730 c 256,76,77
 212 734 212 734 231.5 737.5 c 128,-1,78
 251 741 251 741 279 743.5 c 128,-1,79
 307 746 307 746 338.5 748 c 128,-1,80
 370 750 370 750 399 751 c 128,-1,81
 428 752 428 752 451 752.5 c 128,-1,82
 474 753 474 753 483 753 c 0,83,84
 578 753 578 753 651 726 c 128,-1,85
 724 699 724 699 768 648.5 c 128,-1,86
 812 598 812 598 826 525 c 128,-1,87
 840 452 840 452 818 360 c 0,31,32
EndSplineSet
Validated: 33
Substitution2: "'c2sc' Versalien in Kapit+AOQA-lchen in Lateinisch Nachschlagetabelle 0 Subtabelle" uni1D05
EndChar

StartChar: E
Encoding: 69 69 54
Width: 637
Flags: W
LayerCount: 2
Fore
SplineSet
668 582 m 0,0,1
 659 582 659 582 655.5 594.5 c 128,-1,2
 652 607 652 607 650.5 624.5 c 128,-1,3
 649 642 649 642 646 659 c 128,-1,4
 643 676 643 676 632 684 c 0,5,6
 625 689 625 689 609 692.5 c 128,-1,7
 593 696 593 696 573.5 698 c 128,-1,8
 554 700 554 700 533 700.5 c 128,-1,9
 512 701 512 701 493 701 c 2,10,-1
 451 701 l 2,11,12
 429 701 429 701 415 691.5 c 128,-1,13
 401 682 401 682 392.5 666.5 c 128,-1,14
 384 651 384 651 379 632 c 128,-1,15
 374 613 374 613 370 596 c 0,16,17
 362 561 362 561 354 526.5 c 128,-1,18
 346 492 346 492 338 457 c 2,19,-1
 333 433 l 2,20,21
 330 420 330 420 330 412 c 0,22,23
 333 407 333 407 339.5 404.5 c 128,-1,24
 346 402 346 402 355.5 401.5 c 128,-1,25
 365 401 365 401 373.5 401.5 c 128,-1,26
 382 402 382 402 387 402 c 0,27,28
 413 402 413 402 440 402.5 c 128,-1,29
 467 403 467 403 494 408 c 0,30,31
 524 413 524 413 540.5 433.5 c 128,-1,32
 557 454 557 454 566 483 c 0,33,34
 570 489 570 489 575 495 c 128,-1,35
 580 501 580 501 587 501 c 0,36,37
 597 501 597 501 596 490.5 c 128,-1,38
 595 480 595 480 592 469 c 0,39,40
 587 447 587 447 581 425.5 c 128,-1,41
 575 404 575 404 570 383 c 256,42,43
 565 361 565 361 561.5 340 c 128,-1,44
 558 319 558 319 553 298 c 0,45,46
 552 293 552 293 550.5 285.5 c 128,-1,47
 549 278 549 278 546.5 270.5 c 128,-1,48
 544 263 544 263 539.5 258.5 c 128,-1,49
 535 254 535 254 528 254 c 256,50,51
 521 254 521 254 519.5 263 c 128,-1,52
 518 272 518 272 518.5 284 c 128,-1,53
 519 296 519 296 519.5 307.5 c 128,-1,54
 520 319 520 319 519 325 c 0,55,56
 520 344 520 344 506.5 354 c 128,-1,57
 493 364 493 364 472.5 367.5 c 128,-1,58
 452 371 452 371 428 370.5 c 128,-1,59
 404 370 404 370 386 370 c 0,60,61
 381 370 381 370 374 369.5 c 128,-1,62
 367 369 367 369 358 368.5 c 128,-1,63
 349 368 349 368 340.5 367 c 128,-1,64
 332 366 332 366 328 365 c 0,65,66
 322 364 322 364 318 355.5 c 128,-1,67
 314 347 314 347 311 337 c 128,-1,68
 308 327 308 327 306 316.5 c 128,-1,69
 304 306 304 306 303 302 c 2,70,-1
 266 140 l 2,71,72
 263 129 263 129 260.5 115 c 128,-1,73
 258 101 258 101 257 87.5 c 128,-1,74
 256 74 256 74 258.5 62 c 128,-1,75
 261 50 261 50 270 44 c 0,76,77
 277 40 277 40 295.5 37.5 c 128,-1,78
 314 35 314 35 335 34 c 128,-1,79
 356 33 356 33 376 32.5 c 128,-1,80
 396 32 396 32 404 32 c 2,81,-1
 434 32 l 2,82,83
 446 32 446 32 461.5 33 c 128,-1,84
 477 34 477 34 491.5 35.5 c 128,-1,85
 506 37 506 37 518.5 40 c 128,-1,86
 531 43 531 43 540 48 c 0,87,88
 555 57 555 57 571 76.5 c 128,-1,89
 587 96 587 96 601.5 115.5 c 128,-1,90
 616 135 616 135 628.5 150 c 128,-1,91
 641 165 641 165 649 165 c 0,92,93
 660 165 660 165 659.5 156.5 c 128,-1,94
 659 148 659 148 653 140 c 0,95,96
 653 139 653 139 649 130 c 128,-1,97
 645 121 645 121 644 119 c 0,98,99
 642 116 642 116 634.5 98 c 128,-1,100
 627 80 627 80 617.5 60 c 128,-1,101
 608 40 608 40 601 23.5 c 128,-1,102
 594 7 594 7 594 7 c 1,103,104
 584 -5 584 -5 567 -5 c 2,105,-1
 118 -5 l 2,106,107
 105 -5 105 -5 91 -6 c 128,-1,108
 77 -7 77 -7 62 -7 c 0,109,110
 52 -7 52 -7 42 -6 c 128,-1,111
 32 -5 32 -5 35 10 c 0,112,113
 37 18 37 18 49.5 22.5 c 128,-1,114
 62 27 62 27 79.5 31 c 128,-1,115
 97 35 97 35 115 41.5 c 128,-1,116
 133 48 133 48 144 61 c 0,117,118
 154 73 154 73 164 101 c 128,-1,119
 174 129 174 129 181 162 c 0,120,121
 189 196 189 196 196 230 c 128,-1,122
 203 264 203 264 209 290 c 0,123,124
 228 373 228 373 246 455 c 128,-1,125
 264 537 264 537 284 620 c 2,126,-1
 288 638 l 2,127,128
 289 643 289 643 290 647 c 256,129,130
 291 651 291 651 291 656 c 0,131,132
 295 683 295 683 281 691.5 c 128,-1,133
 267 700 267 700 249 703 c 128,-1,134
 231 706 231 706 217.5 708.5 c 128,-1,135
 204 711 204 711 207 724 c 0,136,137
 209 733 209 733 217.5 736.5 c 128,-1,138
 226 740 226 740 237.5 741.5 c 128,-1,139
 249 743 249 743 261 742.5 c 128,-1,140
 273 742 273 742 282 742 c 0,141,142
 315 742 315 742 347 740.5 c 128,-1,143
 379 739 379 739 412 739 c 0,144,145
 478 739 478 739 541.5 740.5 c 128,-1,146
 605 742 605 742 671 742 c 2,147,-1
 681 742 l 2,148,149
 691 742 691 742 701.5 740 c 128,-1,150
 712 738 712 738 712 730 c 0,151,152
 711 710 711 710 707 692 c 0,153,154
 705 683 705 683 701 670 c 128,-1,155
 697 657 697 657 693 639 c 0,156,157
 688 619 688 619 682 601 c 128,-1,158
 676 583 676 583 668 582 c 0,0,1
EndSplineSet
Validated: 33
Substitution2: "'c2sc' Versalien in Kapit+AOQA-lchen in Lateinisch Nachschlagetabelle 0 Subtabelle" uni1D07
EndChar

StartChar: F
Encoding: 70 70 55
Width: 577
Flags: W
LayerCount: 2
Fore
SplineSet
204 720 m 0,0,1
 205 726 205 726 208 730 c 128,-1,2
 211 734 211 734 218.5 736.5 c 128,-1,3
 226 739 226 739 240 739.5 c 128,-1,4
 254 740 254 740 279 740 c 0,5,6
 302 740 302 740 322 739.5 c 128,-1,7
 342 739 342 739 350 739 c 2,8,-1
 498 739 l 2,9,10
 542 739 542 739 585 739.5 c 128,-1,11
 628 740 628 740 671 740 c 2,12,-1
 692 740 l 2,13,14
 699 740 699 740 705 739.5 c 128,-1,15
 711 739 711 739 713 739 c 0,16,17
 717 738 717 738 715.5 722.5 c 128,-1,18
 714 707 714 707 710 687 c 128,-1,19
 706 667 706 667 700.5 647.5 c 128,-1,20
 695 628 695 628 693 620 c 0,21,22
 692 614 692 614 690 606 c 256,23,24
 688 599 688 599 686 593 c 128,-1,25
 684 587 684 587 680.5 583 c 128,-1,26
 677 579 677 579 671 579 c 0,27,28
 657 579 657 579 656 593 c 128,-1,29
 655 607 655 607 656 626 c 128,-1,30
 657 645 657 645 653.5 664 c 128,-1,31
 650 683 650 683 631 691 c 0,32,33
 623 695 623 695 606 697 c 128,-1,34
 589 699 589 699 571 700.5 c 128,-1,35
 553 702 553 702 535.5 702.5 c 128,-1,36
 518 703 518 703 507 703 c 2,37,-1
 486 703 l 2,38,39
 467 703 467 703 444 700 c 128,-1,40
 421 697 421 697 411 691 c 0,41,42
 391 679 391 679 384 661 c 128,-1,43
 377 643 377 643 373 623 c 0,44,45
 363 577 363 577 352.5 530.5 c 128,-1,46
 342 484 342 484 331 438 c 0,47,48
 327 422 327 422 329.5 414.5 c 128,-1,49
 332 407 332 407 338.5 404 c 128,-1,50
 345 401 345 401 354.5 401.5 c 128,-1,51
 364 402 364 402 374 402 c 2,52,-1
 409 402 l 2,53,54
 425 402 425 402 443 402.5 c 128,-1,55
 461 403 461 403 478.5 406 c 128,-1,56
 496 409 496 409 509.5 413 c 128,-1,57
 523 417 523 417 531 424 c 0,58,59
 543 434 543 434 550.5 448.5 c 128,-1,60
 558 463 558 463 564 475 c 128,-1,61
 570 487 570 487 577 496 c 128,-1,62
 584 505 584 505 595 505 c 0,63,64
 602 505 602 505 601 495.5 c 128,-1,65
 600 486 600 486 599 481 c 0,66,67
 594 458 594 458 588 437 c 128,-1,68
 582 416 582 416 577 393 c 256,69,70
 572 370 572 370 568 349 c 128,-1,71
 564 328 564 328 559 305 c 0,72,73
 558 299 558 299 556.5 291.5 c 128,-1,74
 555 284 555 284 552 276 c 128,-1,75
 549 268 549 268 544.5 263 c 128,-1,76
 540 258 540 258 534 258 c 0,77,78
 525 258 525 258 523.5 272.5 c 128,-1,79
 522 287 522 287 521.5 305 c 128,-1,80
 521 323 521 323 515.5 340 c 128,-1,81
 510 357 510 357 490 364 c 0,82,83
 478 369 478 369 452 370.5 c 128,-1,84
 426 372 426 372 404 372 c 2,85,-1
 379 372 l 2,86,87
 372 372 372 372 361.5 372.5 c 128,-1,88
 351 373 351 373 341 371.5 c 128,-1,89
 331 370 331 370 322 364.5 c 128,-1,90
 313 359 313 359 311 349 c 0,91,92
 301 303 301 303 289.5 258 c 128,-1,93
 278 213 278 213 267 167 c 2,94,-1
 262 145 l 2,95,96
 260 135 260 135 257 122 c 0,97,98
 254 110 254 110 252.5 98 c 128,-1,99
 251 86 251 86 249 77 c 128,-1,100
 247 68 247 68 249 65 c 0,101,102
 253 46 253 46 270 39.5 c 128,-1,103
 287 33 287 33 305.5 31 c 128,-1,104
 324 29 324 29 337.5 25.5 c 128,-1,105
 351 22 351 22 347 7 c 0,106,107
 345 -2 345 -2 335.5 -5.5 c 128,-1,108
 326 -9 326 -9 316 -9 c 2,109,-1
 306 -9 l 2,110,111
 271 -9 271 -9 237 -5.5 c 128,-1,112
 203 -2 203 -2 167 -2 c 0,113,114
 139 -2 139 -2 112.5 -5.5 c 128,-1,115
 86 -9 86 -9 59 -9 c 0,116,117
 52 -9 52 -9 41.5 -7.5 c 128,-1,118
 31 -6 31 -6 34 5 c 0,119,120
 36 13 36 13 45.5 18 c 128,-1,121
 55 23 55 23 67 25 c 128,-1,122
 79 27 79 27 91 28.5 c 128,-1,123
 103 30 103 30 110 32 c 0,124,125
 132 36 132 36 143 56 c 0,126,127
 147 62 147 62 153.5 78.5 c 128,-1,128
 160 95 160 95 165.5 116 c 128,-1,129
 171 137 171 137 176.5 159 c 128,-1,130
 182 181 182 181 186 200 c 2,131,-1
 196 238 l 2,132,133
 220 340 220 340 241 439.5 c 128,-1,134
 262 539 262 539 286 641 c 0,135,136
 292 666 292 666 287 678.5 c 128,-1,137
 282 691 282 691 272 696.5 c 128,-1,138
 262 702 262 702 250 703.5 c 128,-1,139
 238 705 238 705 226.5 705.5 c 128,-1,140
 215 706 215 706 208.5 708.5 c 128,-1,141
 202 711 202 711 204 720 c 0,0,1
EndSplineSet
Validated: 33
Substitution2: "'c2sc' Versalien in Kapit+AOQA-lchen in Lateinisch Nachschlagetabelle 0 Subtabelle" uniA730
EndChar

StartChar: G
Encoding: 71 71 56
Width: 764
Flags: W
LayerCount: 2
Fore
SplineSet
810 757 m 0,0,1
 817 757 817 757 816 746.5 c 128,-1,2
 815 736 815 736 812 722 c 256,3,4
 809 708 809 708 804 692.5 c 128,-1,5
 799 677 799 677 797 666 c 0,6,7
 791 639 791 639 783.5 612.5 c 128,-1,8
 776 586 776 586 768 559 c 0,9,10
 764 550 764 550 760.5 547 c 128,-1,11
 757 544 757 544 753 544 c 256,12,13
 749 544 749 544 745.5 545 c 128,-1,14
 742 546 742 546 740 546 c 0,15,16
 734 546 734 546 731.5 554 c 128,-1,17
 729 562 729 562 728.5 574.5 c 128,-1,18
 728 587 728 587 728.5 600.5 c 128,-1,19
 729 614 729 614 728 626 c 0,20,21
 724 648 724 648 710 665 c 128,-1,22
 696 682 696 682 675 694.5 c 128,-1,23
 654 707 654 707 629 713.5 c 128,-1,24
 604 720 604 720 579 720 c 0,25,26
 508 720 508 720 455 691 c 128,-1,27
 402 662 402 662 363.5 613.5 c 128,-1,28
 325 565 325 565 299 503 c 128,-1,29
 273 441 273 441 258 377 c 0,30,31
 243 309 243 309 241 247 c 128,-1,32
 239 185 239 185 255.5 137.5 c 128,-1,33
 272 90 272 90 308.5 62 c 128,-1,34
 345 34 345 34 408 34 c 0,35,36
 470 34 470 34 508 45.5 c 128,-1,37
 546 57 546 57 567 79 c 128,-1,38
 588 101 588 101 598 133.5 c 128,-1,39
 608 166 608 166 618 208 c 0,40,41
 631 264 631 264 636.5 296 c 128,-1,42
 642 328 642 328 638 343.5 c 128,-1,43
 634 359 634 359 619.5 363 c 128,-1,44
 605 367 605 367 579 367 c 0,45,46
 567 367 567 367 557 369 c 128,-1,47
 547 371 547 371 551 388 c 0,48,49
 553 395 553 395 559 398.5 c 128,-1,50
 565 402 565 402 572.5 404 c 128,-1,51
 580 406 580 406 587.5 406.5 c 128,-1,52
 595 407 595 407 599 407 c 0,53,54
 628 407 628 407 647 404.5 c 128,-1,55
 666 402 666 402 694 402 c 0,56,57
 726 402 726 402 750 405 c 128,-1,58
 774 408 774 408 805 408 c 0,59,60
 815 408 815 408 827 405.5 c 128,-1,61
 839 403 839 403 836 389 c 0,62,63
 834 379 834 379 824.5 376.5 c 128,-1,64
 815 374 815 374 803 373.5 c 128,-1,65
 791 373 791 373 777 371 c 128,-1,66
 763 369 763 369 751 359 c 0,67,68
 747 357 747 357 741.5 349 c 128,-1,69
 736 341 736 341 732 329 c 128,-1,70
 728 317 728 317 724 304 c 128,-1,71
 720 291 720 291 718 280 c 2,72,-1
 713 259 l 2,73,74
 710 246 710 246 705 223.5 c 128,-1,75
 700 201 700 201 695 177 c 128,-1,76
 690 153 690 153 685.5 130.5 c 128,-1,77
 681 108 681 108 678 94 c 0,78,79
 676 87 676 87 673.5 77 c 128,-1,80
 671 67 671 67 665 61 c 0,81,82
 642 37 642 37 605 24.5 c 128,-1,83
 568 12 568 12 528 5.5 c 128,-1,84
 488 -1 488 -1 451 -2.5 c 128,-1,85
 414 -4 414 -4 392 -4 c 0,86,87
 317 -4 317 -4 260 18 c 128,-1,88
 203 40 203 40 169 85 c 128,-1,89
 135 130 135 130 126.5 198.5 c 128,-1,90
 118 267 118 267 139 359 c 0,91,92
 161 452 161 452 204 526 c 128,-1,93
 247 600 247 600 306.5 651.5 c 128,-1,94
 366 703 366 703 439 730.5 c 128,-1,95
 512 758 512 758 594 758 c 0,96,97
 635 758 635 758 677.5 745.5 c 128,-1,98
 720 733 720 733 748 710 c 0,99,100
 753 705 753 705 760 711.5 c 128,-1,101
 767 718 767 718 775 728 c 128,-1,102
 783 738 783 738 792.5 747.5 c 128,-1,103
 802 757 802 757 810 757 c 0,0,1
EndSplineSet
Validated: 33
Substitution2: "'c2sc' Versalien in Kapit+AOQA-lchen in Lateinisch Nachschlagetabelle 0 Subtabelle" uni0262
EndChar

StartChar: H
Encoding: 72 72 57
Width: 822
Flags: W
LayerCount: 2
Fore
SplineSet
954 715 m 0,0,1
 950 709 950 709 938 707.5 c 128,-1,2
 926 706 926 706 911 704.5 c 128,-1,3
 896 703 896 703 881.5 700 c 128,-1,4
 867 697 867 697 858 688 c 0,5,6
 848 679 848 679 842.5 663.5 c 128,-1,7
 837 648 837 648 833 631 c 2,8,-1
 828 613 l 2,9,10
 798 484 798 484 768 357.5 c 128,-1,11
 738 231 738 231 709 102 c 0,12,13
 703 76 703 76 707.5 62.5 c 128,-1,14
 712 49 712 49 721.5 42.5 c 128,-1,15
 731 36 731 36 744 34 c 128,-1,16
 757 32 757 32 768 30 c 128,-1,17
 779 28 779 28 786 23.5 c 128,-1,18
 793 19 793 19 790 8 c 0,19,20
 787 -7 787 -7 776.5 -8 c 128,-1,21
 766 -9 766 -9 755 -9 c 0,22,23
 723 -9 723 -9 691.5 -6 c 128,-1,24
 660 -3 660 -3 629 -3 c 0,25,26
 598 -3 598 -3 567 -6 c 128,-1,27
 536 -9 536 -9 505 -9 c 0,28,29
 485 -9 485 -9 488 7 c 0,30,31
 491 22 491 22 502 25.5 c 128,-1,32
 513 29 513 29 527 29 c 256,33,34
 541 29 541 29 557.5 31.5 c 128,-1,35
 574 34 574 34 589 48 c 256,36,37
 602 62 602 62 609.5 83.5 c 128,-1,38
 617 105 617 105 622 123 c 2,39,-1
 665 309 l 2,40,41
 668 324 668 324 664 331 c 128,-1,42
 660 338 660 338 652 340 c 128,-1,43
 644 342 644 342 634 341.5 c 128,-1,44
 624 341 624 341 615 341 c 2,45,-1
 383 341 l 2,46,47
 372 341 372 341 358.5 341.5 c 128,-1,48
 345 342 345 342 333.5 339.5 c 128,-1,49
 322 337 322 337 313 330.5 c 128,-1,50
 304 324 304 324 301 308 c 2,51,-1
 255 108 l 2,52,53
 250 88 250 88 249.5 84 c 128,-1,54
 249 80 249 80 249 77 c 0,55,56
 246 49 246 49 259.5 40.5 c 128,-1,57
 273 32 273 32 290.5 30 c 128,-1,58
 308 28 308 28 322.5 26.5 c 128,-1,59
 337 25 337 25 334 10 c 0,60,61
 331 -5 331 -5 320 -6.5 c 128,-1,62
 309 -8 309 -8 297 -8 c 0,63,64
 272 -8 272 -8 247 -5.5 c 128,-1,65
 222 -3 222 -3 198 -3 c 2,66,-1
 161 -3 l 2,67,68
 135 -3 135 -3 109.5 -6 c 128,-1,69
 84 -9 84 -9 59 -9 c 0,70,71
 52 -9 52 -9 41.5 -8 c 128,-1,72
 31 -7 31 -7 34 4 c 0,73,74
 37 19 37 19 53 23 c 128,-1,75
 69 27 69 27 87 30 c 128,-1,76
 105 33 105 33 124 42.5 c 128,-1,77
 143 52 143 52 154 80 c 0,78,79
 162 103 162 103 168 126.5 c 128,-1,80
 174 150 174 150 179 172 c 2,81,-1
 283 622 l 2,82,83
 290 653 290 653 287 669 c 128,-1,84
 284 685 284 685 274 692.5 c 128,-1,85
 264 700 264 700 252 702.5 c 128,-1,86
 240 705 240 705 229 706.5 c 128,-1,87
 218 708 218 708 211.5 711.5 c 128,-1,88
 205 715 205 715 208 727 c 0,89,90
 210 736 210 736 219.5 738.5 c 128,-1,91
 229 741 229 741 239 741 c 2,92,-1
 250 741 l 2,93,94
 275 741 275 741 298.5 739.5 c 128,-1,95
 322 738 322 738 346 738 c 0,96,97
 380 738 380 738 415.5 739 c 128,-1,98
 451 740 451 740 484 740 c 0,99,100
 490 740 490 740 495 737 c 128,-1,101
 500 734 500 734 499 727 c 0,102,103
 494 707 494 707 478 704 c 128,-1,104
 462 701 462 701 443 701 c 0,105,106
 434 701 434 701 425 699 c 128,-1,107
 416 697 416 697 407 691.5 c 128,-1,108
 398 686 398 686 391.5 675.5 c 128,-1,109
 385 665 385 665 381 647 c 0,110,111
 378 633 378 633 374.5 618.5 c 128,-1,112
 371 604 371 604 367 590 c 2,113,-1
 327 416 l 2,114,115
 321 387 321 387 345 387 c 0,116,117
 385 387 385 387 415.5 386.5 c 128,-1,118
 446 386 446 386 476 386 c 256,119,120
 506 386 506 386 536.5 385.5 c 128,-1,121
 567 385 567 385 607 385 c 0,122,123
 616 385 616 385 628 384.5 c 128,-1,124
 640 384 640 384 652 384.5 c 128,-1,125
 664 385 664 385 672.5 387.5 c 128,-1,126
 681 390 681 390 684 396 c 0,127,128
 686 399 686 399 690 415 c 128,-1,129
 694 431 694 431 699 454 c 0,130,131
 704 478 704 478 711 503.5 c 128,-1,132
 718 529 718 529 723 553 c 2,133,-1
 738 620 l 2,134,135
 740 627 740 627 741.5 636.5 c 128,-1,136
 743 646 743 646 744 656 c 128,-1,137
 745 666 745 666 744 674.5 c 128,-1,138
 743 683 743 683 739 688 c 0,139,140
 734 692 734 692 726.5 694.5 c 128,-1,141
 719 697 719 697 709 698 c 128,-1,142
 699 699 699 699 692 700.5 c 128,-1,143
 685 702 685 702 683 706 c 0,144,145
 674 706 674 706 668.5 708 c 128,-1,146
 663 710 663 710 665 722 c 0,147,148
 667 730 667 730 671.5 733.5 c 128,-1,149
 676 737 676 737 683 738.5 c 128,-1,150
 690 740 690 740 697.5 739.5 c 128,-1,151
 705 739 705 739 712 739 c 0,152,153
 737 739 737 739 760 736.5 c 128,-1,154
 783 734 783 734 807 734 c 0,155,156
 837 734 837 734 866.5 736 c 128,-1,157
 896 738 896 738 926 738 c 0,158,159
 948 738 948 738 952.5 734 c 128,-1,160
 957 730 957 730 954 715 c 0,0,1
EndSplineSet
Validated: 33
Substitution2: "'c2sc' Versalien in Kapit+AOQA-lchen in Lateinisch Nachschlagetabelle 0 Subtabelle" uni029C
EndChar

StartChar: I
Encoding: 73 73 58
Width: 359
Flags: W
LayerCount: 2
Fore
SplineSet
495 723 m 0,0,1
 492 709 492 709 481 705.5 c 128,-1,2
 470 702 470 702 457 702 c 0,3,4
 431 702 431 702 415.5 698 c 128,-1,5
 400 694 400 694 391.5 685 c 128,-1,6
 383 676 383 676 379 662.5 c 128,-1,7
 375 649 375 649 371 631 c 0,8,9
 356 566 356 566 340 502.5 c 128,-1,10
 324 439 324 439 308 375 c 2,11,-1
 249 114 l 2,12,13
 245 98 245 98 242.5 77 c 128,-1,14
 240 56 240 56 249 45 c 0,15,16
 256 37 256 37 270 34 c 128,-1,17
 284 31 284 31 297 28.5 c 128,-1,18
 310 26 310 26 320 22.5 c 128,-1,19
 330 19 330 19 328 10 c 0,20,21
 325 -5 325 -5 310.5 -6.5 c 128,-1,22
 296 -8 296 -8 282 -8 c 0,23,24
 255 -8 255 -8 229 -5 c 128,-1,25
 203 -2 203 -2 176 -2 c 0,26,27
 147 -2 147 -2 123.5 -5.5 c 128,-1,28
 100 -9 100 -9 72 -9 c 2,29,-1
 58 -9 l 2,30,31
 49 -9 49 -9 40.5 -5.5 c 128,-1,32
 32 -2 32 -2 35 10 c 0,33,34
 37 19 37 19 47 23 c 128,-1,35
 57 27 57 27 71 29.5 c 128,-1,36
 85 32 85 32 100 35.5 c 128,-1,37
 115 39 115 39 127 48 c 0,38,39
 138 56 138 56 145.5 77 c 128,-1,40
 153 98 153 98 157 118 c 2,41,-1
 162 139 l 1,42,-1
 246 498 l 2,43,44
 252 525 252 525 258 550 c 128,-1,45
 264 575 264 575 270 601 c 2,46,-1
 274 621 l 2,47,48
 278 638 278 638 280.5 658.5 c 128,-1,49
 283 679 283 679 279 687 c 0,50,51
 271 698 271 698 257.5 700.5 c 128,-1,52
 244 703 244 703 230.5 704.5 c 128,-1,53
 217 706 217 706 209 710 c 128,-1,54
 201 714 201 714 205 728 c 0,55,56
 207 738 207 738 216 739.5 c 128,-1,57
 225 741 225 741 233 741 c 2,58,-1
 244 741 l 2,59,60
 272 741 272 741 299.5 738 c 128,-1,61
 327 735 327 735 353 735 c 0,62,63
 366 735 366 735 381 736.5 c 128,-1,64
 396 738 396 738 410 738 c 2,65,-1
 493 738 l 2,66,67
 494 736 494 736 495 731 c 128,-1,68
 496 726 496 726 495 723 c 0,0,1
EndSplineSet
Validated: 33
Substitution2: "'c2sc' Versalien in Kapit+AOQA-lchen in Lateinisch Nachschlagetabelle 0 Subtabelle" uni026A
EndChar

StartChar: J
Encoding: 74 74 59
Width: 338
Flags: W
LayerCount: 2
Fore
SplineSet
485 721 m 0,0,1
 484 716 484 716 477.5 711.5 c 128,-1,2
 471 707 471 707 452 705 c 0,3,4
 412 706 412 706 393.5 687.5 c 128,-1,5
 375 669 375 669 366 626 c 0,6,7
 363 615 363 615 360.5 604 c 128,-1,8
 358 593 358 593 356 582 c 0,9,10
 328 464 328 464 301 348.5 c 128,-1,11
 274 233 274 233 248 116 c 0,12,13
 235 59 235 59 211.5 -1 c 128,-1,14
 188 -61 188 -61 154 -113 c 128,-1,15
 120 -165 120 -165 72.5 -203 c 128,-1,16
 25 -241 25 -241 -39 -255 c 0,17,18
 -45 -256 -45 -256 -47 -251 c 128,-1,19
 -49 -246 -49 -246 -48 -239 c 256,20,21
 -46 -232 -46 -232 -41.5 -225 c 128,-1,22
 -37 -218 -37 -218 -31 -217 c 0,23,24
 -3 -214 -3 -214 20 -192.5 c 128,-1,25
 43 -171 43 -171 62.5 -139.5 c 128,-1,26
 82 -108 82 -108 97 -70 c 128,-1,27
 112 -32 112 -32 123 5 c 128,-1,28
 134 42 134 42 142.5 72.5 c 128,-1,29
 151 103 151 103 156 121 c 0,30,31
 171 182 171 182 185.5 243.5 c 128,-1,32
 200 305 200 305 214 367 c 2,33,-1
 271 616 l 2,34,35
 276 640 276 640 280 665 c 0,36,37
 283 689 283 689 268 694.5 c 128,-1,38
 253 700 253 700 233.5 701 c 128,-1,39
 214 702 214 702 198.5 705 c 128,-1,40
 183 708 183 708 187 724 c 0,41,42
 189 732 189 732 196 736 c 128,-1,43
 203 740 203 740 210 740 c 0,44,45
 254 740 254 740 296.5 737 c 128,-1,46
 339 734 339 734 383 734 c 0,47,48
 403 734 403 734 424.5 736.5 c 128,-1,49
 446 739 446 739 468 739 c 0,50,51
 475 739 475 739 481 735 c 128,-1,52
 487 731 487 731 485 721 c 0,0,1
EndSplineSet
Validated: 33
Substitution2: "'c2sc' Versalien in Kapit+AOQA-lchen in Lateinisch Nachschlagetabelle 0 Subtabelle" uni1D0A
EndChar

StartChar: K
Encoding: 75 75 60
Width: 760
Flags: W
LayerCount: 2
Fore
SplineSet
379 735 m 2,0,1
 401 735 401 735 422 737.5 c 128,-1,2
 443 740 443 740 466 740 c 2,3,-1
 474 740 l 2,4,5
 481 740 481 740 489.5 737 c 128,-1,6
 498 734 498 734 496 728 c 0,7,8
 493 724 493 724 490.5 718.5 c 128,-1,9
 488 713 488 713 486 710 c 0,10,11
 480 702 480 702 465.5 703.5 c 128,-1,12
 451 705 451 705 434.5 702.5 c 128,-1,13
 418 700 418 700 403.5 688 c 128,-1,14
 389 676 389 676 380 639 c 2,15,-1
 368 585 l 2,16,17
 362 560 362 560 357 537 c 128,-1,18
 352 514 352 514 346 489 c 2,19,-1
 334 435 l 2,20,21
 334 433 334 433 331 426.5 c 128,-1,22
 328 420 328 420 330 419 c 0,23,24
 340 419 340 419 352 425 c 128,-1,25
 364 431 364 431 375 439 c 128,-1,26
 386 447 386 447 396 455.5 c 128,-1,27
 406 464 406 464 412 469 c 0,28,29
 420 476 420 476 441.5 493.5 c 128,-1,30
 463 511 463 511 490 533 c 128,-1,31
 517 555 517 555 547 579.5 c 128,-1,32
 577 604 577 604 602 626 c 128,-1,33
 627 648 627 648 643.5 664.5 c 128,-1,34
 660 681 660 681 662 687 c 0,35,36
 664 697 664 697 651 699 c 128,-1,37
 638 701 638 701 622.5 701.5 c 128,-1,38
 607 702 607 702 594.5 704.5 c 128,-1,39
 582 707 582 707 584 717 c 2,40,-1
 586 725 l 1,41,42
 594 738 594 738 608.5 738.5 c 128,-1,43
 623 739 623 739 636 739 c 0,44,45
 662 739 662 739 687.5 737.5 c 128,-1,46
 713 736 713 736 739 736 c 0,47,48
 763 736 763 736 787 737.5 c 128,-1,49
 811 739 811 739 835 739 c 0,50,51
 842 739 842 739 848 735 c 128,-1,52
 854 731 854 731 852 722 c 0,53,54
 849 711 849 711 837.5 706.5 c 128,-1,55
 826 702 826 702 810.5 700 c 128,-1,56
 795 698 795 698 777.5 695.5 c 128,-1,57
 760 693 760 693 746 686 c 0,58,59
 738 682 738 682 712 663.5 c 128,-1,60
 686 645 686 645 653 620 c 128,-1,61
 620 595 620 595 582.5 566 c 128,-1,62
 545 537 545 537 513.5 511 c 128,-1,63
 482 485 482 485 460 467 c 128,-1,64
 438 449 438 449 435 443 c 0,65,66
 436 438 436 438 448 417.5 c 128,-1,67
 460 397 460 397 477 369 c 128,-1,68
 494 341 494 341 514 308.5 c 128,-1,69
 534 276 534 276 551.5 247.5 c 128,-1,70
 569 219 569 219 583.5 197 c 128,-1,71
 598 175 598 175 603 168 c 0,72,73
 614 149 614 149 626.5 126.5 c 128,-1,74
 639 104 639 104 653 85 c 128,-1,75
 667 66 667 66 683.5 51 c 128,-1,76
 700 36 700 36 723 30 c 0,77,78
 735 28 735 28 746 24 c 128,-1,79
 757 20 757 20 752 4 c 0,80,81
 749 -4 749 -4 739.5 -5.5 c 128,-1,82
 730 -7 730 -7 724 -7 c 0,83,84
 693 -7 693 -7 664.5 -4.5 c 128,-1,85
 636 -2 636 -2 605 -2 c 0,86,87
 569 -2 569 -2 531.5 -4.5 c 128,-1,88
 494 -7 494 -7 458 -7 c 0,89,90
 449 -7 449 -7 443.5 -4.5 c 128,-1,91
 438 -2 438 -2 440 10 c 0,92,93
 442 20 442 20 453.5 25.5 c 128,-1,94
 465 31 465 31 479 33 c 128,-1,95
 493 35 493 35 505 34.5 c 128,-1,96
 517 34 517 34 522 34 c 0,97,98
 529 34 529 34 537.5 37 c 128,-1,99
 546 40 546 40 541 52 c 0,100,101
 541 54 541 54 537.5 61 c 128,-1,102
 534 68 534 68 530 76 c 128,-1,103
 526 84 526 84 522.5 91 c 128,-1,104
 519 98 519 98 518 101 c 0,105,106
 511 114 511 114 497.5 138 c 128,-1,107
 484 162 484 162 468 190.5 c 128,-1,108
 452 219 452 219 434 249 c 128,-1,109
 416 279 416 279 398.5 305 c 128,-1,110
 381 331 381 331 366.5 350 c 128,-1,111
 352 369 352 369 342 375 c 1,112,113
 332 376 332 376 327.5 378 c 128,-1,114
 323 380 323 380 318 372 c 0,115,116
 316 367 316 367 312.5 354 c 128,-1,117
 309 341 309 341 306 327 c 2,118,-1
 296 281 l 2,119,120
 287 243 287 243 277.5 206 c 128,-1,121
 268 169 268 169 260 131 c 0,122,123
 257 116 257 116 254 97.5 c 128,-1,124
 251 79 251 79 252.5 63.5 c 128,-1,125
 254 48 254 48 263 39 c 128,-1,126
 272 30 272 30 293 32 c 0,127,128
 296 29 296 29 304 29.5 c 128,-1,129
 312 30 312 30 321 29.5 c 128,-1,130
 330 29 330 29 335.5 26.5 c 128,-1,131
 341 24 341 24 339 14 c 0,132,133
 336 3 336 3 326 -1.5 c 128,-1,134
 316 -6 316 -6 307 -6 c 2,135,-1
 295 -6 l 2,136,137
 275 -6 275 -6 256.5 -3.5 c 128,-1,138
 238 -1 238 -1 217 -1 c 0,139,140
 177 -1 177 -1 139 -4 c 128,-1,141
 101 -7 101 -7 61 -7 c 0,142,143
 53 -7 53 -7 42.5 -5 c 128,-1,144
 32 -3 32 -3 35 8 c 0,145,146
 38 20 38 20 48 25 c 128,-1,147
 58 30 58 30 71.5 31.5 c 128,-1,148
 85 33 85 33 98.5 33.5 c 128,-1,149
 112 34 112 34 121 38 c 0,150,151
 130 42 130 42 137 51.5 c 128,-1,152
 144 61 144 61 150 72.5 c 128,-1,153
 156 84 156 84 159.5 96 c 128,-1,154
 163 108 163 108 165 117 c 0,155,156
 189 219 189 219 214 320 c 128,-1,157
 239 421 239 421 262 523 c 2,158,-1
 291 648 l 2,159,160
 295 664 295 664 294.5 681 c 128,-1,161
 294 698 294 698 276 701 c 0,162,163
 267 703 267 703 255.5 702.5 c 128,-1,164
 244 702 244 702 233 704 c 128,-1,165
 222 706 222 706 216 711 c 128,-1,166
 210 716 210 716 213 728 c 0,167,168
 215 736 215 736 224.5 738.5 c 128,-1,169
 234 741 234 741 243 741 c 2,170,-1
 253 741 l 2,171,172
 278 741 278 741 301.5 738 c 128,-1,173
 325 735 325 735 349 735 c 2,174,-1
 379 735 l 2,0,1
EndSplineSet
Validated: 33
Substitution2: "'c2sc' Versalien in Kapit+AOQA-lchen in Lateinisch Nachschlagetabelle 0 Subtabelle" uni1D0B
EndChar

StartChar: L
Encoding: 76 76 61
Width: 595
Flags: W
LayerCount: 2
Fore
SplineSet
366 734 m 0,0,1
 401 734 401 734 433.5 736 c 128,-1,2
 466 738 466 738 506 738 c 1,3,4
 513 730 513 730 511 722 c 0,5,6
 508 710 508 710 496 706 c 128,-1,7
 484 702 484 702 468.5 700.5 c 128,-1,8
 453 699 453 699 437.5 697.5 c 128,-1,9
 422 696 422 696 411 688 c 0,10,11
 403 682 403 682 397 672 c 128,-1,12
 391 662 391 662 387 650.5 c 128,-1,13
 383 639 383 639 380 627.5 c 128,-1,14
 377 616 377 616 375 608 c 0,15,16
 353 515 353 515 331.5 425.5 c 128,-1,17
 310 336 310 336 289 243 c 2,18,-1
 280 204 l 2,19,20
 276 186 276 186 271 163.5 c 128,-1,21
 266 141 266 141 263.5 121 c 128,-1,22
 261 101 261 101 261 85.5 c 128,-1,23
 261 70 261 70 266 63 c 0,24,25
 285 44 285 44 315.5 40 c 128,-1,26
 346 36 346 36 376.5 40.5 c 128,-1,27
 407 45 407 45 433 54 c 128,-1,28
 459 63 459 63 469 70 c 0,29,30
 486 79 486 79 508 102 c 128,-1,31
 530 125 530 125 550 150 c 128,-1,32
 570 175 570 175 585 195 c 128,-1,33
 600 215 600 215 604 218 c 0,34,35
 614 225 614 225 624 222.5 c 128,-1,36
 634 220 634 220 636 211 c 1,37,38
 603 170 603 170 580 129.5 c 128,-1,39
 557 89 557 89 541.5 57 c 128,-1,40
 526 25 526 25 516.5 5 c 128,-1,41
 507 -15 507 -15 501 -15 c 0,42,43
 439 -15 439 -15 373.5 -6 c 128,-1,44
 308 3 308 3 246 3 c 0,45,46
 214 3 214 3 190.5 1 c 128,-1,47
 167 -1 167 -1 145 -3 c 128,-1,48
 123 -5 123 -5 99 -7 c 128,-1,49
 75 -9 75 -9 44 -9 c 0,50,51
 38 -9 38 -9 35.5 -4 c 128,-1,52
 33 1 33 1 34 7 c 0,53,54
 37 21 37 21 47.5 25 c 128,-1,55
 58 29 58 29 72.5 30 c 128,-1,56
 87 31 87 31 104 33.5 c 128,-1,57
 121 36 121 36 137 49 c 0,58,59
 151 61 151 61 162.5 94 c 128,-1,60
 174 127 174 127 183 166 c 0,61,62
 192 206 192 206 200 246.5 c 128,-1,63
 208 287 208 287 214 315 c 2,64,-1
 283 614 l 2,65,66
 289 640 289 640 290 660 c 0,67,68
 291 683 291 683 276 690.5 c 128,-1,69
 261 698 261 698 243 700.5 c 128,-1,70
 225 703 225 703 211.5 706 c 128,-1,71
 198 709 198 709 201 723 c 256,72,73
 204 737 204 737 215 739 c 128,-1,74
 226 741 226 741 238 741 c 0,75,76
 272 741 272 741 302 737.5 c 128,-1,77
 332 734 332 734 366 734 c 0,0,1
EndSplineSet
Validated: 33
Substitution2: "'c2sc' Versalien in Kapit+AOQA-lchen in Lateinisch Nachschlagetabelle 0 Subtabelle" uni029F
EndChar

StartChar: M
Encoding: 77 77 62
Width: 951
Flags: W
LayerCount: 2
Fore
SplineSet
1078 716 m 0,0,1
 1076 708 1076 708 1067.5 703 c 128,-1,2
 1059 698 1059 698 1047.5 696 c 128,-1,3
 1036 694 1036 694 1026 693.5 c 128,-1,4
 1016 693 1016 693 1010 693 c 0,5,6
 991 693 991 693 979 685.5 c 128,-1,7
 967 678 967 678 959 665.5 c 128,-1,8
 951 653 951 653 946.5 637 c 128,-1,9
 942 621 942 621 938 604 c 2,10,-1
 932 579 l 2,11,12
 907 462 907 462 886 351.5 c 128,-1,13
 865 241 865 241 843 120 c 0,14,15
 840 102 840 102 838 79 c 128,-1,16
 836 56 836 56 849 45 c 0,17,18
 853 42 853 42 863.5 38.5 c 128,-1,19
 874 35 874 35 886.5 31.5 c 128,-1,20
 899 28 899 28 911 24 c 128,-1,21
 923 20 923 20 929 16 c 0,22,23
 934 13 934 13 932 5 c 0,24,25
 930 -5 930 -5 920 -6.5 c 128,-1,26
 910 -8 910 -8 901 -8 c 2,27,-1
 892 -8 l 2,28,29
 864 -8 864 -8 837 -4.5 c 128,-1,30
 810 -1 810 -1 782 -1 c 0,31,32
 751 -1 751 -1 719.5 -4.5 c 128,-1,33
 688 -8 688 -8 657 -8 c 0,34,35
 650 -8 650 -8 639 -6 c 128,-1,36
 628 -4 628 -4 631 6 c 0,37,38
 633 15 633 15 641.5 20 c 128,-1,39
 650 25 650 25 656 29 c 1,40,41
 682 29 682 29 699 34 c 128,-1,42
 716 39 716 39 726 50 c 128,-1,43
 736 61 736 61 743 79 c 128,-1,44
 750 97 750 97 756 124 c 2,45,-1
 822 465 l 2,46,47
 827 492 827 492 831.5 513.5 c 128,-1,48
 836 535 836 535 840 549 c 0,49,50
 847 580 847 580 840 585 c 1,51,52
 836 582 836 582 829.5 574 c 128,-1,53
 823 566 823 566 817.5 557 c 128,-1,54
 812 548 812 548 806.5 539 c 128,-1,55
 801 530 801 530 798 526 c 0,56,57
 729 420 729 420 664 320.5 c 128,-1,58
 599 221 599 221 534 114 c 0,59,60
 527 102 527 102 515 81.5 c 128,-1,61
 503 61 503 61 490.5 43 c 128,-1,62
 478 25 478 25 467.5 11 c 128,-1,63
 457 -3 457 -3 451 -3 c 0,64,65
 441 -3 441 -3 438.5 11.5 c 128,-1,66
 436 26 436 26 436 34 c 0,67,68
 427 130 427 130 413.5 223 c 128,-1,69
 400 316 400 316 381 409 c 0,70,71
 379 418 379 418 375 446.5 c 128,-1,72
 371 475 371 475 365 507 c 128,-1,73
 359 539 359 539 353.5 563.5 c 128,-1,74
 348 588 348 588 344 588 c 0,75,76
 342 588 342 588 333.5 557.5 c 128,-1,77
 325 527 325 527 312.5 479 c 128,-1,78
 300 431 300 431 285 372 c 128,-1,79
 270 313 270 313 257 257 c 128,-1,80
 244 201 244 201 232 152.5 c 128,-1,81
 220 104 220 104 215 79 c 0,82,83
 211 62 211 62 216.5 52.5 c 128,-1,84
 222 43 222 43 233 38 c 128,-1,85
 244 33 244 33 257.5 31 c 128,-1,86
 271 29 271 29 283 27 c 128,-1,87
 295 25 295 25 301.5 20 c 128,-1,88
 308 15 308 15 306 5 c 0,89,90
 303 -6 303 -6 291.5 -7 c 128,-1,91
 280 -8 280 -8 272 -8 c 0,92,93
 247 -8 247 -8 224 -6 c 128,-1,94
 201 -4 201 -4 175 -4 c 0,95,96
 144 -4 144 -4 114 -6 c 128,-1,97
 84 -8 84 -8 53 -8 c 0,98,99
 47 -8 47 -8 37.5 -5.5 c 128,-1,100
 28 -3 28 -3 29 5 c 0,101,102
 33 21 33 21 47 25 c 128,-1,103
 61 29 61 29 78.5 31.5 c 128,-1,104
 96 34 96 34 114.5 39.5 c 128,-1,105
 133 45 133 45 146 66 c 0,106,107
 155 81 155 81 162 99.5 c 128,-1,108
 169 118 169 118 175 135 c 0,109,110
 213 256 213 256 250.5 379 c 128,-1,111
 288 502 288 502 315 623 c 0,112,113
 323 659 323 659 312 676 c 128,-1,114
 301 693 301 693 267 700 c 0,115,116
 263 701 263 701 254 703.5 c 128,-1,117
 245 706 245 706 235.5 708.5 c 128,-1,118
 226 711 226 711 219.5 715 c 128,-1,119
 213 719 213 719 214 725 c 0,120,121
 217 736 217 736 228 737.5 c 128,-1,122
 239 739 239 739 246 739 c 0,123,124
 262 739 262 739 276.5 737 c 128,-1,125
 291 735 291 735 307 735 c 0,126,127
 332 735 332 735 356 737 c 128,-1,128
 380 739 380 739 404 739 c 0,129,130
 411 739 411 739 416 738.5 c 128,-1,131
 421 738 421 738 424 731 c 0,132,133
 436 704 436 704 439 671 c 128,-1,134
 442 638 442 638 447 607 c 0,135,136
 459 535 459 535 471.5 464.5 c 128,-1,137
 484 394 484 394 497 321 c 0,138,139
 500 304 500 304 502.5 280 c 128,-1,140
 505 256 505 256 508.5 234 c 128,-1,141
 512 212 512 212 515.5 196.5 c 128,-1,142
 519 181 519 181 524 181 c 256,143,144
 529 181 529 181 535 189.5 c 128,-1,145
 541 198 541 198 545 205 c 0,146,147
 627 326 627 326 703 449 c 128,-1,148
 779 572 779 572 861 693 c 0,149,150
 878 720 878 720 887 727.5 c 128,-1,151
 896 735 896 735 906 735 c 2,152,-1
 927 735 l 2,153,154
 944 735 944 735 951.5 734 c 128,-1,155
 959 733 959 733 974 733 c 0,156,157
 994 733 994 733 1014.5 734 c 128,-1,158
 1035 735 1035 735 1056 735 c 0,159,160
 1063 735 1063 735 1072.5 731.5 c 128,-1,161
 1082 728 1082 728 1078 716 c 0,0,1
EndSplineSet
Validated: 33
Substitution2: "'c2sc' Versalien in Kapit+AOQA-lchen in Lateinisch Nachschlagetabelle 0 Subtabelle" uni1D0D
EndChar

StartChar: N
Encoding: 78 78 63
Width: 857
Flags: W
LayerCount: 2
Fore
SplineSet
176 -4 m 0,0,1
 144 -4 144 -4 112.5 -6 c 128,-1,2
 81 -8 81 -8 48 -8 c 0,3,4
 41 -8 41 -8 32 -5 c 128,-1,5
 23 -2 23 -2 25 9 c 0,6,7
 27 18 27 18 35 22.5 c 128,-1,8
 43 27 43 27 54 28.5 c 128,-1,9
 65 30 65 30 76.5 30.5 c 128,-1,10
 88 31 88 31 95 32 c 0,11,12
 112 35 112 35 123.5 44 c 128,-1,13
 135 53 135 53 142.5 66.5 c 128,-1,14
 150 80 150 80 154.5 95.5 c 128,-1,15
 159 111 159 111 162 125 c 0,16,17
 193 248 193 248 222 367 c 128,-1,18
 251 486 251 486 280 609 c 0,19,20
 284 625 284 625 285.5 640 c 128,-1,21
 287 655 287 655 283.5 666.5 c 128,-1,22
 280 678 280 678 269 686 c 128,-1,23
 258 694 258 694 238 698 c 0,24,25
 233 699 233 699 222 699.5 c 128,-1,26
 211 700 211 700 200.5 702.5 c 128,-1,27
 190 705 190 705 183.5 709 c 128,-1,28
 177 713 177 713 179 721 c 0,29,30
 181 730 181 730 192.5 735 c 128,-1,31
 204 740 204 740 211 740 c 0,32,33
 231 740 231 740 251 739 c 128,-1,34
 271 738 271 738 292 738 c 0,35,36
 308 738 308 738 323 739 c 128,-1,37
 338 740 338 740 354 740 c 0,38,39
 371 740 371 740 379 735.5 c 128,-1,40
 387 731 387 731 393 722 c 128,-1,41
 399 713 399 713 406 699.5 c 128,-1,42
 413 686 413 686 426 668 c 0,43,44
 453 619 453 619 481 569 c 128,-1,45
 509 519 509 519 543.5 459 c 128,-1,46
 578 399 578 399 620 324 c 128,-1,47
 662 249 662 249 718 147 c 1,48,49
 731 148 731 148 735 170 c 2,50,-1
 764 294 l 2,51,52
 783 374 783 374 801 454 c 128,-1,53
 819 534 819 534 838 613 c 0,54,55
 841 627 841 627 843.5 640.5 c 128,-1,56
 846 654 846 654 846 668 c 0,57,58
 846 691 846 691 830 696 c 128,-1,59
 814 701 814 701 794.5 701.5 c 128,-1,60
 775 702 775 702 759.5 704.5 c 128,-1,61
 744 707 744 707 749 723 c 0,62,63
 751 733 751 733 758.5 736.5 c 128,-1,64
 766 740 766 740 773 740 c 0,65,66
 804 740 804 740 834 738 c 128,-1,67
 864 736 864 736 894 736 c 0,68,69
 919 736 919 736 945 737.5 c 128,-1,70
 971 739 971 739 995 739 c 0,71,72
 1015 739 1015 739 1012 722 c 0,73,74
 1009 710 1009 710 996.5 706 c 128,-1,75
 984 702 984 702 968 700.5 c 128,-1,76
 952 699 952 699 936.5 696.5 c 128,-1,77
 921 694 921 694 912 685 c 0,78,79
 905 677 905 677 896.5 656.5 c 128,-1,80
 888 636 888 636 880.5 613 c 128,-1,81
 873 590 873 590 868 568.5 c 128,-1,82
 863 547 863 547 861 537 c 2,83,-1
 812 325 l 2,84,85
 799 266 799 266 781 191 c 128,-1,86
 763 116 763 116 739 14 c 0,87,88
 735 -3 735 -3 730 -18 c 128,-1,89
 725 -33 725 -33 713 -35 c 0,90,91
 708 -36 708 -36 703.5 -32.5 c 128,-1,92
 699 -29 699 -29 696 -23.5 c 128,-1,93
 693 -18 693 -18 690 -12.5 c 128,-1,94
 687 -7 687 -7 686 -3 c 0,95,96
 667 32 667 32 647.5 66.5 c 128,-1,97
 628 101 628 101 609 137 c 0,98,99
 608 138 608 138 606.5 141 c 128,-1,100
 605 144 605 144 598.5 156 c 128,-1,101
 592 168 592 168 577.5 193 c 128,-1,102
 563 218 563 218 537.5 263 c 128,-1,103
 512 308 512 308 473 376.5 c 128,-1,104
 434 445 434 445 377 546 c 0,105,106
 366 566 366 566 354.5 590 c 128,-1,107
 343 614 343 614 327 633 c 1,108,109
 320 616 320 616 315 598 c 0,110,111
 303 543 303 543 293 494 c 128,-1,112
 283 445 283 445 271 393 c 128,-1,113
 259 341 259 341 246 280 c 128,-1,114
 233 219 233 219 215 139 c 0,115,116
 204 92 204 92 205 70.5 c 128,-1,117
 206 49 206 49 215.5 41.5 c 128,-1,118
 225 34 225 34 243.5 33 c 128,-1,119
 262 32 262 32 288 26 c 0,120,121
 295 24 295 24 300.5 18 c 128,-1,122
 306 12 306 12 304 2 c 0,123,124
 303 -4 303 -4 296.5 -6 c 128,-1,125
 290 -8 290 -8 286 -8 c 0,126,127
 258 -8 258 -8 231 -6 c 128,-1,128
 204 -4 204 -4 176 -4 c 0,0,1
EndSplineSet
Validated: 33
Substitution2: "'c2sc' Versalien in Kapit+AOQA-lchen in Lateinisch Nachschlagetabelle 0 Subtabelle" uni0274
EndChar

StartChar: O
Encoding: 79 79 64
Width: 839
Flags: W
LayerCount: 2
Fore
SplineSet
763 420 m 0,0,1
 767 486 767 486 755 545 c 128,-1,2
 743 604 743 604 713.5 646.5 c 128,-1,3
 684 689 684 689 635 709 c 128,-1,4
 586 729 586 729 516 716 c 0,5,6
 441 702 441 702 391 661 c 128,-1,7
 341 620 341 620 310 564.5 c 128,-1,8
 279 509 279 509 263.5 446 c 128,-1,9
 248 383 248 383 245 325 c 0,10,11
 241 265 241 265 250 204 c 128,-1,12
 259 143 259 143 286.5 97 c 128,-1,13
 314 51 314 51 363 27.5 c 128,-1,14
 412 4 412 4 487 18 c 0,15,16
 561 31 561 31 612 74 c 128,-1,17
 663 117 663 117 695.5 174.5 c 128,-1,18
 728 232 728 232 743.5 297 c 128,-1,19
 759 362 759 362 763 420 c 0,0,1
870 374 m 0,20,21
 852 292 852 292 806 218.5 c 128,-1,22
 760 145 760 145 696.5 90.5 c 128,-1,23
 633 36 633 36 556.5 3.5 c 128,-1,24
 480 -29 480 -29 402 -29 c 0,25,26
 325 -29 325 -29 267 0.5 c 128,-1,27
 209 30 209 30 174 82 c 128,-1,28
 139 134 139 134 129.5 205 c 128,-1,29
 120 276 120 276 139 361 c 256,30,31
 158 446 158 446 202 519 c 128,-1,32
 246 592 246 592 306.5 645 c 128,-1,33
 367 698 367 698 439.5 728.5 c 128,-1,34
 512 759 512 759 590 759 c 0,35,36
 665 759 665 759 725.5 730.5 c 128,-1,37
 786 702 786 702 825 651.5 c 128,-1,38
 864 601 864 601 876.5 530.5 c 128,-1,39
 889 460 889 460 870 374 c 0,20,21
EndSplineSet
Validated: 33
Substitution2: "'c2sc' Versalien in Kapit+AOQA-lchen in Lateinisch Nachschlagetabelle 0 Subtabelle" uni1D0F
EndChar

StartChar: P
Encoding: 80 80 65
Width: 585
Flags: W
LayerCount: 2
Fore
SplineSet
567 526 m 0,0,1
 575 561 575 561 572.5 593.5 c 128,-1,2
 570 626 570 626 555.5 650.5 c 128,-1,3
 541 675 541 675 513.5 690.5 c 128,-1,4
 486 706 486 706 447 708 c 0,5,6
 437 708 437 708 424.5 706.5 c 128,-1,7
 412 705 412 705 401 696 c 0,8,9
 391 687 391 687 383 667 c 128,-1,10
 375 647 375 647 370 629 c 2,11,-1
 366 608 l 2,12,13
 354 556 354 556 343 505 c 128,-1,14
 332 454 332 454 321 401 c 1,15,-1
 319 401 l 1,16,-1
 302 326 l 2,17,18
 299 315 299 315 294 295.5 c 128,-1,19
 289 276 289 276 284 255 c 128,-1,20
 279 234 279 234 273 213 c 256,21,22
 268 191 268 191 264 175 c 2,23,-1
 250 113 l 2,24,25
 247 101 247 101 245.5 88.5 c 128,-1,26
 244 76 244 76 245 65 c 128,-1,27
 246 54 246 54 250.5 46 c 128,-1,28
 255 38 255 38 265 35 c 0,29,30
 270 33 270 33 280.5 31 c 128,-1,31
 291 29 291 29 301 27 c 128,-1,32
 311 25 311 25 320 23.5 c 128,-1,33
 329 22 329 22 333 20 c 0,34,35
 340 16 340 16 336 11 c 128,-1,36
 332 6 332 6 329 -1 c 0,37,38
 323 -5 323 -5 316 -6 c 128,-1,39
 309 -7 309 -7 302 -7 c 0,40,41
 271 -7 271 -7 241 -3.5 c 128,-1,42
 211 0 211 0 179 0 c 0,43,44
 145 0 145 0 113 -3.5 c 128,-1,45
 81 -7 81 -7 47 -7 c 0,46,47
 38 -7 38 -7 36.5 -0.5 c 128,-1,48
 35 6 35 6 37 14 c 0,49,50
 38 18 38 18 50.5 22 c 128,-1,51
 63 26 63 26 80 30.5 c 128,-1,52
 97 35 97 35 113 41.5 c 128,-1,53
 129 48 129 48 137 59 c 0,54,55
 148 76 148 76 154.5 97.5 c 128,-1,56
 161 119 161 119 166 138 c 0,57,58
 180 199 180 199 195 261 c 128,-1,59
 210 323 210 323 224 384 c 0,60,61
 239 452 239 452 254 519 c 128,-1,62
 269 586 269 586 286 653 c 0,63,64
 291 676 291 676 285.5 686 c 128,-1,65
 280 696 280 696 270 699.5 c 128,-1,66
 260 703 260 703 246 702 c 128,-1,67
 232 701 232 701 221.5 701.5 c 128,-1,68
 211 702 211 702 204.5 706.5 c 128,-1,69
 198 711 198 711 201 724 c 0,70,71
 203 732 203 732 209 735 c 128,-1,72
 215 738 215 738 222 739 c 0,73,74
 269 744 269 744 314.5 745 c 128,-1,75
 360 746 360 746 406 746 c 2,76,-1
 460 746 l 2,77,78
 511 746 511 746 555 733.5 c 128,-1,79
 599 721 599 721 628 694.5 c 128,-1,80
 657 668 657 668 668.5 626.5 c 128,-1,81
 680 585 680 585 667 528 c 0,82,83
 656 480 656 480 628.5 440.5 c 128,-1,84
 601 401 601 401 564 372.5 c 128,-1,85
 527 344 527 344 482 328 c 128,-1,86
 437 312 437 312 391 312 c 0,87,88
 375 312 375 312 372.5 314.5 c 128,-1,89
 370 317 370 317 365 323 c 0,90,91
 364 325 364 325 362 330.5 c 128,-1,92
 360 336 360 336 361 342 c 128,-1,93
 362 348 362 348 365 352.5 c 128,-1,94
 368 357 368 357 373 357 c 0,95,96
 376 356 376 356 377 356 c 0,97,98
 412 357 412 357 442 370 c 128,-1,99
 472 383 472 383 497 405 c 128,-1,100
 522 427 522 427 540.5 458 c 128,-1,101
 559 489 559 489 567 526 c 0,0,1
EndSplineSet
Validated: 33
Substitution2: "'c2sc' Versalien in Kapit+AOQA-lchen in Lateinisch Nachschlagetabelle 0 Subtabelle" uni1D18
EndChar

StartChar: Q
Encoding: 81 81 66
Width: 839
Flags: W
LayerCount: 2
Fore
SplineSet
763 420 m 0,0,1
 767 486 767 486 755 545 c 128,-1,2
 743 604 743 604 713.5 646.5 c 128,-1,3
 684 689 684 689 635 709 c 128,-1,4
 586 729 586 729 516 716 c 0,5,6
 449 703 449 703 399.5 662 c 128,-1,7
 350 621 350 621 317 565.5 c 128,-1,8
 284 510 284 510 266 446.5 c 128,-1,9
 248 383 248 383 245 325 c 0,10,11
 241 265 241 265 250 203.5 c 128,-1,12
 259 142 259 142 286.5 95.5 c 128,-1,13
 314 49 314 49 363 26 c 128,-1,14
 412 3 412 3 487 18 c 0,15,16
 544 30 544 30 593.5 72.5 c 128,-1,17
 643 115 643 115 679.5 172.5 c 128,-1,18
 716 230 716 230 737.5 296 c 128,-1,19
 759 362 759 362 763 420 c 0,0,1
870 374 m 0,20,21
 858 320 858 320 832 269 c 128,-1,22
 806 218 806 218 769.5 174 c 128,-1,23
 733 130 733 130 689 93 c 128,-1,24
 645 56 645 56 596 30 c 1,25,26
 611 -7 611 -7 628 -30 c 128,-1,27
 645 -53 645 -53 663.5 -68.5 c 128,-1,28
 682 -84 682 -84 702.5 -93.5 c 128,-1,29
 723 -103 723 -103 744 -114 c 0,30,31
 747 -116 747 -116 748.5 -122 c 128,-1,32
 750 -128 750 -128 748 -134 c 0,33,34
 746 -141 746 -141 742 -147.5 c 128,-1,35
 738 -154 738 -154 734 -154 c 0,36,37
 700 -157 700 -157 665 -149.5 c 128,-1,38
 630 -142 630 -142 596 -125 c 128,-1,39
 562 -108 562 -108 532 -80.5 c 128,-1,40
 502 -53 502 -53 478 -16 c 1,41,42
 466 -19 466 -19 457.5 -22 c 128,-1,43
 449 -25 449 -25 440 -26.5 c 128,-1,44
 431 -28 431 -28 422.5 -28.5 c 128,-1,45
 414 -29 414 -29 402 -29 c 0,46,47
 325 -29 325 -29 267 0.5 c 128,-1,48
 209 30 209 30 174 82 c 128,-1,49
 139 134 139 134 129.5 205 c 128,-1,50
 120 276 120 276 139 361 c 256,51,52
 158 446 158 446 202 519 c 128,-1,53
 246 592 246 592 306.5 645 c 128,-1,54
 367 698 367 698 439.5 728.5 c 128,-1,55
 512 759 512 759 590 759 c 0,56,57
 665 759 665 759 725.5 730.5 c 128,-1,58
 786 702 786 702 825 651.5 c 128,-1,59
 864 601 864 601 876.5 530.5 c 128,-1,60
 889 460 889 460 870 374 c 0,20,21
EndSplineSet
Validated: 33
Substitution2: "'c2sc' Versalien in Kapit+AOQA-lchen in Lateinisch Nachschlagetabelle 0 Subtabelle" Q.sc
EndChar

StartChar: R
Encoding: 82 82 67
Width: 683
Flags: W
LayerCount: 2
Fore
SplineSet
574 544 m 0,0,1
 583 585 583 585 578 615.5 c 128,-1,2
 573 646 573 646 556.5 667 c 128,-1,3
 540 688 540 688 513 699 c 128,-1,4
 486 710 486 710 451 710 c 0,5,6
 417 710 417 710 403.5 697 c 128,-1,7
 390 684 390 684 385 659 c 2,8,-1
 377 625 l 2,9,10
 368 584 368 584 355 532.5 c 128,-1,11
 342 481 342 481 333 440 c 0,12,13
 330 425 330 425 326.5 414 c 128,-1,14
 323 403 323 403 324 396 c 128,-1,15
 325 389 325 389 332 386 c 128,-1,16
 339 383 339 383 356 383 c 0,17,18
 394 383 394 383 429 389.5 c 128,-1,19
 464 396 464 396 492.5 414 c 128,-1,20
 521 432 521 432 542 463.5 c 128,-1,21
 563 495 563 495 574 544 c 0,0,1
487 359 m 1,22,23
 504 351 504 351 515 323 c 128,-1,24
 526 295 526 295 535 256 c 128,-1,25
 544 217 544 217 553.5 173.5 c 128,-1,26
 563 130 563 130 579 91 c 128,-1,27
 595 52 595 52 619 23 c 128,-1,28
 643 -6 643 -6 681 -15 c 0,29,30
 690 -20 690 -20 700.5 -23 c 128,-1,31
 711 -26 711 -26 709 -35 c 0,32,33
 708 -41 708 -41 696 -50 c 1,34,35
 685 -54 685 -54 662 -54 c 0,36,37
 653 -54 653 -54 643 -53 c 128,-1,38
 633 -52 633 -52 627 -51 c 0,39,40
 549 -36 549 -36 507 19.5 c 128,-1,41
 465 75 465 75 455 155 c 1,42,43
 447 188 447 188 441 222.5 c 128,-1,44
 435 257 435 257 424 285 c 128,-1,45
 413 313 413 313 394 331.5 c 128,-1,46
 375 350 375 350 340 350 c 0,47,48
 321 350 321 350 314.5 342 c 128,-1,49
 308 334 308 334 303 309 c 2,50,-1
 254 98 l 2,51,52
 248 71 248 71 251 58 c 128,-1,53
 254 45 254 45 263.5 39 c 128,-1,54
 273 33 273 33 288 31 c 128,-1,55
 303 29 303 29 322 25 c 0,56,57
 324 24 324 24 329 24 c 0,58,59
 336 24 336 24 342 21.5 c 128,-1,60
 348 19 348 19 346 11 c 0,61,62
 343 -3 343 -3 333 -6 c 128,-1,63
 323 -9 323 -9 304 -9 c 0,64,65
 270 -9 270 -9 236.5 -5.5 c 128,-1,66
 203 -2 203 -2 169 -2 c 0,67,68
 139 -2 139 -2 109.5 -5 c 128,-1,69
 80 -8 80 -8 51 -8 c 0,70,71
 39 -8 39 -8 35.5 -5.5 c 128,-1,72
 32 -3 32 -3 35 11 c 0,73,74
 37 18 37 18 45 21 c 128,-1,75
 53 24 53 24 65.5 26 c 128,-1,76
 78 28 78 28 91.5 30.5 c 128,-1,77
 105 33 105 33 119 40 c 128,-1,78
 133 47 133 47 143.5 59.5 c 128,-1,79
 154 72 154 72 159 93 c 2,80,-1
 208 304 l 2,81,82
 228 391 228 391 249 477 c 128,-1,83
 270 563 270 563 291 650 c 0,84,85
 296 670 296 670 290.5 681.5 c 128,-1,86
 285 693 285 693 274 697.5 c 128,-1,87
 263 702 263 702 250.5 703.5 c 128,-1,88
 238 705 238 705 226 706 c 128,-1,89
 214 707 214 707 207 710 c 128,-1,90
 200 713 200 713 202 722 c 0,91,92
 205 736 205 736 215.5 738.5 c 128,-1,93
 226 741 226 741 238 741 c 256,94,95
 248 741 248 741 258.5 740 c 128,-1,96
 269 739 269 739 280 739 c 2,97,-1
 362 739 l 2,98,99
 398 739 398 739 435 740.5 c 128,-1,100
 472 742 472 742 509 742 c 0,101,102
 541 742 541 742 574.5 733.5 c 128,-1,103
 608 725 608 725 634 702 c 128,-1,104
 660 679 660 679 672.5 640 c 128,-1,105
 685 601 685 601 671 541 c 0,106,107
 664 508 664 508 644.5 480 c 128,-1,108
 625 452 625 452 599 429.5 c 128,-1,109
 573 407 573 407 544 389 c 128,-1,110
 515 371 515 371 487 359 c 1,22,23
EndSplineSet
Validated: 33
Substitution2: "'c2sc' Versalien in Kapit+AOQA-lchen in Lateinisch Nachschlagetabelle 0 Subtabelle" uni0280
EndChar

StartChar: S
Encoding: 83 83 68
Width: 493
Flags: W
LayerCount: 2
Fore
SplineSet
48 -37 m 0,0,1
 41 -37 41 -37 42 -24 c 128,-1,2
 43 -11 43 -11 47 6 c 256,3,4
 51 23 51 23 56.5 41.5 c 128,-1,5
 62 60 62 60 66 72 c 0,6,7
 72 99 72 99 77 120 c 128,-1,8
 82 141 82 141 90 168 c 0,9,10
 93 177 93 177 97 180 c 128,-1,11
 101 183 101 183 105 183 c 256,12,13
 109 183 109 183 112 182 c 128,-1,14
 115 181 115 181 118 181 c 0,15,16
 125 181 125 181 126.5 172.5 c 128,-1,17
 128 164 128 164 128 151 c 128,-1,18
 128 138 128 138 128 124 c 128,-1,19
 128 110 128 110 130 99 c 0,20,21
 138 59 138 59 169.5 37 c 128,-1,22
 201 15 201 15 240 15 c 0,23,24
 269 15 269 15 295.5 25 c 128,-1,25
 322 35 322 35 344 53.5 c 128,-1,26
 366 72 366 72 382 97.5 c 128,-1,27
 398 123 398 123 406 156 c 0,28,29
 417 204 417 204 400 236.5 c 128,-1,30
 383 269 383 269 353 295 c 128,-1,31
 323 321 323 321 285.5 343.5 c 128,-1,32
 248 366 248 366 218 394 c 128,-1,33
 188 422 188 422 173 459.5 c 128,-1,34
 158 497 158 497 170 552 c 0,35,36
 181 601 181 601 206.5 639.5 c 128,-1,37
 232 678 232 678 267 704 c 128,-1,38
 302 730 302 730 343.5 744 c 128,-1,39
 385 758 385 758 428 758 c 0,40,41
 448 758 448 758 470.5 746.5 c 128,-1,42
 493 735 493 735 507 724 c 0,43,44
 516 718 516 718 522.5 723.5 c 128,-1,45
 529 729 529 729 536.5 739.5 c 128,-1,46
 544 750 544 750 553 759 c 128,-1,47
 562 768 562 768 577 768 c 0,48,49
 584 768 584 768 583 758 c 128,-1,50
 582 748 582 748 579 733 c 256,51,52
 576 719 576 719 570.5 703.5 c 128,-1,53
 565 688 565 688 563 677 c 0,54,55
 552 624 552 624 536 570 c 0,56,57
 532 561 532 561 528 558 c 128,-1,58
 524 555 524 555 520 555 c 256,59,60
 516 555 516 555 513 556 c 128,-1,61
 510 557 510 557 507 557 c 0,62,63
 501 557 501 557 499.5 566 c 128,-1,64
 498 575 498 575 498 588 c 128,-1,65
 498 601 498 601 498.5 615 c 128,-1,66
 499 629 499 629 496 639 c 0,67,68
 490 678 490 678 464.5 699.5 c 128,-1,69
 439 721 439 721 410 721 c 0,70,71
 385 721 385 721 360.5 713 c 128,-1,72
 336 705 336 705 316 689.5 c 128,-1,73
 296 674 296 674 281 651.5 c 128,-1,74
 266 629 266 629 260 601 c 0,75,76
 250 558 250 558 269 526 c 128,-1,77
 288 494 288 494 320 468.5 c 128,-1,78
 352 443 352 443 389.5 421.5 c 128,-1,79
 427 400 427 400 454 378 c 0,80,81
 488 349 488 349 499.5 303 c 128,-1,82
 511 257 511 257 500 205 c 0,83,84
 487 149 487 149 460.5 106 c 128,-1,85
 434 63 434 63 397 34.5 c 128,-1,86
 360 6 360 6 315 -9 c 128,-1,87
 270 -24 270 -24 221 -25 c 0,88,89
 203 -25 203 -25 188.5 -19.5 c 128,-1,90
 174 -14 174 -14 161 -8.5 c 128,-1,91
 148 -3 148 -3 137.5 2 c 128,-1,92
 127 7 127 7 117 7 c 0,93,94
 106 7 106 7 99 0.5 c 128,-1,95
 92 -6 92 -6 85.5 -15 c 128,-1,96
 79 -24 79 -24 70.5 -30.5 c 128,-1,97
 62 -37 62 -37 48 -37 c 0,0,1
EndSplineSet
Validated: 33
Substitution2: "'c2sc' Versalien in Kapit+AOQA-lchen in Lateinisch Nachschlagetabelle 0 Subtabelle" uniA731
EndChar

StartChar: T
Encoding: 84 84 69
Width: 671
Flags: W
LayerCount: 2
Fore
SplineSet
828 740 m 0,0,1
 817 721 817 721 807.5 688.5 c 128,-1,2
 798 656 798 656 787.5 625.5 c 128,-1,3
 777 595 777 595 766 572.5 c 128,-1,4
 755 550 755 550 740 550 c 0,5,6
 729 550 729 550 729 559.5 c 128,-1,7
 729 569 729 569 734 584 c 128,-1,8
 739 599 739 599 744 616.5 c 128,-1,9
 749 634 749 634 746 649 c 0,10,11
 744 661 744 661 732.5 669 c 128,-1,12
 721 677 721 677 702.5 680.5 c 128,-1,13
 684 684 684 684 663 685.5 c 128,-1,14
 642 687 642 687 624 687 c 0,15,16
 610 687 610 687 598 686.5 c 128,-1,17
 586 686 586 686 579 686 c 0,18,19
 572 686 572 686 566 686.5 c 128,-1,20
 560 687 560 687 555 682.5 c 128,-1,21
 550 678 550 678 545 666 c 128,-1,22
 540 654 540 654 534 631 c 2,23,-1
 503 506 l 2,24,25
 480 416 480 416 461.5 326 c 128,-1,26
 443 236 443 236 421 145 c 0,27,28
 417 129 417 129 414 112.5 c 128,-1,29
 411 96 411 96 410 80 c 0,30,31
 408 51 408 51 424.5 41.5 c 128,-1,32
 441 32 441 32 461.5 29.5 c 128,-1,33
 482 27 482 27 498 25 c 128,-1,34
 514 23 514 23 512 10 c 0,35,36
 508 -6 508 -6 501 -7 c 128,-1,37
 494 -8 494 -8 481 -8 c 0,38,39
 443 -8 443 -8 406.5 -5.5 c 128,-1,40
 370 -3 370 -3 332 -3 c 0,41,42
 298 -3 298 -3 263 -5.5 c 128,-1,43
 228 -8 228 -8 194 -8 c 0,44,45
 187 -8 187 -8 179 -7 c 128,-1,46
 171 -6 171 -6 173 5 c 0,47,48
 176 17 176 17 185.5 21 c 128,-1,49
 195 25 195 25 205 25 c 0,50,51
 213 25 213 25 217 26 c 0,52,53
 246 29 246 29 264 36 c 128,-1,54
 282 43 282 43 293.5 56 c 128,-1,55
 305 69 305 69 312 88.5 c 128,-1,56
 319 108 319 108 327 136 c 2,57,-1
 441 632 l 2,58,59
 442 637 442 637 444.5 651 c 128,-1,60
 447 665 447 665 447 670 c 0,61,62
 447 679 447 679 428.5 682.5 c 128,-1,63
 410 686 410 686 387 686 c 2,64,-1
 328 686 l 2,65,66
 306 686 306 686 284 679.5 c 128,-1,67
 262 673 262 673 239 653 c 0,68,69
 233 648 233 648 221.5 631.5 c 128,-1,70
 210 615 210 615 197 597.5 c 128,-1,71
 184 580 184 580 172.5 565.5 c 128,-1,72
 161 551 161 551 158 551 c 0,73,74
 149 551 149 551 144.5 555 c 128,-1,75
 140 559 140 559 143 570 c 0,76,77
 147 587 147 587 161 616.5 c 128,-1,78
 175 646 175 646 193 699 c 0,79,80
 196 710 196 710 200 723 c 128,-1,81
 204 736 204 736 209.5 746.5 c 128,-1,82
 215 757 215 757 223 763.5 c 128,-1,83
 231 770 231 770 244 770 c 0,84,85
 249 770 249 770 251 765 c 128,-1,86
 253 760 253 760 256.5 753 c 128,-1,87
 260 746 260 746 266.5 740 c 128,-1,88
 273 734 273 734 287 733 c 0,89,90
 343 730 343 730 403 728.5 c 128,-1,91
 463 727 463 727 520 727 c 0,92,93
 566 727 566 727 608.5 728 c 128,-1,94
 651 729 651 729 696 729 c 0,95,96
 710 729 710 729 725 729.5 c 128,-1,97
 740 730 740 730 756 732 c 0,98,99
 768 734 768 734 776.5 741.5 c 128,-1,100
 785 749 785 749 793 757 c 128,-1,101
 801 765 801 765 806.5 771.5 c 128,-1,102
 812 778 812 778 816 778 c 0,103,104
 832 778 832 778 833 764.5 c 128,-1,105
 834 751 834 751 828 740 c 0,0,1
EndSplineSet
Validated: 33
Substitution2: "'c2sc' Versalien in Kapit+AOQA-lchen in Lateinisch Nachschlagetabelle 0 Subtabelle" uni1D1B
EndChar

StartChar: U
Encoding: 85 85 70
Width: 772
Flags: W
LayerCount: 2
Fore
SplineSet
924 724 m 0,0,1
 921 713 921 713 908.5 706.5 c 128,-1,2
 896 700 896 700 879.5 696.5 c 128,-1,3
 863 693 863 693 849 691 c 128,-1,4
 835 689 835 689 829 686 c 0,5,6
 822 682 822 682 812.5 654 c 128,-1,7
 803 626 803 626 793.5 588 c 128,-1,8
 784 550 784 550 775.5 509 c 128,-1,9
 767 468 767 468 760 437 c 0,10,11
 754 409 754 409 747.5 381.5 c 128,-1,12
 741 354 741 354 735 327 c 0,13,14
 725 282 725 282 711 232.5 c 128,-1,15
 697 183 697 183 674.5 138.5 c 128,-1,16
 652 94 652 94 619 58.5 c 128,-1,17
 586 23 586 23 536 3 c 0,18,19
 492 -13 492 -13 447.5 -20 c 128,-1,20
 403 -27 403 -27 362 -27 c 0,21,22
 314 -27 314 -27 272 -17 c 128,-1,23
 230 -7 230 -7 201.5 16.5 c 128,-1,24
 173 40 173 40 159.5 79 c 128,-1,25
 146 118 146 118 155 177 c 0,26,27
 156 186 156 186 158 195.5 c 128,-1,28
 160 205 160 205 162 214 c 2,29,-1
 170 252 l 2,30,31
 190 339 190 339 211.5 424 c 128,-1,32
 233 509 233 509 254 596 c 0,33,34
 257 610 257 610 260.5 628.5 c 128,-1,35
 264 647 264 647 263.5 663 c 128,-1,36
 263 679 263 679 255.5 690 c 128,-1,37
 248 701 248 701 229 701 c 2,38,-1
 219 701 l 2,39,40
 214 701 214 701 207 701.5 c 128,-1,41
 200 702 200 702 193 704 c 128,-1,42
 186 706 186 706 182 710 c 128,-1,43
 178 714 178 714 179 721 c 0,44,45
 183 740 183 740 203 740 c 0,46,47
 234 740 234 740 263 737 c 128,-1,48
 292 734 292 734 323 734 c 0,49,50
 357 734 357 734 389 737 c 128,-1,51
 421 740 421 740 455 740 c 0,52,53
 462 740 462 740 473 738 c 128,-1,54
 484 736 484 736 481 725 c 0,55,56
 478 711 478 711 464.5 706.5 c 128,-1,57
 451 702 451 702 434 699 c 128,-1,58
 417 696 417 696 400 691 c 128,-1,59
 383 686 383 686 373 670 c 0,60,61
 369 663 369 663 363.5 649.5 c 128,-1,62
 358 636 358 636 352.5 619.5 c 128,-1,63
 347 603 347 603 343 585.5 c 128,-1,64
 339 568 339 568 335 553 c 2,65,-1
 292 365 l 2,66,67
 285 333 285 333 277.5 301 c 128,-1,68
 270 269 270 269 265 238 c 0,69,70
 254 175 254 175 259.5 133.5 c 128,-1,71
 265 92 265 92 283.5 68.5 c 128,-1,72
 302 45 302 45 333.5 36 c 128,-1,73
 365 27 365 27 406 27 c 0,74,75
 454 27 454 27 491 36.5 c 128,-1,76
 528 46 528 46 558 68.5 c 128,-1,77
 588 91 588 91 611 126.5 c 128,-1,78
 634 162 634 162 654 214 c 0,79,80
 666 243 666 243 674 273 c 2,81,-1
 725 493 l 2,82,83
 730 517 730 517 737.5 546 c 128,-1,84
 745 575 745 575 753 603 c 256,85,86
 759 631 759 631 761 653 c 128,-1,87
 763 675 763 675 757 683 c 256,88,89
 750 691 750 691 737 693 c 128,-1,90
 724 695 724 695 711.5 697.5 c 128,-1,91
 699 700 699 700 691.5 706 c 128,-1,92
 684 712 684 712 687 726 c 0,93,94
 689 736 689 736 696 738 c 128,-1,95
 703 740 703 740 712 740 c 0,96,97
 737 740 737 740 761 738 c 128,-1,98
 785 736 785 736 811 736 c 0,99,100
 837 736 837 736 863 737.5 c 128,-1,101
 889 739 889 739 914 739 c 1,102,103
 926 734 926 734 924 724 c 0,0,1
EndSplineSet
Validated: 33
Substitution2: "'c2sc' Versalien in Kapit+AOQA-lchen in Lateinisch Nachschlagetabelle 0 Subtabelle" uni1D1C
EndChar

StartChar: V
Encoding: 86 86 71
Width: 730
Flags: W
LayerCount: 2
Fore
SplineSet
889 723 m 0,0,1
 886 710 886 710 876.5 705.5 c 128,-1,2
 867 701 867 701 855.5 699 c 128,-1,3
 844 697 844 697 830.5 692.5 c 128,-1,4
 817 688 817 688 805 675 c 0,5,6
 801 670 801 670 792.5 656.5 c 128,-1,7
 784 643 784 643 774.5 627.5 c 128,-1,8
 765 612 765 612 756.5 597.5 c 128,-1,9
 748 583 748 583 743 575 c 0,10,11
 710 520 710 520 676.5 466.5 c 128,-1,12
 643 413 643 413 609 357 c 0,13,14
 553 264 553 264 498 172 c 128,-1,15
 443 80 443 80 386 -13 c 0,16,17
 383 -19 383 -19 380 -23 c 128,-1,18
 377 -27 377 -27 369 -27 c 0,19,20
 362 -27 362 -27 359.5 -21 c 128,-1,21
 357 -15 357 -15 356 -10 c 0,22,23
 348 48 348 48 339 108.5 c 128,-1,24
 330 169 330 169 322 227 c 0,25,26
 308 338 308 338 294 448 c 128,-1,27
 280 558 280 558 257 667 c 0,28,29
 253 686 253 686 238.5 692 c 128,-1,30
 224 698 224 698 209.5 701.5 c 128,-1,31
 195 705 195 705 184.5 708.5 c 128,-1,32
 174 712 174 712 177 725 c 0,33,34
 179 734 179 734 190 737.5 c 128,-1,35
 201 741 201 741 210 741 c 2,36,-1
 220 741 l 2,37,38
 243 741 243 741 265.5 738 c 128,-1,39
 288 735 288 735 310 735 c 0,40,41
 344 735 344 735 377.5 738 c 128,-1,42
 411 741 411 741 444 741 c 0,43,44
 452 741 452 741 457.5 735 c 128,-1,45
 463 729 463 729 461 720 c 0,46,47
 458 709 458 709 444.5 707 c 128,-1,48
 431 705 431 705 414 703.5 c 128,-1,49
 397 702 397 702 383 697.5 c 128,-1,50
 369 693 369 693 365 677 c 0,51,52
 364 674 364 674 364.5 670.5 c 128,-1,53
 365 667 365 667 365 664 c 0,54,55
 366 649 366 649 370.5 607 c 128,-1,56
 375 565 375 565 381.5 512 c 128,-1,57
 388 459 388 459 396 400 c 128,-1,58
 404 341 404 341 411.5 291 c 128,-1,59
 419 241 419 241 425.5 206 c 128,-1,60
 432 171 432 171 436 166 c 0,61,62
 438 163 438 163 442.5 166.5 c 128,-1,63
 447 170 447 170 452 175.5 c 128,-1,64
 457 181 457 181 460.5 187 c 128,-1,65
 464 193 464 193 466 195 c 0,66,67
 475 209 475 209 497.5 247.5 c 128,-1,68
 520 286 520 286 549 335 c 128,-1,69
 578 384 578 384 609 439 c 128,-1,70
 640 494 640 494 666.5 541 c 128,-1,71
 693 588 693 588 711 621 c 128,-1,72
 729 654 729 654 730 662 c 0,73,74
 735 684 735 684 721.5 689.5 c 128,-1,75
 708 695 708 695 690 697 c 128,-1,76
 672 699 672 699 657.5 703 c 128,-1,77
 643 707 643 707 646 722 c 0,78,79
 648 730 648 730 655.5 735.5 c 128,-1,80
 663 741 663 741 670 741 c 0,81,82
 701 741 701 741 731.5 737.5 c 128,-1,83
 762 734 762 734 793 734 c 0,84,85
 815 734 815 734 836 736.5 c 128,-1,86
 857 739 857 739 879 739 c 0,87,88
 886 739 886 739 888 734 c 128,-1,89
 890 729 890 729 889 723 c 0,0,1
EndSplineSet
Validated: 1
Substitution2: "'c2sc' Versalien in Kapit+AOQA-lchen in Lateinisch Nachschlagetabelle 0 Subtabelle" uni1D20
EndChar

StartChar: W
Encoding: 87 87 72
Width: 1042
Flags: W
LayerCount: 2
Fore
SplineSet
614 381 m 1,0,1
 606 455 606 455 595 525.5 c 128,-1,2
 584 596 584 596 569 667 c 0,3,4
 565 686 565 686 551 692 c 128,-1,5
 537 698 537 698 522 701.5 c 128,-1,6
 507 705 507 705 496.5 708.5 c 128,-1,7
 486 712 486 712 489 725 c 0,8,9
 491 734 491 734 502 737.5 c 128,-1,10
 513 741 513 741 522 741 c 2,11,-1
 532 741 l 2,12,13
 555 741 555 741 577.5 738 c 128,-1,14
 600 735 600 735 623 735 c 0,15,16
 657 735 657 735 690 738 c 128,-1,17
 723 741 723 741 757 741 c 0,18,19
 765 741 765 741 770.5 735 c 128,-1,20
 776 729 776 729 773 720 c 0,21,22
 770 709 770 709 756.5 707 c 128,-1,23
 743 705 743 705 726.5 703.5 c 128,-1,24
 710 702 710 702 695.5 697.5 c 128,-1,25
 681 693 681 693 677 677 c 0,26,27
 676 674 676 674 676.5 670.5 c 128,-1,28
 677 667 677 667 677 664 c 0,29,30
 678 649 678 649 682.5 607 c 128,-1,31
 687 565 687 565 693.5 512 c 128,-1,32
 700 459 700 459 708.5 400 c 128,-1,33
 717 341 717 341 724 291 c 128,-1,34
 731 241 731 241 737.5 206 c 128,-1,35
 744 171 744 171 749 166 c 0,36,37
 751 163 751 163 755.5 166.5 c 128,-1,38
 760 170 760 170 764.5 175.5 c 128,-1,39
 769 181 769 181 772.5 187 c 128,-1,40
 776 193 776 193 778 195 c 0,41,42
 787 209 787 209 810 247.5 c 128,-1,43
 833 286 833 286 861.5 335 c 128,-1,44
 890 384 890 384 921 439 c 128,-1,45
 952 494 952 494 979 541 c 128,-1,46
 1006 588 1006 588 1023.5 621 c 128,-1,47
 1041 654 1041 654 1042 662 c 0,48,49
 1047 684 1047 684 1033.5 689.5 c 128,-1,50
 1020 695 1020 695 1002 697 c 128,-1,51
 984 699 984 699 969.5 703 c 128,-1,52
 955 707 955 707 958 722 c 0,53,54
 960 730 960 730 967.5 735.5 c 128,-1,55
 975 741 975 741 982 741 c 0,56,57
 1013 741 1013 741 1043.5 737.5 c 128,-1,58
 1074 734 1074 734 1105 734 c 0,59,60
 1127 734 1127 734 1148 736.5 c 128,-1,61
 1169 739 1169 739 1191 739 c 0,62,63
 1198 739 1198 739 1200 734 c 128,-1,64
 1202 729 1202 729 1201 723 c 0,65,66
 1198 710 1198 710 1189 705.5 c 128,-1,67
 1180 701 1180 701 1168 699 c 128,-1,68
 1156 697 1156 697 1142.5 692.5 c 128,-1,69
 1129 688 1129 688 1117 675 c 0,70,71
 1113 670 1113 670 1105 656.5 c 128,-1,72
 1097 643 1097 643 1087 627.5 c 128,-1,73
 1077 612 1077 612 1068.5 597.5 c 128,-1,74
 1060 583 1060 583 1056 575 c 0,75,76
 1023 520 1023 520 989 466.5 c 128,-1,77
 955 413 955 413 922 357 c 0,78,79
 866 264 866 264 811 172 c 128,-1,80
 756 80 756 80 698 -13 c 0,81,82
 695 -19 695 -19 692 -23 c 128,-1,83
 689 -27 689 -27 681 -27 c 0,84,85
 674 -27 674 -27 672 -21 c 128,-1,86
 670 -15 670 -15 669 -10 c 0,87,88
 661 48 661 48 652 108.5 c 128,-1,89
 643 169 643 169 634 227 c 2,90,-1
 623 313 l 1,91,-1
 597 279 l 2,92,93
 590 271 590 271 568.5 240.5 c 128,-1,94
 547 210 547 210 523 173.5 c 128,-1,95
 499 137 499 137 476.5 103.5 c 128,-1,96
 454 70 454 70 444 55 c 0,97,98
 437 44 437 44 428.5 30 c 128,-1,99
 420 16 420 16 410 4 c 128,-1,100
 400 -8 400 -8 391 -17 c 128,-1,101
 382 -26 382 -26 375 -26 c 0,102,103
 363 -26 363 -26 360.5 -15.5 c 128,-1,104
 358 -5 358 -5 357 5 c 0,105,106
 329 168 329 168 302.5 325.5 c 128,-1,107
 276 483 276 483 245 644 c 0,108,109
 239 676 239 676 226 685.5 c 128,-1,110
 213 695 213 695 200.5 697.5 c 128,-1,111
 188 700 188 700 180.5 704.5 c 128,-1,112
 173 709 173 709 177 729 c 0,113,114
 178 735 178 735 183.5 737 c 128,-1,115
 189 739 189 739 196.5 740 c 128,-1,116
 204 741 204 741 209 740.5 c 128,-1,117
 214 740 214 740 216 740 c 0,118,119
 236 740 236 740 257 737.5 c 128,-1,120
 278 735 278 735 298 735 c 0,121,122
 323 735 323 735 349 737.5 c 128,-1,123
 375 740 375 740 399 740 c 0,124,125
 406 740 406 740 411.5 736 c 128,-1,126
 417 732 417 732 415 723 c 0,127,128
 412 712 412 712 402 709.5 c 128,-1,129
 392 707 392 707 380.5 705 c 128,-1,130
 369 703 369 703 359 699.5 c 128,-1,131
 349 696 349 696 346 683 c 0,132,133
 344 676 344 676 348 642.5 c 128,-1,134
 352 609 352 609 359.5 562.5 c 128,-1,135
 367 516 367 516 376 462.5 c 128,-1,136
 385 409 385 409 394 360 c 128,-1,137
 403 311 403 311 410.5 273.5 c 128,-1,138
 418 236 418 236 421 220 c 0,139,140
 422 210 422 210 425.5 191.5 c 128,-1,141
 429 173 429 173 433 156 c 128,-1,142
 437 139 437 139 442 129 c 128,-1,143
 447 119 447 119 452 126 c 2,144,-1
 614 381 l 1,0,1
EndSplineSet
Validated: 33
Substitution2: "'c2sc' Versalien in Kapit+AOQA-lchen in Lateinisch Nachschlagetabelle 0 Subtabelle" uni1D21
EndChar

StartChar: X
Encoding: 88 88 73
Width: 741
Flags: W
LayerCount: 2
Fore
SplineSet
726 13 m 0,0,1
 722 -6 722 -6 714 -7.5 c 128,-1,2
 706 -9 706 -9 691 -9 c 256,3,4
 677 -9 677 -9 666.5 -8 c 128,-1,5
 656 -7 656 -7 646.5 -6 c 128,-1,6
 637 -5 637 -5 626.5 -4 c 128,-1,7
 616 -3 616 -3 603 -3 c 0,8,9
 560 -3 560 -3 520 -5 c 128,-1,10
 480 -7 480 -7 437 -7 c 0,11,12
 427 -7 427 -7 425 2 c 128,-1,13
 423 11 423 11 430 22 c 1,14,15
 439 27 439 27 454.5 28 c 128,-1,16
 470 29 470 29 485 30.5 c 128,-1,17
 500 32 500 32 512.5 37 c 128,-1,18
 525 42 525 42 528 55 c 0,19,20
 529 61 529 61 527.5 67 c 128,-1,21
 526 73 526 73 525 78 c 0,22,23
 522 85 522 85 514.5 104 c 128,-1,24
 507 123 507 123 497 148 c 128,-1,25
 487 173 487 173 475.5 200 c 128,-1,26
 464 227 464 227 452.5 250 c 128,-1,27
 441 273 441 273 432.5 289.5 c 128,-1,28
 424 306 424 306 419 308 c 1,29,30
 407 302 407 302 398.5 292.5 c 128,-1,31
 390 283 390 283 382 273 c 0,32,33
 374 265 374 265 358 247.5 c 128,-1,34
 342 230 342 230 323.5 209 c 128,-1,35
 305 188 305 188 285.5 165 c 128,-1,36
 266 142 266 142 249 121 c 128,-1,37
 232 100 232 100 221 84 c 128,-1,38
 210 68 210 68 208 59 c 0,39,40
 204 43 204 43 217.5 38 c 128,-1,41
 231 33 231 33 248.5 30.5 c 128,-1,42
 266 28 266 28 280 23.5 c 128,-1,43
 294 19 294 19 290 4 c 0,44,45
 289 -2 289 -2 280.5 -4.5 c 128,-1,46
 272 -7 272 -7 264 -7 c 2,47,-1
 257 -7 l 2,48,49
 235 -7 235 -7 215.5 -4.5 c 128,-1,50
 196 -2 196 -2 173 -2 c 0,51,52
 154 -2 154 -2 138.5 -3 c 128,-1,53
 123 -4 123 -4 108 -4.5 c 128,-1,54
 93 -5 93 -5 77 -6 c 128,-1,55
 61 -7 61 -7 42 -7 c 0,56,57
 35 -7 35 -7 26.5 -4 c 128,-1,58
 18 -1 18 -1 22 10 c 0,59,60
 24 20 24 20 30.5 24.5 c 128,-1,61
 37 29 37 29 47 30.5 c 128,-1,62
 57 32 57 32 70 34 c 128,-1,63
 83 36 83 36 99 44 c 0,64,65
 121 55 121 55 142.5 74.5 c 128,-1,66
 164 94 164 94 185.5 116.5 c 128,-1,67
 207 139 207 139 227.5 162.5 c 128,-1,68
 248 186 248 186 268 206 c 0,69,70
 281 219 281 219 303.5 239.5 c 128,-1,71
 326 260 326 260 347.5 281.5 c 128,-1,72
 369 303 369 303 385.5 322 c 128,-1,73
 402 341 402 341 404 350 c 1,74,75
 399 373 399 373 388.5 393 c 128,-1,76
 378 413 378 413 369 433 c 0,77,78
 346 485 346 485 323 535 c 128,-1,79
 300 585 300 585 275 635 c 0,80,81
 268 647 268 647 263 660 c 128,-1,82
 258 673 258 673 250 684 c 0,83,84
 242 696 242 696 229.5 699.5 c 128,-1,85
 217 703 217 703 207.5 704.5 c 128,-1,86
 198 706 198 706 191.5 709 c 128,-1,87
 185 712 185 712 188 724 c 0,88,89
 191 735 191 735 203 738.5 c 128,-1,90
 215 742 215 742 222 742 c 0,91,92
 241 742 241 742 257.5 741 c 128,-1,93
 274 740 274 740 289.5 738.5 c 128,-1,94
 305 737 305 737 321.5 736 c 128,-1,95
 338 735 338 735 357 735 c 0,96,97
 382 735 382 735 408 738.5 c 128,-1,98
 434 742 434 742 459 742 c 2,99,-1
 468 742 l 2,100,101
 477 742 477 742 485 738.5 c 128,-1,102
 493 735 493 735 490 726 c 0,103,104
 487 711 487 711 471.5 707 c 128,-1,105
 456 703 456 703 437.5 702 c 128,-1,106
 419 701 419 701 403.5 698 c 128,-1,107
 388 695 388 695 385 682 c 0,108,109
 384 676 384 676 392 651 c 128,-1,110
 400 626 400 626 412.5 596 c 128,-1,111
 425 566 425 566 438 537 c 128,-1,112
 451 508 451 508 457 493 c 0,113,114
 459 490 459 490 463 481 c 128,-1,115
 467 472 467 472 470.5 462.5 c 128,-1,116
 474 453 474 453 478 445.5 c 128,-1,117
 482 438 482 438 486 438 c 0,118,119
 491 438 491 438 505 451 c 128,-1,120
 519 464 519 464 537 483.5 c 128,-1,121
 555 503 555 503 575 526.5 c 128,-1,122
 595 550 595 550 613 572 c 128,-1,123
 631 594 631 594 645 611.5 c 128,-1,124
 659 629 659 629 667 636 c 0,125,126
 673 642 673 642 682 655.5 c 128,-1,127
 691 669 691 669 692 676 c 0,128,129
 696 692 696 692 685 697.5 c 128,-1,130
 674 703 674 703 659.5 706 c 128,-1,131
 645 709 645 709 633 711.5 c 128,-1,132
 621 714 621 714 623 724 c 0,133,134
 626 737 626 737 638 739 c 128,-1,135
 650 741 650 741 659 741 c 0,136,137
 689 741 689 741 716.5 738 c 128,-1,138
 744 735 744 735 774 735 c 0,139,140
 797 735 797 735 818 737.5 c 128,-1,141
 839 740 839 740 863 740 c 0,142,143
 870 740 870 740 881 739 c 128,-1,144
 892 738 892 738 889 727 c 0,145,146
 888 721 888 721 883 717 c 128,-1,147
 878 713 878 713 872 711 c 0,148,149
 856 705 856 705 841.5 702 c 128,-1,150
 827 699 827 699 814 695 c 128,-1,151
 801 691 801 691 787 683.5 c 128,-1,152
 773 676 773 676 757 662 c 0,153,154
 694 604 694 604 634.5 540.5 c 128,-1,155
 575 477 575 477 518 415 c 0,156,157
 508 406 508 406 505 395 c 1,158,159
 506 380 506 380 511.5 366.5 c 128,-1,160
 517 353 517 353 523 340 c 0,161,162
 553 272 553 272 582 206.5 c 128,-1,163
 611 141 611 141 643 77 c 0,164,165
 647 68 647 68 652.5 59.5 c 128,-1,166
 658 51 658 51 667 45 c 0,167,168
 675 37 675 37 686 33.5 c 128,-1,169
 697 30 697 30 706.5 27.5 c 128,-1,170
 716 25 716 25 721.5 22 c 128,-1,171
 727 19 727 19 726 13 c 0,0,1
EndSplineSet
Validated: 1
Substitution2: "'c2sc' Versalien in Kapit+AOQA-lchen in Lateinisch Nachschlagetabelle 0 Subtabelle" x.sc
EndChar

StartChar: Y
Encoding: 89 89 74
Width: 744
Flags: W
LayerCount: 2
Fore
SplineSet
202 741 m 0,0,1
 229 741 229 741 253.5 737 c 128,-1,2
 278 733 278 733 304 733 c 0,3,4
 340 733 340 733 378 736.5 c 128,-1,5
 416 740 416 740 453 740 c 0,6,7
 458 740 458 740 463.5 735 c 128,-1,8
 469 730 469 730 468 725 c 0,9,10
 465 710 465 710 450.5 707.5 c 128,-1,11
 436 705 436 705 421 704 c 128,-1,12
 406 703 406 703 391.5 700.5 c 128,-1,13
 377 698 377 698 374 684 c 0,14,15
 371 673 371 673 376 655.5 c 128,-1,16
 381 638 381 638 388.5 619 c 128,-1,17
 396 600 396 600 405 582 c 128,-1,18
 414 564 414 564 420 552 c 0,19,20
 434 516 434 516 449 480.5 c 128,-1,21
 464 445 464 445 480 413 c 0,22,23
 482 409 482 409 483.5 405 c 128,-1,24
 485 401 485 401 490 399 c 0,25,26
 493 400 493 400 497 403.5 c 128,-1,27
 501 407 501 407 504 409 c 0,28,29
 511 415 511 415 530.5 436 c 128,-1,30
 550 457 550 457 576 485 c 128,-1,31
 602 513 602 513 630 545.5 c 128,-1,32
 658 578 658 578 682.5 605.5 c 128,-1,33
 707 633 707 633 722.5 652.5 c 128,-1,34
 738 672 738 672 739 676 c 0,35,36
 743 693 743 693 731 697.5 c 128,-1,37
 719 702 719 702 703.5 703.5 c 128,-1,38
 688 705 688 705 675.5 707.5 c 128,-1,39
 663 710 663 710 666 724 c 0,40,41
 669 736 669 736 674.5 737.5 c 128,-1,42
 680 739 680 739 689 739 c 0,43,44
 711 739 711 739 732.5 736 c 128,-1,45
 754 733 754 733 776 733 c 0,46,47
 801 733 801 733 826 736.5 c 128,-1,48
 851 740 851 740 876 740 c 0,49,50
 889 740 889 740 898.5 735 c 128,-1,51
 908 730 908 730 899 717 c 0,52,53
 893 709 893 709 883 706 c 128,-1,54
 873 703 873 703 861.5 701 c 128,-1,55
 850 699 850 699 836 694 c 128,-1,56
 822 689 822 689 809 676 c 0,57,58
 764 632 764 632 720.5 586 c 128,-1,59
 677 540 677 540 633 494 c 0,60,61
 614 474 614 474 589.5 450.5 c 128,-1,62
 565 427 565 427 542.5 403 c 128,-1,63
 520 379 520 379 503.5 354.5 c 128,-1,64
 487 330 487 330 482 307 c 2,65,-1
 435 103 l 2,66,67
 429 75 429 75 433 60.5 c 128,-1,68
 437 46 437 46 447 40 c 128,-1,69
 457 34 457 34 470.5 33 c 128,-1,70
 484 32 484 32 497 31.5 c 128,-1,71
 510 31 510 31 518.5 28.5 c 128,-1,72
 527 26 527 26 529 15 c 0,73,74
 527 6 527 6 521.5 -1 c 128,-1,75
 516 -8 516 -8 506 -8 c 0,76,77
 469 -8 469 -8 432 -4.5 c 128,-1,78
 395 -1 395 -1 357 -1 c 0,79,80
 323 -1 323 -1 288.5 -4.5 c 128,-1,81
 254 -8 254 -8 220 -8 c 0,82,83
 217 -8 217 -8 213.5 -7 c 128,-1,84
 210 -6 210 -6 211 -1 c 0,85,86
 210 14 210 14 221.5 20 c 128,-1,87
 233 26 233 26 250.5 28.5 c 128,-1,88
 268 31 268 31 286 34 c 128,-1,89
 304 37 304 37 317 49 c 0,90,91
 323 55 323 55 329.5 69 c 128,-1,92
 336 83 336 83 341.5 101 c 128,-1,93
 347 119 347 119 352 139.5 c 128,-1,94
 357 160 357 160 361 178 c 2,95,-1
 383 268 l 2,96,97
 390 300 390 300 394 321.5 c 128,-1,98
 398 343 398 343 390 360 c 0,99,100
 357 440 357 440 324 516.5 c 128,-1,101
 291 593 291 593 258 673 c 0,102,103
 251 689 251 689 236.5 696 c 128,-1,104
 222 703 222 703 208.5 707 c 128,-1,105
 195 711 195 711 185 714.5 c 128,-1,106
 175 718 175 718 177 729 c 0,107,108
 179 739 179 739 187 740 c 128,-1,109
 195 741 195 741 202 741 c 0,0,1
EndSplineSet
Validated: 33
Substitution2: "'c2sc' Versalien in Kapit+AOQA-lchen in Lateinisch Nachschlagetabelle 0 Subtabelle" uni028F
EndChar

StartChar: Z
Encoding: 90 90 75
Width: 718
Flags: W
LayerCount: 2
Fore
SplineSet
258 750 m 0,0,1
 268 750 268 750 273 749 c 128,-1,2
 278 748 278 748 281.5 746 c 128,-1,3
 285 744 285 744 289.5 742 c 128,-1,4
 294 740 294 740 304 739 c 1,5,6
 311 733 311 733 328 731 c 128,-1,7
 345 729 345 729 360 729 c 2,8,-1
 378 729 l 2,9,10
 421 729 421 729 473.5 730 c 128,-1,11
 526 731 526 731 581 731.5 c 128,-1,12
 636 732 636 732 689 733 c 128,-1,13
 742 734 742 734 785 734 c 0,14,15
 794 734 794 734 809 736.5 c 128,-1,16
 824 739 824 739 836.5 740 c 128,-1,17
 849 741 849 741 856 737 c 128,-1,18
 863 733 863 733 857 721 c 0,19,20
 857 720 857 720 836 699 c 128,-1,21
 815 678 815 678 780 644 c 128,-1,22
 745 610 745 610 700 566.5 c 128,-1,23
 655 523 655 523 608 477 c 128,-1,24
 561 431 561 431 514 385.5 c 128,-1,25
 467 340 467 340 428 301.5 c 128,-1,26
 389 263 389 263 361.5 236 c 128,-1,27
 334 209 334 209 325 200 c 0,28,29
 315 189 315 189 294 168.5 c 128,-1,30
 273 148 273 148 251.5 126 c 128,-1,31
 230 104 230 104 213 84.5 c 128,-1,32
 196 65 196 65 190 52 c 0,33,34
 188 44 188 44 194 40 c 128,-1,35
 200 36 200 36 208 35 c 128,-1,36
 216 34 216 34 226 34.5 c 128,-1,37
 236 35 236 35 243 35 c 0,38,39
 286 35 286 35 336 35.5 c 128,-1,40
 386 36 386 36 429 36 c 0,41,42
 463 36 463 36 502 37.5 c 128,-1,43
 541 39 541 39 577 49 c 0,44,45
 604 59 604 59 620.5 77 c 128,-1,46
 637 95 637 95 655 119 c 0,47,48
 663 130 663 130 670.5 144 c 128,-1,49
 678 158 678 158 685.5 168 c 128,-1,50
 693 178 693 178 701 180.5 c 128,-1,51
 709 183 709 183 718 173 c 1,52,53
 717 156 717 156 713 140 c 0,54,55
 709 123 709 123 700.5 105 c 128,-1,56
 692 87 692 87 685 70 c 0,57,58
 680 58 680 58 675.5 44 c 128,-1,59
 671 30 671 30 664.5 18 c 128,-1,60
 658 6 658 6 648.5 -1 c 128,-1,61
 639 -8 639 -8 625 -8 c 0,62,63
 589 -8 589 -8 553 -6 c 128,-1,64
 517 -4 517 -4 480 -4 c 2,65,-1
 397 -4 l 2,66,67
 310 -4 310 -4 216 -7.5 c 128,-1,68
 122 -11 122 -11 35 -11 c 0,69,70
 20 -11 20 -11 24 4 c 0,71,72
 24 6 24 6 44.5 27 c 128,-1,73
 65 48 65 48 98 82.5 c 128,-1,74
 131 117 131 117 174.5 160.5 c 128,-1,75
 218 204 218 204 263.5 250 c 128,-1,76
 309 296 309 296 354.5 341.5 c 128,-1,77
 400 387 400 387 437.5 424.5 c 128,-1,78
 475 462 475 462 502 489 c 128,-1,79
 529 516 529 516 538 525 c 256,80,81
 547 534 547 534 570 556 c 128,-1,82
 593 578 593 578 617.5 601 c 128,-1,83
 642 624 642 624 662.5 644.5 c 128,-1,84
 683 665 683 665 688 672 c 0,85,86
 690 674 690 674 694 679.5 c 128,-1,87
 698 685 698 685 700 688 c 0,88,89
 702 692 702 692 695 693.5 c 128,-1,90
 688 695 688 695 678 695 c 0,91,92
 669 695 669 695 659 694.5 c 128,-1,93
 649 694 649 694 646 694 c 2,94,-1
 580 694 l 2,95,96
 552 694 552 694 522.5 693.5 c 128,-1,97
 493 693 493 693 463.5 692.5 c 128,-1,98
 434 692 434 692 407 691.5 c 128,-1,99
 380 691 380 691 358 690 c 0,100,101
 327 688 327 688 300.5 680 c 128,-1,102
 274 672 274 672 247 646 c 0,103,104
 238 638 238 638 228 625.5 c 128,-1,105
 218 613 218 613 209.5 601 c 128,-1,106
 201 589 201 589 192 580 c 128,-1,107
 183 571 183 571 177 571 c 0,108,109
 172 571 172 571 164 574 c 128,-1,110
 156 577 156 577 160 585 c 0,111,112
 172 612 172 612 186 638.5 c 128,-1,113
 200 665 200 665 213 691 c 0,114,115
 226 714 226 714 235.5 732 c 128,-1,116
 245 750 245 750 258 750 c 0,0,1
EndSplineSet
Validated: 1
Substitution2: "'c2sc' Versalien in Kapit+AOQA-lchen in Lateinisch Nachschlagetabelle 0 Subtabelle" uni1D22
EndChar

StartChar: bracketleft
Encoding: 91 91 76
Width: 315
Flags: W
LayerCount: 2
Fore
SplineSet
487 734 m 0,0,1
 483 717 483 717 466.5 707 c 128,-1,2
 450 697 450 697 430.5 692 c 128,-1,3
 411 687 411 687 391.5 685.5 c 128,-1,4
 372 684 372 684 362 684 c 0,5,6
 354 684 354 684 346 685 c 128,-1,7
 338 686 338 686 330 686 c 0,8,9
 317 686 317 686 306.5 679.5 c 128,-1,10
 296 673 296 673 293 658 c 0,11,12
 276 600 276 600 262.5 544.5 c 128,-1,13
 249 489 249 489 236 431 c 0,14,15
 204 295 204 295 172.5 163 c 128,-1,16
 141 31 141 31 113 -105 c 0,17,18
 111 -112 111 -112 109.5 -126.5 c 128,-1,19
 108 -141 108 -141 112 -146 c 0,20,21
 118 -154 118 -154 133 -154 c 128,-1,22
 148 -154 148 -154 159 -154 c 0,23,24
 168 -154 168 -154 188 -155.5 c 128,-1,25
 208 -157 208 -157 227.5 -162.5 c 128,-1,26
 247 -168 247 -168 259 -177.5 c 128,-1,27
 271 -187 271 -187 267 -203 c 0,28,29
 264 -210 264 -210 259 -212 c 128,-1,30
 254 -214 254 -214 249 -214 c 0,31,32
 238 -214 238 -214 227.5 -209 c 128,-1,33
 217 -204 217 -204 206 -202 c 0,34,35
 180 -197 180 -197 154 -196 c 128,-1,36
 128 -195 128 -195 100 -200 c 0,37,38
 83 -203 83 -203 66.5 -209.5 c 128,-1,39
 50 -216 50 -216 34 -216 c 0,40,41
 25 -216 25 -216 24 -210 c 128,-1,42
 23 -204 23 -204 25 -196 c 2,43,-1
 241 730 l 2,44,45
 242 734 242 734 243.5 738.5 c 128,-1,46
 245 743 245 743 250 745 c 0,47,48
 252 747 252 747 259 748 c 0,49,50
 279 748 279 748 298 742 c 128,-1,51
 317 736 317 736 337 733 c 0,52,53
 347 731 347 731 358.5 730 c 128,-1,54
 370 729 370 729 380 729 c 0,55,56
 415 729 415 729 451 738 c 0,57,58
 459 740 459 740 466.5 743 c 128,-1,59
 474 746 474 746 482 746 c 0,60,61
 486 746 486 746 487 742 c 128,-1,62
 488 738 488 738 487 734 c 0,0,1
EndSplineSet
Validated: 33
EndChar

StartChar: backslash
Encoding: 92 92 77
Width: 312
Flags: W
LayerCount: 2
Fore
SplineSet
287 -22 m 1,0,1
 252 179 252 179 216 375.5 c 128,-1,2
 180 572 180 572 145 773 c 1,3,-1
 200 773 l 1,4,5
 235 572 235 572 270 375.5 c 128,-1,6
 305 179 305 179 341 -22 c 1,7,-1
 287 -22 l 1,0,1
EndSplineSet
Validated: 1
EndChar

StartChar: bracketright
Encoding: 93 93 78
Width: 306
Flags: W
LayerCount: 2
Fore
SplineSet
170 734 m 0,0,1
 171 738 171 738 173.5 742 c 128,-1,2
 176 746 176 746 180 746 c 0,3,4
 187 746 187 746 194 743 c 128,-1,5
 201 740 201 740 208 738 c 0,6,7
 239 729 239 729 274 729 c 0,8,9
 284 729 284 729 296 730 c 128,-1,10
 308 731 308 731 318 733 c 0,11,12
 340 736 340 736 361.5 742 c 128,-1,13
 383 748 383 748 404 748 c 0,14,15
 411 748 411 748 412 745 c 0,16,17
 416 743 416 743 415.5 738.5 c 128,-1,18
 415 734 415 734 415 730 c 2,19,-1
 203 -196 l 2,20,21
 201 -204 201 -204 197 -210 c 128,-1,22
 193 -216 193 -216 183 -216 c 0,23,24
 167 -216 167 -216 153.5 -209.5 c 128,-1,25
 140 -203 140 -203 125 -200 c 0,26,27
 99 -195 99 -195 72.5 -196 c 128,-1,28
 46 -197 46 -197 18 -202 c 0,29,30
 6 -204 6 -204 -6 -209 c 128,-1,31
 -18 -214 -18 -214 -31 -214 c 0,32,33
 -36 -214 -36 -214 -40 -212 c 128,-1,34
 -44 -210 -44 -210 -43 -203 c 0,35,36
 -40 -188 -40 -188 -23 -178 c 128,-1,37
 -6 -168 -6 -168 15.5 -162.5 c 128,-1,38
 37 -157 37 -157 57.5 -155.5 c 128,-1,39
 78 -154 78 -154 87 -154 c 0,40,41
 97 -154 97 -154 113 -154.5 c 128,-1,42
 129 -155 129 -155 138 -146 c 0,43,44
 144 -141 144 -141 149.5 -127 c 128,-1,45
 155 -113 155 -113 157 -105 c 0,46,47
 191 31 191 31 220.5 163 c 128,-1,48
 250 295 250 295 282 431 c 0,49,50
 295 489 295 489 307 544.5 c 128,-1,51
 319 600 319 600 329 658 c 0,52,53
 332 672 332 672 324.5 679 c 128,-1,54
 317 686 317 686 304 686 c 0,55,56
 297 686 297 686 288.5 685 c 128,-1,57
 280 684 280 684 271 684 c 0,58,59
 262 684 262 684 243 685.5 c 128,-1,60
 224 687 224 687 206.5 692 c 128,-1,61
 189 697 189 697 177.5 707 c 128,-1,62
 166 717 166 717 170 734 c 0,0,1
EndSplineSet
Validated: 33
EndChar

StartChar: asciicircum
Encoding: 94 94 79
Width: 366
Flags: W
LayerCount: 2
Fore
SplineSet
139 502 m 0,0,1
 133 502 133 502 135 509 c 0,2,3
 136 512 136 512 151 527.5 c 128,-1,4
 166 543 166 543 188 565 c 128,-1,5
 210 587 210 587 236.5 612 c 128,-1,6
 263 637 263 637 286.5 659 c 128,-1,7
 310 681 310 681 327.5 696.5 c 128,-1,8
 345 712 345 712 349 715 c 0,9,10
 352 714 352 714 357 707 c 0,11,12
 377 673 377 673 396.5 637.5 c 128,-1,13
 416 602 416 602 437 569 c 0,14,15
 437 567 437 567 443 559 c 128,-1,16
 449 551 449 551 454 541.5 c 128,-1,17
 459 532 459 532 463.5 524.5 c 128,-1,18
 468 517 468 517 468 517 c 2,19,20
 468 511 468 511 468 509 c 0,21,22
 466 502 466 502 458 502 c 0,23,24
 451 502 451 502 432.5 518.5 c 128,-1,25
 414 535 414 535 393.5 555 c 128,-1,26
 373 575 373 575 354.5 595 c 128,-1,27
 336 615 336 615 328 623 c 1,28,29
 316 615 316 615 288.5 594.5 c 128,-1,30
 261 574 261 574 231 554 c 128,-1,31
 201 534 201 534 174.5 518 c 128,-1,32
 148 502 148 502 139 502 c 0,0,1
EndSplineSet
Validated: 1
EndChar

StartChar: underscore
Encoding: 95 95 80
Width: 574
Flags: W
LayerCount: 2
Fore
SplineSet
-24 -142 m 1,0,-1
 -10 -86 l 1,1,-1
 546 -86 l 1,2,-1
 532 -142 l 1,3,-1
 -24 -142 l 1,0,-1
EndSplineSet
Validated: 1
EndChar

StartChar: grave
Encoding: 96 96 81
Width: 409
Flags: W
LayerCount: 2
Fore
SplineSet
301 714 m 0,0,1
 308 719 308 719 310.5 721 c 128,-1,2
 313 723 313 723 317 725 c 128,-1,3
 321 727 321 727 325.5 730 c 128,-1,4
 330 733 330 733 340 740 c 0,5,6
 346 748 346 748 352 744.5 c 128,-1,7
 358 741 358 741 359 736 c 0,8,9
 361 726 361 726 370.5 701 c 128,-1,10
 380 676 380 676 389.5 649 c 128,-1,11
 399 622 399 622 407 598 c 128,-1,12
 415 574 415 574 414 567 c 0,13,14
 414 557 414 557 405.5 552 c 128,-1,15
 397 547 397 547 391 556 c 0,16,17
 384 565 384 565 370 583 c 128,-1,18
 356 601 356 601 341.5 621.5 c 128,-1,19
 327 642 327 642 314 660.5 c 128,-1,20
 301 679 301 679 295 690 c 0,21,22
 291 697 291 697 291.5 702 c 128,-1,23
 292 707 292 707 301 714 c 0,0,1
EndSplineSet
Validated: 1
EndChar

StartChar: a
Encoding: 97 97 82
Width: 494
Flags: W
LayerCount: 2
Fore
SplineSet
346 204 m 1,0,1
 349 215 349 215 350 223 c 128,-1,2
 351 231 351 231 351 238 c 1,3,4
 342 236 342 236 328.5 231.5 c 128,-1,5
 315 227 315 227 301.5 222 c 128,-1,6
 288 217 288 217 275 212 c 128,-1,7
 262 207 262 207 253 204 c 0,8,9
 223 193 223 193 195.5 172 c 128,-1,10
 168 151 168 151 160 116 c 0,11,12
 153 85 153 85 161.5 65 c 128,-1,13
 170 45 170 45 202 45 c 0,14,15
 224 45 224 45 247.5 57 c 128,-1,16
 271 69 271 69 290 85 c 0,17,18
 300 94 300 94 313 111 c 128,-1,19
 326 128 326 128 330 140 c 0,20,21
 332 148 332 148 333 151 c 128,-1,22
 334 154 334 154 334 155 c 2,23,-1
 346 204 l 1,0,1
489 81 m 0,24,25
 489 80 489 80 485 71 c 0,26,27
 469 34 469 34 436.5 11 c 128,-1,28
 404 -12 404 -12 371 -12 c 256,29,30
 337 -12 337 -12 323 12.5 c 128,-1,31
 309 37 309 37 309 73 c 1,32,33
 294 56 294 56 273.5 39.5 c 128,-1,34
 253 23 253 23 229.5 9 c 128,-1,35
 206 -5 206 -5 182 -12.5 c 128,-1,36
 158 -20 158 -20 137 -20 c 0,37,38
 85 -20 85 -20 71.5 13 c 128,-1,39
 58 46 58 46 71 97 c 0,40,41
 77 122 77 122 93.5 143 c 128,-1,42
 110 164 110 164 131.5 181 c 128,-1,43
 153 198 153 198 177 210 c 128,-1,44
 201 222 201 222 221 229 c 0,45,46
 260 243 260 243 292 254.5 c 128,-1,47
 324 266 324 266 362 276 c 1,48,-1
 382 361 l 2,49,50
 392 407 392 407 383 435.5 c 128,-1,51
 374 464 374 464 328 464 c 0,52,53
 297 464 297 464 276 452.5 c 128,-1,54
 255 441 255 441 240.5 425 c 128,-1,55
 226 409 226 409 218.5 393.5 c 128,-1,56
 211 378 211 378 207 370 c 0,57,58
 198 353 198 353 179 340.5 c 128,-1,59
 160 328 160 328 140 328 c 0,60,61
 129 328 129 328 129.5 338.5 c 128,-1,62
 130 349 130 349 132 358 c 0,63,64
 138 385 138 385 165.5 414 c 128,-1,65
 193 443 193 443 228 468 c 128,-1,66
 263 493 263 493 302 508.5 c 128,-1,67
 341 524 341 524 370 524 c 0,68,69
 377 524 377 524 387 522.5 c 128,-1,70
 397 521 397 521 408 518.5 c 128,-1,71
 419 516 419 516 428.5 513 c 128,-1,72
 438 510 438 510 443 507 c 0,73,74
 473 488 473 488 474 457 c 128,-1,75
 475 426 475 426 467 388 c 0,76,77
 457 346 457 346 445 298.5 c 128,-1,78
 433 251 433 251 423 209 c 0,79,80
 421 199 421 199 416.5 179.5 c 128,-1,81
 412 160 412 160 407 139 c 128,-1,82
 402 118 402 118 399.5 100 c 128,-1,83
 397 82 397 82 399 75 c 0,84,85
 401 67 401 67 409 64 c 128,-1,86
 417 61 417 61 425 61 c 0,87,88
 436 61 436 61 444 65 c 128,-1,89
 452 69 452 69 458 74 c 128,-1,90
 464 79 464 79 469 83.5 c 128,-1,91
 474 88 474 88 479 89 c 0,92,93
 492 92 492 92 489 81 c 0,24,25
EndSplineSet
Validated: 33
Substitution2: "'smcp' Gemeine in Kapit+AOQA-lchen in Lateinisch Nachschlagetabelle 0 Subtabelle" uni1D00
EndChar

StartChar: b
Encoding: 98 98 83
Width: 559
Flags: W
LayerCount: 2
Fore
SplineSet
494 222 m 0,0,1
 504 268 504 268 503 311 c 128,-1,2
 502 354 502 354 487 387.5 c 128,-1,3
 472 421 472 421 442.5 441 c 128,-1,4
 413 461 413 461 368 461 c 0,5,6
 342 461 342 461 325.5 453.5 c 128,-1,7
 309 446 309 446 285 430 c 0,8,9
 273 420 273 420 269.5 405.5 c 128,-1,10
 266 391 266 391 263 378 c 2,11,-1
 216 171 l 2,12,13
 210 146 210 146 210 124 c 128,-1,14
 210 102 210 102 219 84 c 0,15,16
 233 58 233 58 251.5 42 c 128,-1,17
 270 26 270 26 301 26 c 0,18,19
 337 26 337 26 368.5 43 c 128,-1,20
 400 60 400 60 425.5 88.5 c 128,-1,21
 451 117 451 117 468.5 151.5 c 128,-1,22
 486 186 486 186 494 222 c 0,0,1
595 257 m 0,23,24
 582 198 582 198 549 147.5 c 128,-1,25
 516 97 516 97 472 61 c 0,26,27
 427 24 427 24 375 5 c 0,28,29
 324 -15 324 -15 271 -15 c 0,30,31
 261 -15 261 -15 254 -15 c 128,-1,33
 247 -15 247 -15 242 -12.5 c 128,-1,34
 237 -10 237 -10 230 -8 c 0,35,36
 224 -6 224 -6 216 -3 c 0,37,38
 209 -1 209 -1 195 9 c 0,39,40
 180 19 180 19 159 18 c 0,41,42
 148 18 148 18 140 14 c 128,-1,44
 132 10 132 10 127 5 c 0,45,46
 115 -6 115 -6 115 -6 c 0,47,48
 114 -7 114 -7 99 -15 c 0,49,50
 86 -23 86 -23 79 -17 c 0,51,52
 74 -12 74 -12 82 2 c 0,53,54
 100 41 100 41 116 100 c 0,55,56
 145 217 145 217 144 217 c 2,57,-1
 163 297 l 2,58,59
 213 517 213 517 214 519 c 0,60,61
 231 605 231 605 237 631 c 2,62,-1
 247 674 l 2,63,64
 254 703 254 703 247 714 c 0,65,66
 241 726 241 726 229 731 c 0,67,68
 220 736 220 736 211 738 c 0,69,70
 203 741 203 741 204 751 c 256,71,72
 207 762 207 762 217 766 c 0,73,74
 247 775 247 775 267 784 c 0,75,76
 289 793 289 793 302 802 c 0,77,78
 316 809 316 809 326.5 814 c 128,-1,79
 337 819 337 819 345 819 c 0,80,81
 359 819 359 819 360 807 c 0,82,83
 361 793 361 793 359 787 c 0,84,85
 350 757 350 757 349 751 c 0,86,87
 339 714 339 714 338 714 c 0,88,89
 336 701 336 701 324 645 c 0,90,91
 305 553 305 553 279 454 c 1,92,93
 301 468 301 468 319 480 c 128,-1,95
 337 492 337 492 355.5 501 c 128,-1,96
 374 510 374 510 392 515 c 0,97,98
 411 521 411 521 434 521 c 0,99,100
 482 521 482 521 517 499 c 0,101,102
 553 476 553 476 573 438 c 0,103,104
 595 400 595 400 601 354 c 128,-1,106
 607 308 607 308 595 257 c 0,23,24
EndSplineSet
Substitution2: "'smcp' Gemeine in Kapit+AOQA-lchen in Lateinisch Nachschlagetabelle 0 Subtabelle" uni0299
EndChar

StartChar: c
Encoding: 99 99 84
Width: 467
Flags: W
LayerCount: 2
Fore
SplineSet
527 434 m 0,0,1
 523 414 523 414 510 403 c 128,-1,2
 497 392 497 392 480 392 c 256,3,4
 464 392 464 392 454 406.5 c 128,-1,5
 444 421 444 421 435 438 c 128,-1,6
 426 455 426 455 414 469 c 128,-1,7
 402 483 402 483 383 483 c 0,8,9
 345 483 345 483 314 462.5 c 128,-1,10
 283 442 283 442 258.5 410 c 128,-1,11
 234 378 234 378 218.5 339.5 c 128,-1,12
 203 301 203 301 194 264 c 0,13,14
 185 224 185 224 184.5 185 c 128,-1,15
 184 146 184 146 196.5 115.5 c 128,-1,16
 209 85 209 85 234 66 c 128,-1,17
 259 47 259 47 299 47 c 2,18,-1
 322 47 l 2,19,20
 349 47 349 47 374 59.5 c 128,-1,21
 399 72 399 72 424 89 c 0,22,23
 430 93 430 93 435 96.5 c 128,-1,24
 440 100 440 100 446 104 c 1,25,26
 451 98 451 98 450 90 c 0,27,28
 448 80 448 80 438 69.5 c 128,-1,29
 428 59 428 59 421 51 c 0,30,31
 413 42 413 42 400 33 c 128,-1,32
 387 24 387 24 372 14.5 c 128,-1,33
 357 5 357 5 343 -2 c 128,-1,34
 329 -9 329 -9 318 -12 c 0,35,36
 279 -24 279 -24 250 -25 c 0,37,38
 202 -25 202 -25 168.5 -4.5 c 128,-1,39
 135 16 135 16 116.5 52 c 128,-1,40
 98 88 98 88 95 134 c 128,-1,41
 92 180 92 180 104 231 c 0,42,43
 116 288 116 288 144.5 340 c 128,-1,44
 173 392 173 392 213.5 432 c 128,-1,45
 254 472 254 472 302.5 495.5 c 128,-1,46
 351 519 351 519 403 519 c 0,47,48
 419 519 419 519 443.5 516 c 128,-1,49
 468 513 468 513 488.5 503.5 c 128,-1,50
 509 494 509 494 521 477 c 128,-1,51
 533 460 533 460 527 434 c 0,0,1
EndSplineSet
Validated: 33
Substitution2: "'smcp' Gemeine in Kapit+AOQA-lchen in Lateinisch Nachschlagetabelle 0 Subtabelle" uni1D04
EndChar

StartChar: d
Encoding: 100 100 85
Width: 604
Flags: W
LayerCount: 2
Fore
SplineSet
453 203 m 0,0,1
 462 244 462 244 473 291 c 128,-1,2
 484 338 484 338 485 378 c 128,-1,3
 486 418 486 418 470.5 444 c 128,-1,4
 455 470 455 470 411 470 c 0,5,6
 370 470 370 470 335.5 452 c 128,-1,7
 301 434 301 434 274 405 c 128,-1,8
 247 376 247 376 228.5 337.5 c 128,-1,9
 210 299 210 299 201 258 c 0,10,11
 191 215 191 215 193.5 175.5 c 128,-1,12
 196 136 196 136 210.5 106.5 c 128,-1,13
 225 77 225 77 254.5 59.5 c 128,-1,14
 284 42 284 42 326 42 c 0,15,16
 333 42 333 42 347.5 47.5 c 128,-1,17
 362 53 362 53 378 61 c 128,-1,18
 394 69 394 69 407.5 77 c 128,-1,19
 421 85 421 85 426 92 c 0,20,21
 433 121 433 121 440 149 c 128,-1,22
 447 177 447 177 453 203 c 0,0,1
571 32 m 0,23,24
 569 25 569 25 563 18 c 0,25,26
 559 15 559 15 537.5 8 c 128,-1,27
 516 1 516 1 490.5 -6 c 128,-1,28
 465 -13 465 -13 441.5 -18.5 c 128,-1,29
 418 -24 418 -24 412 -24 c 256,30,31
 406 -24 406 -24 404 -23 c 0,32,33
 400 -16 400 -16 404 -1 c 0,34,35
 407 8 407 8 409.5 16.5 c 128,-1,36
 412 25 412 25 415 34 c 0,37,38
 416 39 416 39 417 44 c 0,39,40
 417 50 417 50 413 52 c 1,41,42
 404 47 404 47 394 41 c 0,43,44
 385 34 385 34 376 28 c 0,45,46
 334 4 334 4 307.5 -6 c 128,-1,47
 281 -16 281 -16 252 -17 c 0,48,49
 209 -17 209 -17 175 2 c 0,50,51
 142 21 142 21 122 54 c 128,-1,52
 102 87 102 87 96.5 128.5 c 128,-1,53
 91 170 91 170 101 218 c 0,54,55
 115 276 115 276 145 329 c 0,56,57
 176 381 176 381 218 419.5 c 128,-1,58
 260 458 260 458 310 480 c 0,59,60
 362 504 362 504 416 503 c 0,61,62
 433 503 433 503 444.5 501.5 c 128,-1,63
 456 500 456 500 465 496 c 0,64,65
 474 493 474 493 484.5 487.5 c 128,-1,66
 495 482 495 482 509 475 c 1,67,68
 515 481 515 481 518 488 c 0,69,70
 524 503 524 503 524 504 c 0,71,72
 527 519 527 519 530 536 c 0,73,74
 539 577 539 577 541 580 c 0,75,76
 543 589 543 589 545 598 c 0,77,78
 564 681 564 681 565 688 c 0,79,80
 569 717 569 717 563 722 c 0,81,82
 539 736 539 736 541 736 c 0,83,84
 536 739 536 739 524 746 c 0,85,86
 515 751 515 751 517 764 c 0,87,88
 518 770 518 770 526 777 c 0,89,90
 533 784 533 784 542 785 c 0,91,92
 562 787 562 787 583.5 792.5 c 128,-1,93
 605 798 605 798 624 804 c 0,94,95
 641 809 641 809 654 813 c 0,96,97
 666 817 666 817 670.5 817 c 128,-1,98
 675 817 675 817 676 813 c 0,99,100
 677 810 677 810 676 806 c 2,101,-1
 651 697 l 2,102,103
 640 652 640 652 639 649 c 0,104,105
 636 633 636 633 632 616 c 0,106,107
 587 420 587 420 583 414 c 0,108,109
 581 411 581 411 515 124 c 2,110,-1
 511 105 l 2,111,112
 506 85 506 85 505 73 c 0,113,114
 503 55 503 55 506 48 c 0,115,116
 510 41 510 41 523 41 c 0,117,118
 532 41 532 41 541 43 c 0,119,120
 559 47 559 47 560 47 c 0,121,122
 565 47 565 47 569 43 c 0,123,124
 573 40 573 40 571 32 c 0,23,24
EndSplineSet
Validated: 33
Substitution2: "'smcp' Gemeine in Kapit+AOQA-lchen in Lateinisch Nachschlagetabelle 0 Subtabelle" uni1D05
EndChar

StartChar: e
Encoding: 101 101 86
Width: 468
Flags: W
LayerCount: 2
Fore
SplineSet
431 392 m 0,0,1
 435 410 435 410 432 428 c 128,-1,2
 429 446 429 446 420 459.5 c 128,-1,3
 411 473 411 473 397 480.5 c 128,-1,4
 383 488 383 488 367 488 c 0,5,6
 345 488 345 488 322.5 477 c 128,-1,7
 300 466 300 466 280 447 c 128,-1,8
 260 428 260 428 245 404.5 c 128,-1,9
 230 381 230 381 225 357 c 0,10,11
 224 353 224 353 230.5 351 c 128,-1,12
 237 349 237 349 245.5 349 c 128,-1,13
 254 349 254 349 262 349 c 128,-1,14
 270 349 270 349 272 349 c 0,15,16
 301 349 301 349 319 348.5 c 128,-1,17
 337 348 337 348 366 350 c 0,18,19
 378 351 378 351 388 352.5 c 128,-1,20
 398 354 398 354 406.5 357 c 128,-1,21
 415 360 415 360 421.5 368.5 c 128,-1,22
 428 377 428 377 431 392 c 0,0,1
502 337 m 0,23,24
 499 323 499 323 493 314 c 0,25,26
 488 313 488 313 482 312 c 128,-1,27
 476 311 476 311 471 311 c 2,28,-1
 220 311 l 2,29,30
 216 311 216 311 209 309 c 0,31,32
 206 309 206 309 203.5 300.5 c 128,-1,33
 201 292 201 292 199 283 c 2,34,-1
 197 274 l 2,35,36
 188 229 188 229 186.5 187.5 c 128,-1,37
 185 146 185 146 197 115.5 c 128,-1,38
 209 85 209 85 236 66.5 c 128,-1,39
 263 48 263 48 309 48 c 0,40,41
 328 48 328 48 343.5 51.5 c 128,-1,42
 359 55 359 55 373.5 62 c 128,-1,43
 388 69 388 69 403 78.5 c 128,-1,44
 418 88 418 88 435 100 c 0,45,46
 436 101 436 101 443 101 c 256,47,48
 450 101 450 101 450 94 c 0,49,50
 449 88 449 88 440.5 79.5 c 128,-1,51
 432 71 432 71 423 61.5 c 128,-1,52
 414 52 414 52 404.5 44 c 128,-1,53
 395 36 395 36 390 33 c 0,54,55
 351 3 351 3 319 -10.5 c 128,-1,56
 287 -24 287 -24 246 -24 c 0,57,58
 198 -24 198 -24 165.5 -5.5 c 128,-1,59
 133 13 133 13 115.5 46.5 c 128,-1,60
 98 80 98 80 95 124 c 128,-1,61
 92 168 92 168 102 218 c 0,62,63
 113 271 113 271 136 325 c 128,-1,64
 159 379 159 379 192 422.5 c 128,-1,65
 225 466 225 466 269.5 493.5 c 128,-1,66
 314 521 314 521 369 521 c 0,67,68
 430 521 430 521 466.5 492 c 128,-1,69
 503 463 503 463 506 395 c 0,70,71
 507 381 507 381 505.5 366 c 128,-1,72
 504 351 504 351 502 337 c 0,23,24
EndSplineSet
Validated: 33
Substitution2: "'smcp' Gemeine in Kapit+AOQA-lchen in Lateinisch Nachschlagetabelle 0 Subtabelle" uni1D07
EndChar

StartChar: f
Encoding: 102 102 87
Width: 276
Flags: W
HStem: -310 51<-127.938 -17.875> 472 46<140.127 204.25 304.277 422.967> 761 51<413.875 525.335>
VStem: 539 81<702.299 745.125>
DStem2: 27.3975 -310.062 109.436 -310.062 0.228351 0.973579<204.757 797.792>
LayerCount: 2
Fore
SplineSet
620 738 m 0,0,1
 620 726 620 726 610 715 c 0,2,3
 601 703 601 703 589 696.5 c 128,-1,4
 577 690 577 690 563 689 c 0,5,6
 552 688 552 688 544 695 c 0,7,8
 539 699 539 699 539 711 c 0,9,10
 538 723 538 723 530.5 733 c 128,-1,11
 523 743 523 743 505 752 c 0,12,13
 488 760 488 760 447 761 c 0,14,15
 427 761 427 761 408 748 c 0,16,17
 390 734 390 734 375 713 c 0,18,19
 358 686 358 686 348 666 c 0,20,21
 326 613 326 613 325.5 612.5 c 128,-1,22
 325 612 325 612 313 575 c 2,23,24
 308 559 308 559 308 557 c 1,25,26
 307 553 307 553 304 539 c 0,27,28
 301 524 301 524 305 518 c 1,29,-1
 418 518 l 2,30,31
 443 512 443 512 436 512 c 0,32,33
 436 512 436 512 434 503 c 0,34,35
 433 499 433 499 433 494 c 0,36,37
 431 485 431 485 423 474 c 0,38,39
 422 473 422 473 412 473 c 0,40,41
 407 473 407 473 399 472 c 2,42,-1
 337 472 l 2,43,44
 327 472 327 472 316 472 c 0,45,46
 308 472 308 472 297 471 c 1,47,48
 288 463 288 463 286 449 c 0,49,50
 285 443 285 443 266 361 c 0,51,52
 250 290 250 290 233.5 221 c 128,-1,53
 217 152 217 152 201 82 c 0,54,55
 201 82 201 82 177 -22 c 0,56,57
 168 -47 168 -47 164 -57 c 0,58,59
 158 -82 158 -82 140 -118 c 0,60,61
 122 -157 122 -157 95.5 -192 c 128,-1,62
 69 -227 69 -227 35 -254 c 0,63,64
 2 -281 2 -281 -37 -296 c 128,-1,65
 -76 -311 -76 -311 -117 -310 c 0,66,67
 -139 -310 -139 -310 -160 -307 c 128,-1,68
 -181 -304 -181 -304 -196.5 -295.5 c 128,-1,69
 -212 -287 -212 -287 -219 -272 c 0,70,71
 -222 -266 -222 -266 -223 -237 c 0,72,73
 -223 -225 -223 -225 -214 -213.5 c 128,-1,74
 -205 -202 -205 -202 -193 -195 c 0,75,76
 -181 -189 -181 -189 -167 -187 c 0,77,78
 -156 -186 -156 -186 -147 -194 c 0,79,80
 -142 -198 -142 -198 -141 -209 c 128,-1,81
 -140 -220 -140 -220 -134 -230 c 0,82,83
 -127 -240 -127 -240 -109 -250 c 0,84,85
 -92 -258 -92 -258 -51 -259 c 0,86,87
 -31 -259 -31 -259 -12.5 -245.5 c 128,-1,88
 6 -232 6 -232 22 -211 c 0,89,90
 39 -184 39 -184 49 -164 c 0,91,92
 71 -111 71 -111 71 -110 c 0,93,94
 73 -110 73 -110 83 -73 c 2,95,-1
 202 440 l 2,96,97
 206 459 206 459 205 468 c 1,98,99
 181 471 181 471 158 471 c 0,100,101
 151 471 151 471 140 473 c 0,102,103
 131 475 131 475 133 486 c 0,104,105
 134 489 134 489 136 495.5 c 128,-1,106
 138 502 138 502 140 506 c 0,107,108
 144 511 144 511 155 513 c 0,109,110
 165 514 165 514 177 516 c 128,-1,111
 189 518 189 518 201 519 c 128,-1,112
 213 520 213 520 219 523 c 1,113,114
 228 548 228 548 232 559 c 0,115,116
 238 584 238 584 256 620 c 0,117,118
 274 659 274 659 301 694 c 128,-1,119
 328 729 328 729 361 756 c 128,-1,120
 394 783 394 783 433 798 c 128,-1,121
 472 813 472 813 513 812 c 0,122,123
 535 812 535 812 556.5 809 c 128,-1,124
 578 806 578 806 593 797 c 128,-1,125
 608 788 608 788 615 774 c 0,126,127
 619 768 619 768 620 738 c 0,0,1
EndSplineSet
Validated: 33
Substitution2: "'smcp' Gemeine in Kapit+AOQA-lchen in Lateinisch Nachschlagetabelle 0 Subtabelle" uniA730
EndChar

StartChar: g
Encoding: 103 103 88
Width: 532
Flags: W
LayerCount: 2
Fore
SplineSet
428 346 m 0,0,1
 431 375 431 375 430.5 399.5 c 128,-1,2
 430 424 430 424 421.5 441.5 c 128,-1,3
 413 459 413 459 394 467 c 128,-1,4
 375 475 375 475 343 471 c 0,5,6
 316 468 316 468 296 453 c 128,-1,7
 276 438 276 438 261.5 418 c 128,-1,8
 247 398 247 398 238 376 c 128,-1,9
 229 354 229 354 227 338 c 0,10,11
 223 311 223 311 223.5 285 c 128,-1,12
 224 259 224 259 232 239 c 128,-1,13
 240 219 240 219 257.5 208.5 c 128,-1,14
 275 198 275 198 304 201 c 0,15,16
 334 204 334 204 355.5 215.5 c 128,-1,17
 377 227 377 227 390.5 246 c 128,-1,18
 404 265 404 265 413.5 290 c 128,-1,19
 423 315 423 315 428 346 c 0,0,1
419 -152 m 0,20,21
 434 -83 434 -83 400 -51.5 c 128,-1,22
 366 -20 366 -20 283 -22 c 0,23,24
 206 -22 206 -22 154.5 -58.5 c 128,-1,25
 103 -95 103 -95 86 -171 c 0,26,27
 81 -195 81 -195 89 -216 c 128,-1,28
 97 -237 97 -237 115 -252.5 c 128,-1,29
 133 -268 133 -268 158 -277.5 c 128,-1,30
 183 -287 183 -287 210 -287 c 0,31,32
 242 -287 242 -287 275.5 -276.5 c 128,-1,33
 309 -266 309 -266 339 -247.5 c 128,-1,34
 369 -229 369 -229 390.5 -205.5 c 128,-1,35
 412 -182 412 -182 419 -152 c 0,20,21
5 -163 m 0,36,37
 8 -151 8 -151 19 -132.5 c 128,-1,38
 30 -114 30 -114 49 -93 c 128,-1,39
 68 -72 68 -72 96.5 -51 c 128,-1,40
 125 -30 125 -30 165 -10 c 1,41,42
 105 -16 105 -16 79 8 c 128,-1,43
 53 32 53 32 62 69 c 0,44,45
 65 85 65 85 83 101.5 c 128,-1,46
 101 118 101 118 126.5 131.5 c 128,-1,47
 152 145 152 145 179 156 c 128,-1,48
 206 167 206 167 226 171 c 1,49,50
 206 184 206 184 188 200 c 128,-1,51
 170 216 170 216 157.5 235.5 c 128,-1,52
 145 255 145 255 141.5 280 c 128,-1,53
 138 305 138 305 145 336 c 0,54,55
 155 379 155 379 178 411.5 c 128,-1,56
 201 444 201 444 230.5 466.5 c 128,-1,57
 260 489 260 489 295.5 501.5 c 128,-1,58
 331 514 331 514 367 514 c 0,59,60
 395 514 395 514 416.5 504.5 c 128,-1,61
 438 495 438 495 461 482 c 0,62,63
 472 476 472 476 481 468 c 128,-1,64
 490 460 490 460 505 451 c 0,65,66
 522 440 522 440 544.5 444.5 c 128,-1,67
 567 449 567 449 591 449 c 0,68,69
 602 449 602 449 602.5 437.5 c 128,-1,70
 603 426 603 426 601 417 c 0,71,72
 598 405 598 405 589.5 399.5 c 128,-1,73
 581 394 581 394 569.5 393 c 128,-1,74
 558 392 558 392 546 392.5 c 128,-1,75
 534 393 534 393 524 393 c 0,76,77
 516 393 516 393 517.5 392 c 128,-1,78
 519 391 519 391 511 385 c 1,79,80
 510 373 510 373 509.5 364.5 c 128,-1,81
 509 356 509 356 506 343 c 0,82,83
 503 331 503 331 500.5 323 c 128,-1,84
 498 315 498 315 490 303 c 0,85,86
 463 249 463 249 418 212 c 128,-1,87
 373 175 373 175 318 167 c 0,88,89
 302 165 302 165 276 160 c 128,-1,90
 250 155 250 155 225 146 c 128,-1,91
 200 137 200 137 180.5 123.5 c 128,-1,92
 161 110 161 110 157 92 c 0,93,94
 152 69 152 69 167 60.5 c 128,-1,95
 182 52 182 52 207.5 51.5 c 128,-1,96
 233 51 233 51 263.5 55 c 128,-1,97
 294 59 294 59 318 61 c 0,98,99
 357 64 357 64 393.5 54.5 c 128,-1,100
 430 45 430 45 454.5 22.5 c 128,-1,101
 479 0 479 0 490 -36.5 c 128,-1,102
 501 -73 501 -73 489 -121 c 0,103,104
 474 -191 474 -191 439 -233 c 128,-1,105
 404 -275 404 -275 359 -299 c 128,-1,106
 314 -323 314 -323 265.5 -331 c 128,-1,107
 217 -339 217 -339 174 -339 c 0,108,109
 132 -339 132 -339 96 -325 c 128,-1,110
 60 -311 60 -311 36.5 -287.5 c 128,-1,111
 13 -264 13 -264 4 -232.5 c 128,-1,112
 -5 -201 -5 -201 5 -163 c 0,36,37
EndSplineSet
Validated: 33
Substitution2: "'smcp' Gemeine in Kapit+AOQA-lchen in Lateinisch Nachschlagetabelle 0 Subtabelle" uni0262
EndChar

